<svg width="683" height="284" viewBox="0 0 683 284" fill="none" xmlns="http://www.w3.org/2000/svg">
<mask id="path-1-outside-1" maskUnits="userSpaceOnUse" x="0.22583" y="0.432007" width="683" height="284" fill="black">
<rect fill="white" x="0.22583" y="0.432007" width="683" height="284"/>
<path d="M67.7058 91C65.7618 91.072 63.9258 91.108 62.1978 91.108C55.6458 91.108 49.9578 90.352 45.1339 88.84C41.8939 87.832 37.1058 86.392 30.7698 84.52C26.5218 83.368 21.3378 81.82 15.2178 79.876C9.88983 77.5 7.22583 74.404 7.22583 70.588C7.22583 69.58 7.36984 68.608 7.65784 67.672C11.4018 55.648 16.9459 44.92 24.2899 35.488C33.2899 23.968 42.6858 18.208 52.4778 18.208C52.6218 19.72 52.6938 21.268 52.6938 22.852C52.6938 24.58 52.3698 29.26 51.7218 36.892C51.2178 42.508 51.3618 47.26 52.1538 51.148C47.4018 53.308 43.2619 54.388 39.7339 54.388C35.6299 54.388 33.5779 52.696 33.5779 49.312C30.1218 52.768 27.9618 55.18 27.0978 56.548C25.5138 59.068 24.8658 62.056 25.1538 65.512C25.5858 70.768 28.3578 74.944 33.4698 78.04C37.7898 80.632 42.7938 81.928 48.4818 81.928C48.5538 77.392 48.8419 70.66 49.3459 61.732C56.6179 58.132 62.6658 56.476 67.4898 56.764C66.4818 64.684 65.9778 70.696 65.9778 74.8C65.9778 79.984 66.5538 85.384 67.7058 91Z"/>
<path d="M128.377 85.384C123.409 88.84 118.117 90.712 112.501 91C111.997 88.624 110.304 84.88 107.424 79.768C104.832 75.16 103.393 71.344 103.105 68.32C100.081 68.824 96.8045 69.976 93.2766 71.776L85.3925 75.772C84.4565 77.212 83.9165 79.336 83.7725 82.144C83.8445 84.448 83.7725 87.616 83.5565 91.648C81.9725 93.376 79.5965 94.492 76.4285 94.996C74.9885 95.212 72.0725 95.32 67.6805 95.32C67.6805 88.12 68.5805 80.776 70.3805 73.288C71.6045 68.464 73.4045 61.192 75.7805 51.472C77.2925 44.92 78.0485 39.052 78.0485 33.868C78.0485 30.34 77.6885 26.344 76.9685 21.88L86.6885 17.452C93.8165 14.284 99.7205 11.944 104.401 10.432C104.401 19.072 105.373 26.884 107.317 33.868C109.045 39.916 112.105 47.152 116.497 55.576C119.665 54.568 121.645 54.064 122.437 54.064C123.589 54.064 124.633 54.352 125.569 54.928C124.993 56.008 124.056 56.908 122.76 57.628C121.464 58.348 120.205 59.032 118.981 59.68C118.621 59.896 118.333 60.076 118.117 60.22C119.845 62.884 121.609 67.06 123.409 72.748C125.281 78.724 126.937 82.936 128.377 85.384ZM100.297 61.732C97.0565 53.38 94.5725 45.928 92.8445 39.376C92.8445 42.832 92.0885 47.62 90.5765 53.74C88.9925 60.292 88.0925 65.044 87.8765 67.996C90.5405 66.916 94.6805 64.828 100.297 61.732Z"/>
<path d="M188.286 53.2C185.334 57.592 183.138 63.676 181.698 71.452C180.546 77.644 180.078 83.224 180.294 88.192C178.278 90.424 175.218 91.54 171.114 91.54C169.53 91.54 167.478 91.36 164.958 91C164.958 81.712 166.47 71.344 169.494 59.896C166.614 58.384 163.734 57.412 160.854 56.98C158.982 56.692 155.922 56.548 151.674 56.548C151.458 57.988 151.35 59.392 151.35 60.76C151.35 67.528 154.806 75.016 161.718 83.224C158.334 85.456 155.85 86.968 154.266 87.76C151.674 88.984 148.974 89.704 146.166 89.92C145.374 87.04 143.178 80.776 139.578 71.128C136.77 63.784 135.078 56.332 134.502 48.772C134.142 44.092 134.142 36.424 134.502 25.768C131.694 24.544 130.254 23.896 130.182 23.824C129.102 23.104 128.49 21.808 128.346 19.936C132.378 16.624 136.014 14.968 139.254 14.968C141.342 14.968 144.726 15.976 149.406 17.992C155.31 20.512 160.494 22.276 164.958 23.284C175.542 25.588 180.834 29.008 180.834 33.544C180.834 37.72 178.278 40.996 173.166 43.372C169.278 45.244 165.462 47.044 161.718 48.772C164.598 49.636 169.026 50.392 175.002 51.04C180.978 51.616 185.406 52.336 188.286 53.2ZM158.91 33.328C157.254 32.968 154.734 32.464 151.35 31.816V45.208C159.63 44.128 163.77 41.932 163.77 38.62C163.77 35.884 162.15 34.12 158.91 33.328Z"/>
<path d="M250.806 21.34C250.806 26.524 247.026 29.116 239.466 29.116C235.074 29.116 229.278 28.18 222.078 26.308C219.342 25.588 215.021 25.156 209.117 25.012C208.469 28.612 207.462 34.768 206.094 43.48C209.766 43.624 215.49 44.488 223.266 46.072C230.682 47.584 236.405 48.34 240.438 48.34C240.941 49.42 241.553 51.148 242.273 53.524C237.953 55.972 232.518 57.196 225.966 57.196C220.782 57.196 214.05 56.368 205.77 54.712C204.546 56.8 203.934 59.32 203.934 62.272C203.934 67.528 205.661 73.396 209.117 79.876C214.373 79.66 219.306 78.4 223.914 76.096C224.778 75.664 228.45 73.396 234.93 69.292C239.106 66.628 242.958 64.936 246.486 64.216C247.35 65.656 247.781 66.844 247.781 67.78C247.781 69.724 245.01 71.992 239.466 74.584L210.737 88.084C206.561 90.1 203.25 91.108 200.802 91.108C195.834 91.108 192.306 87.868 190.218 81.388C188.922 77.356 188.273 71.488 188.273 63.784C188.273 52.624 189.425 42.4 191.729 33.112C194.465 22.168 198.03 15.796 202.422 13.996C204.654 13.06 207.353 12.592 210.521 12.592C214.553 12.592 220.854 13.816 229.422 16.264C239.214 19.072 246.342 20.764 250.806 21.34Z"/>
<path d="M313.37 21.34C313.37 26.524 309.59 29.116 302.03 29.116C297.638 29.116 291.842 28.18 284.642 26.308C281.906 25.588 277.586 25.156 271.682 25.012C271.034 28.612 270.026 34.768 268.658 43.48C272.33 43.624 278.054 44.488 285.83 46.072C293.246 47.584 298.97 48.34 303.002 48.34C303.506 49.42 304.118 51.148 304.838 53.524C300.518 55.972 295.082 57.196 288.53 57.196C283.346 57.196 276.614 56.368 268.334 54.712C267.11 56.8 266.498 59.32 266.498 62.272C266.498 67.528 268.226 73.396 271.682 79.876C276.938 79.66 281.87 78.4 286.478 76.096C287.342 75.664 291.014 73.396 297.494 69.292C301.67 66.628 305.522 64.936 309.05 64.216C309.914 65.656 310.346 66.844 310.346 67.78C310.346 69.724 307.574 71.992 302.03 74.584L273.302 88.084C269.126 90.1 265.814 91.108 263.366 91.108C258.398 91.108 254.87 87.868 252.782 81.388C251.486 77.356 250.838 71.488 250.838 63.784C250.838 52.624 251.99 42.4 254.294 33.112C257.03 22.168 260.594 15.796 264.986 13.996C267.218 13.06 269.918 12.592 273.086 12.592C277.118 12.592 283.418 13.816 291.986 16.264C301.778 19.072 308.906 20.764 313.37 21.34Z"/>
<path d="M373.342 53.2C370.39 57.592 368.194 63.676 366.754 71.452C365.602 77.644 365.134 83.224 365.35 88.192C363.334 90.424 360.274 91.54 356.17 91.54C354.586 91.54 352.534 91.36 350.014 91C350.014 81.712 351.526 71.344 354.55 59.896C351.67 58.384 348.79 57.412 345.91 56.98C344.038 56.692 340.978 56.548 336.73 56.548C336.514 57.988 336.406 59.392 336.406 60.76C336.406 67.528 339.862 75.016 346.774 83.224C343.39 85.456 340.906 86.968 339.322 87.76C336.73 88.984 334.03 89.704 331.222 89.92C330.43 87.04 328.234 80.776 324.634 71.128C321.826 63.784 320.134 56.332 319.558 48.772C319.198 44.092 319.198 36.424 319.558 25.768C316.75 24.544 315.31 23.896 315.238 23.824C314.158 23.104 313.546 21.808 313.402 19.936C317.434 16.624 321.07 14.968 324.31 14.968C326.398 14.968 329.782 15.976 334.462 17.992C340.366 20.512 345.55 22.276 350.014 23.284C360.598 25.588 365.89 29.008 365.89 33.544C365.89 37.72 363.334 40.996 358.222 43.372C354.334 45.244 350.518 47.044 346.774 48.772C349.654 49.636 354.082 50.392 360.058 51.04C366.034 51.616 370.462 52.336 373.342 53.2ZM343.966 33.328C342.31 32.968 339.79 32.464 336.406 31.816V45.208C344.686 44.128 348.826 41.932 348.826 38.62C348.826 35.884 347.206 34.12 343.966 33.328Z"/>
<path d="M489.774 57.844C487.614 57.628 485.454 57.52 483.294 57.52C479.766 57.52 474.474 57.952 467.418 58.816C460.362 59.68 455.07 60.112 451.542 60.112C451.542 64.216 451.614 69.58 451.758 76.204L451.866 85.816C451.866 88.264 450.03 89.632 446.358 89.92C440.598 90.352 437.322 90.712 436.53 91C435.018 85.456 434.118 78.58 433.83 70.372C433.398 57.988 433.11 51.148 432.966 49.852C432.102 42.076 430.23 34.984 427.35 28.576C437.79 23.176 449.31 20.476 461.91 20.476C474.222 20.476 483.51 23.068 489.774 28.252C484.518 30.196 480.054 31.168 476.382 31.168C474.366 31.168 471.738 30.592 468.498 29.44C465.258 28.216 462.882 27.604 461.37 27.604C460.578 27.604 459.534 27.748 458.238 28.036C454.71 28.828 452.946 31.636 452.946 36.46C452.946 37.396 453.054 39.232 453.27 41.968C453.414 44.272 453.45 46.108 453.378 47.476C453.234 49.348 452.838 51.004 452.19 52.444C455.502 53.38 458.814 53.848 462.126 53.848C465.15 53.848 469.722 53.308 475.842 52.228C481.962 51.148 486.606 50.608 489.774 50.608V57.844Z"/>
<path d="M550.505 85.384C545.537 88.84 540.245 90.712 534.629 91C534.125 88.624 532.433 84.88 529.553 79.768C526.961 75.16 525.521 71.344 525.233 68.32C522.209 68.824 518.933 69.976 515.405 71.776L507.521 75.772C506.585 77.212 506.045 79.336 505.901 82.144C505.973 84.448 505.901 87.616 505.685 91.648C504.101 93.376 501.725 94.492 498.557 94.996C497.117 95.212 494.201 95.32 489.809 95.32C489.809 88.12 490.709 80.776 492.509 73.288C493.733 68.464 495.533 61.192 497.909 51.472C499.421 44.92 500.177 39.052 500.177 33.868C500.177 30.34 499.817 26.344 499.097 21.88L508.817 17.452C515.945 14.284 521.849 11.944 526.529 10.432C526.529 19.072 527.501 26.884 529.445 33.868C531.173 39.916 534.233 47.152 538.625 55.576C541.793 54.568 543.773 54.064 544.565 54.064C545.717 54.064 546.761 54.352 547.697 54.928C547.121 56.008 546.185 56.908 544.889 57.628C543.593 58.348 542.333 59.032 541.109 59.68C540.749 59.896 540.461 60.076 540.245 60.22C541.973 62.884 543.737 67.06 545.537 72.748C547.409 78.724 549.065 82.936 550.505 85.384ZM522.425 61.732C519.185 53.38 516.701 45.928 514.973 39.376C514.973 42.832 514.217 47.62 512.705 53.74C511.121 60.292 510.221 65.044 510.005 67.996C512.669 66.916 516.809 64.828 522.425 61.732Z"/>
<path d="M611.386 65.836C611.674 66.7 611.818 67.492 611.818 68.212C611.818 70.156 610.63 71.704 608.254 72.856C606.526 73.72 603.754 74.512 599.938 75.232C596.194 75.952 593.494 76.708 591.838 77.5C588.382 79.156 583.162 81.64 576.178 84.952C569.554 88.048 564.046 90.064 559.654 91C559.798 90.496 559.618 89.848 559.114 89.056C558.682 88.264 558.466 87.76 558.466 87.544C558.466 86.248 560.266 84.916 563.866 83.548L570.454 81.064C563.902 70.048 560.626 59.68 560.626 49.96C560.626 47.656 560.77 45.136 561.058 42.4C561.562 37.504 563.506 30.844 566.89 22.42C566.098 21.052 564.55 20.368 562.246 20.368C561.454 20.368 560.302 20.476 558.79 20.692C557.278 20.836 556.126 20.908 555.334 20.908C551.878 20.908 550.258 19.072 550.474 15.4C555.73 14.032 561.022 13.348 566.35 13.348C572.11 13.348 578.878 14.248 586.654 16.048L607.93 21.016C608.362 25.12 605.626 27.172 599.722 27.172C595.978 27.172 591.298 26.38 585.682 24.796C583.306 24.148 580.858 27.352 578.338 34.408C576.178 40.528 575.098 45.136 575.098 48.232C575.098 52.336 575.926 56.98 577.582 62.164C579.454 68.284 581.758 72.244 584.494 74.044C595.654 68.572 604.618 65.836 611.386 65.836Z"/>
<path d="M671.713 53.2C668.761 57.592 666.565 63.676 665.125 71.452C663.973 77.644 663.505 83.224 663.721 88.192C661.705 90.424 658.645 91.54 654.541 91.54C652.957 91.54 650.905 91.36 648.385 91C648.385 81.712 649.897 71.344 652.921 59.896C650.041 58.384 647.161 57.412 644.281 56.98C642.409 56.692 639.349 56.548 635.101 56.548C634.885 57.988 634.777 59.392 634.777 60.76C634.777 67.528 638.233 75.016 645.145 83.224C641.761 85.456 639.277 86.968 637.693 87.76C635.101 88.984 632.401 89.704 629.593 89.92C628.801 87.04 626.605 80.776 623.005 71.128C620.197 63.784 618.505 56.332 617.929 48.772C617.569 44.092 617.569 36.424 617.929 25.768C615.121 24.544 613.681 23.896 613.609 23.824C612.529 23.104 611.917 21.808 611.773 19.936C615.805 16.624 619.441 14.968 622.681 14.968C624.769 14.968 628.153 15.976 632.833 17.992C638.737 20.512 643.921 22.276 648.385 23.284C658.969 25.588 664.261 29.008 664.261 33.544C664.261 37.72 661.705 40.996 656.593 43.372C652.705 45.244 648.889 47.044 645.145 48.772C648.025 49.636 652.453 50.392 658.429 51.04C664.405 51.616 668.833 52.336 671.713 53.2ZM642.337 33.328C640.681 32.968 638.161 32.464 634.777 31.816V45.208C643.057 44.128 647.197 41.932 647.197 38.62C647.197 35.884 645.577 34.12 642.337 33.328Z"/>
<path d="M150.651 261.384C145.683 264.84 140.392 266.712 134.776 267C134.272 264.624 132.58 260.88 129.7 255.768C127.108 251.16 125.668 247.344 125.38 244.32C122.356 244.824 119.08 245.976 115.552 247.776L107.668 251.772C106.732 253.212 106.192 255.336 106.048 258.144C106.12 260.448 106.048 263.616 105.832 267.648C104.248 269.376 101.871 270.492 98.7035 270.996C97.2635 271.212 94.3475 271.32 89.9555 271.32C89.9555 264.12 90.8555 256.776 92.6555 249.288C93.8795 244.464 95.6795 237.192 98.0555 227.472C99.5675 220.92 100.324 215.052 100.324 209.868C100.324 206.34 99.9635 202.344 99.2435 197.88L108.964 193.452C116.092 190.284 121.996 187.944 126.676 186.432C126.676 195.072 127.647 202.884 129.591 209.868C131.319 215.916 134.38 223.152 138.772 231.576C141.94 230.568 143.92 230.064 144.712 230.064C145.864 230.064 146.908 230.352 147.844 230.928C147.268 232.008 146.332 232.908 145.036 233.628C143.74 234.348 142.479 235.032 141.255 235.68C140.895 235.896 140.608 236.076 140.392 236.22C142.12 238.884 143.884 243.06 145.684 248.748C147.556 254.724 149.211 258.936 150.651 261.384ZM122.572 237.732C119.332 229.38 116.848 221.928 115.12 215.376C115.12 218.832 114.364 223.62 112.852 229.74C111.268 236.292 110.367 241.044 110.151 243.996C112.815 242.916 116.956 240.828 122.572 237.732Z"/>
<path d="M193.605 262.464C188.565 265.344 182.913 266.856 176.649 267C163.905 267.288 156.057 263.256 153.105 254.904C151.449 250.224 150.621 244.68 150.621 238.272C150.621 229.848 152.061 219.624 154.941 207.6C160.125 203.496 166.353 201.444 173.625 201.444C173.409 204.828 172.293 210.156 170.277 217.428C168.405 224.268 167.469 229.596 167.469 233.412C167.469 236.148 167.865 238.848 168.657 241.512C170.385 247.272 171.861 251.232 173.085 253.392C175.389 257.424 178.341 259.26 181.941 258.9C184.749 258.612 186.729 255.444 187.881 249.396C188.097 248.244 188.601 242.916 189.393 233.412C189.537 231.684 189.609 230.388 189.609 229.524C189.609 226.572 188.997 222.108 187.773 216.132C186.549 210.372 185.973 206.088 186.045 203.28C190.149 201.264 193.605 200.256 196.413 200.256C198.069 200.256 199.365 200.652 200.301 201.444C204.765 211.596 206.997 222.468 206.997 234.06C206.997 240.756 206.133 246.192 204.405 250.368C202.317 255.48 198.717 259.512 193.605 262.464Z"/>
<path d="M269.279 270.132C264.095 274.596 259.595 276.828 255.779 276.828C251.603 276.828 249.371 273.804 249.083 267.756C248.939 264.876 248.615 262.752 248.111 261.384C246.167 261.744 242.351 262.86 236.663 264.732C232.055 266.244 228.527 267 226.079 267C222.407 267 219.383 265.56 217.007 262.68C213.263 258.144 210.671 253.32 209.231 248.208C208.151 244.464 207.431 238.92 207.071 231.576C206.351 218.112 210.095 208.968 218.303 204.144C222.911 201.48 228.707 200.004 235.691 199.716C236.483 199.716 237.707 200.148 239.363 201.012C241.091 201.876 242.351 202.308 243.143 202.308C244.799 201.156 248.939 199.716 255.563 197.988C255.779 202.02 256.463 207.528 257.615 214.512L259.991 229.092C259.631 229.956 258.695 230.64 257.183 231.144C255.023 231.864 253.655 232.404 253.079 232.764C257.543 234.06 262.511 234.708 267.983 234.708C268.055 237.3 267.767 241.08 267.119 246.048C266.471 251.016 266.147 254.688 266.147 257.064C266.147 261.816 267.191 266.172 269.279 270.132ZM240.983 232.224C240.191 220.992 235.727 213.72 227.591 210.408C225.431 218.688 224.495 226.788 224.783 234.708C228.959 233.052 234.359 232.224 240.983 232.224ZM242.171 242.808C240.371 242.808 237.671 242.592 234.071 242.16C230.543 241.728 227.879 241.512 226.079 241.512C227.303 249.504 231.119 255.408 237.527 259.224C239.759 257.496 241.163 255.012 241.739 251.772C242.027 250.116 242.171 247.128 242.171 242.808Z"/>
<path d="M312.3 262.464C307.26 265.344 301.608 266.856 295.344 267C282.6 267.288 274.752 263.256 271.8 254.904C270.144 250.224 269.316 244.68 269.316 238.272C269.316 229.848 270.756 219.624 273.636 207.6C278.82 203.496 285.048 201.444 292.32 201.444C292.104 204.828 290.988 210.156 288.972 217.428C287.1 224.268 286.164 229.596 286.164 233.412C286.164 236.148 286.56 238.848 287.352 241.512C289.08 247.272 290.556 251.232 291.78 253.392C294.084 257.424 297.036 259.26 300.636 258.9C303.444 258.612 305.424 255.444 306.576 249.396C306.792 248.244 307.296 242.916 308.088 233.412C308.232 231.684 308.304 230.388 308.304 229.524C308.304 226.572 307.692 222.108 306.468 216.132C305.244 210.372 304.668 206.088 304.74 203.28C308.844 201.264 312.3 200.256 315.108 200.256C316.764 200.256 318.06 200.652 318.996 201.444C323.46 211.596 325.692 222.468 325.692 234.06C325.692 240.756 324.828 246.192 323.1 250.368C321.012 255.48 317.412 259.512 312.3 262.464Z"/>
<path d="M392.293 188.916C392.437 190.068 392.509 191.22 392.509 192.372C392.509 196.116 391.537 201.624 389.593 208.896C387.721 216.168 386.785 221.712 386.785 225.528C384.193 225.744 380.125 226.5 374.581 227.796C379.405 233.268 381.817 238.632 381.817 243.888C381.817 249.648 379.153 254.724 373.825 259.116C369.361 262.86 364.033 265.38 357.841 266.676C356.833 266.892 355.681 267 354.385 267C350.281 267 346.681 265.74 343.585 263.22C340.273 260.556 338.365 257.244 337.861 253.284C337.645 251.628 337.537 250.296 337.537 249.288C337.537 245.976 338.725 243.672 341.101 242.376C342.685 241.512 346.789 240.324 353.413 238.812C352.261 241.044 351.685 243.384 351.685 245.832C351.685 251.592 354.493 256.668 360.109 261.06C365.293 254.508 367.885 249.252 367.885 245.292C367.885 243.42 367.525 241.656 366.805 240C362.917 231 354.025 226.5 340.129 226.5C338.401 226.5 336.529 226.536 334.513 226.608C334.153 224.88 333.037 219.732 331.165 211.164C329.941 205.548 328.105 200.724 325.657 196.692C328.753 194.388 332.245 192.984 336.133 192.48C338.653 192.12 342.469 192.084 347.581 192.372C352.693 192.588 356.509 192.516 359.029 192.156C366.877 191.148 372.385 190.464 375.553 190.104C380.593 189.528 386.173 189.132 392.293 188.916ZM370.909 225.528C370.765 217.176 370.549 212.028 370.261 210.084C369.109 203.028 366.337 199.5 361.945 199.5C360.577 199.5 359.209 199.644 357.841 199.932C355.609 200.436 353.809 201.732 352.441 203.82C351.073 205.836 350.389 208.032 350.389 210.408C350.389 211.56 350.569 212.712 350.929 213.864C351.937 216.96 354.781 219.264 359.461 220.776C365.653 222.792 369.469 224.376 370.909 225.528ZM346.177 197.772L340.669 198.312L340.885 201.336L346.177 197.772Z"/>
<path d="M459.721 191.184C456.913 194.208 452.845 196.26 447.517 197.34C440.461 198.78 435.817 200.04 433.585 201.12C430.921 202.416 429.589 204.396 429.589 207.06C429.589 209.364 430.633 212.784 432.721 217.32C435.241 222.864 436.753 226.572 437.257 228.444C438.121 231.612 440.497 236.508 444.385 243.132C447.769 248.82 449.461 253.212 449.461 256.308C449.461 259.548 448.381 262.248 446.221 264.408C444.133 266.496 441.433 267.54 438.121 267.54C437.041 267.54 435.457 267.432 433.369 267.216C431.281 267.072 429.697 267 428.617 267C428.041 264.48 427.213 259.224 426.133 251.232C425.341 245.4 424.081 240.288 422.353 235.896C421.993 235.032 420.013 231.108 416.413 224.124C414.109 219.66 412.957 215.988 412.957 213.108C412.957 210.66 413.605 208.32 414.901 206.088C412.741 206.088 409.609 206.556 405.505 207.492C401.473 208.428 398.449 208.896 396.433 208.896C395.137 208.896 393.841 208.788 392.545 208.572C398.161 202.956 404.605 198.96 411.877 196.584C416.341 195.144 423.469 193.848 433.261 192.696C443.629 191.472 451.621 190.14 457.237 188.7L459.721 191.184Z"/>
<path d="M552.003 186.972C552.435 189.708 552.651 192.408 552.651 195.072C552.651 198.168 552.183 202.776 551.247 208.896C550.383 214.944 549.951 219.516 549.951 222.612C549.951 227.796 551.283 235.068 553.947 244.428C556.467 244.284 560.427 243.384 565.827 241.728C571.011 240.144 574.935 239.352 577.599 239.352C581.127 239.352 584.043 240.504 586.347 242.808C583.467 244.968 578.355 246.372 571.011 247.02C564.171 247.596 559.023 248.532 555.567 249.828C551.895 251.124 547.431 253.68 542.175 257.496C537.783 260.736 534.651 262.824 532.779 263.76C529.107 265.632 524.931 266.712 520.251 267C523.707 262.176 530.079 257.1 539.367 251.772C536.991 244.212 535.803 235.356 535.803 225.204C535.803 219.948 536.127 214.404 536.775 208.572C533.895 211.02 530.727 213.072 527.271 214.728C524.751 215.952 521.151 217.284 516.471 218.724C518.055 216.78 520.539 214.368 523.923 211.488C527.595 208.392 530.115 206.052 531.483 204.468C534.075 201.516 536.163 198.024 537.747 193.992C539.907 192.264 544.659 189.924 552.003 186.972Z"/>
<path d="M665.021 231.792L664.373 236.112C662.141 236.112 659.297 236.58 655.841 237.516C651.953 238.524 649.181 239.1 647.525 239.244C645.365 243.42 641.657 252.024 636.401 265.056C634.745 266.496 632.081 267.216 628.409 267.216C627.617 267.144 624.665 266.928 619.553 266.568C620.561 262.392 622.109 258.072 624.197 253.608C624.197 253.536 626.285 249.468 630.461 241.404C628.301 241.332 625.277 241.656 621.389 242.376C617.285 243.168 614.261 243.564 612.317 243.564C610.517 243.564 608.789 243.348 607.133 242.916C612.389 239.172 621.425 236.616 634.241 235.248C638.705 225.096 644.609 214.728 651.953 204.144C647.129 201.912 641.081 200.544 633.809 200.04C629.633 199.824 623.333 199.428 614.909 198.852C611.957 198.636 610.481 199.86 610.481 202.524C610.481 204.396 611.165 207.816 612.533 212.784C613.973 217.68 614.585 221.424 614.369 224.016C613.217 224.088 611.345 224.664 608.753 225.744C606.233 226.824 604.433 227.364 603.353 227.364C602.345 227.364 601.445 227.076 600.653 226.5C598.133 224.556 595.973 221.424 594.173 217.104C592.589 213.072 591.797 209.292 591.797 205.764C591.797 196.26 601.661 191.508 621.389 191.508C628.013 191.508 635.357 192.3 643.421 193.884C648.245 194.604 653.105 195.288 658.001 195.936C665.345 197.448 669.017 199.608 669.017 202.416C669.017 207.24 665.093 214.656 657.245 224.664L654.761 230.496C658.289 230.496 661.709 230.928 665.021 231.792Z"/>
</mask>
<path d="M67.7058 91C65.7618 91.072 63.9258 91.108 62.1978 91.108C55.6458 91.108 49.9578 90.352 45.1339 88.84C41.8939 87.832 37.1058 86.392 30.7698 84.52C26.5218 83.368 21.3378 81.82 15.2178 79.876C9.88983 77.5 7.22583 74.404 7.22583 70.588C7.22583 69.58 7.36984 68.608 7.65784 67.672C11.4018 55.648 16.9459 44.92 24.2899 35.488C33.2899 23.968 42.6858 18.208 52.4778 18.208C52.6218 19.72 52.6938 21.268 52.6938 22.852C52.6938 24.58 52.3698 29.26 51.7218 36.892C51.2178 42.508 51.3618 47.26 52.1538 51.148C47.4018 53.308 43.2619 54.388 39.7339 54.388C35.6299 54.388 33.5779 52.696 33.5779 49.312C30.1218 52.768 27.9618 55.18 27.0978 56.548C25.5138 59.068 24.8658 62.056 25.1538 65.512C25.5858 70.768 28.3578 74.944 33.4698 78.04C37.7898 80.632 42.7938 81.928 48.4818 81.928C48.5538 77.392 48.8419 70.66 49.3459 61.732C56.6179 58.132 62.6658 56.476 67.4898 56.764C66.4818 64.684 65.9778 70.696 65.9778 74.8C65.9778 79.984 66.5538 85.384 67.7058 91Z" fill="white"/>
<path d="M128.377 85.384C123.409 88.84 118.117 90.712 112.501 91C111.997 88.624 110.304 84.88 107.424 79.768C104.832 75.16 103.393 71.344 103.105 68.32C100.081 68.824 96.8045 69.976 93.2766 71.776L85.3925 75.772C84.4565 77.212 83.9165 79.336 83.7725 82.144C83.8445 84.448 83.7725 87.616 83.5565 91.648C81.9725 93.376 79.5965 94.492 76.4285 94.996C74.9885 95.212 72.0725 95.32 67.6805 95.32C67.6805 88.12 68.5805 80.776 70.3805 73.288C71.6045 68.464 73.4045 61.192 75.7805 51.472C77.2925 44.92 78.0485 39.052 78.0485 33.868C78.0485 30.34 77.6885 26.344 76.9685 21.88L86.6885 17.452C93.8165 14.284 99.7205 11.944 104.401 10.432C104.401 19.072 105.373 26.884 107.317 33.868C109.045 39.916 112.105 47.152 116.497 55.576C119.665 54.568 121.645 54.064 122.437 54.064C123.589 54.064 124.633 54.352 125.569 54.928C124.993 56.008 124.056 56.908 122.76 57.628C121.464 58.348 120.205 59.032 118.981 59.68C118.621 59.896 118.333 60.076 118.117 60.22C119.845 62.884 121.609 67.06 123.409 72.748C125.281 78.724 126.937 82.936 128.377 85.384ZM100.297 61.732C97.0565 53.38 94.5725 45.928 92.8445 39.376C92.8445 42.832 92.0885 47.62 90.5765 53.74C88.9925 60.292 88.0925 65.044 87.8765 67.996C90.5405 66.916 94.6805 64.828 100.297 61.732Z" fill="white"/>
<path d="M188.286 53.2C185.334 57.592 183.138 63.676 181.698 71.452C180.546 77.644 180.078 83.224 180.294 88.192C178.278 90.424 175.218 91.54 171.114 91.54C169.53 91.54 167.478 91.36 164.958 91C164.958 81.712 166.47 71.344 169.494 59.896C166.614 58.384 163.734 57.412 160.854 56.98C158.982 56.692 155.922 56.548 151.674 56.548C151.458 57.988 151.35 59.392 151.35 60.76C151.35 67.528 154.806 75.016 161.718 83.224C158.334 85.456 155.85 86.968 154.266 87.76C151.674 88.984 148.974 89.704 146.166 89.92C145.374 87.04 143.178 80.776 139.578 71.128C136.77 63.784 135.078 56.332 134.502 48.772C134.142 44.092 134.142 36.424 134.502 25.768C131.694 24.544 130.254 23.896 130.182 23.824C129.102 23.104 128.49 21.808 128.346 19.936C132.378 16.624 136.014 14.968 139.254 14.968C141.342 14.968 144.726 15.976 149.406 17.992C155.31 20.512 160.494 22.276 164.958 23.284C175.542 25.588 180.834 29.008 180.834 33.544C180.834 37.72 178.278 40.996 173.166 43.372C169.278 45.244 165.462 47.044 161.718 48.772C164.598 49.636 169.026 50.392 175.002 51.04C180.978 51.616 185.406 52.336 188.286 53.2ZM158.91 33.328C157.254 32.968 154.734 32.464 151.35 31.816V45.208C159.63 44.128 163.77 41.932 163.77 38.62C163.77 35.884 162.15 34.12 158.91 33.328Z" fill="white"/>
<path d="M250.806 21.34C250.806 26.524 247.026 29.116 239.466 29.116C235.074 29.116 229.278 28.18 222.078 26.308C219.342 25.588 215.021 25.156 209.117 25.012C208.469 28.612 207.462 34.768 206.094 43.48C209.766 43.624 215.49 44.488 223.266 46.072C230.682 47.584 236.405 48.34 240.438 48.34C240.941 49.42 241.553 51.148 242.273 53.524C237.953 55.972 232.518 57.196 225.966 57.196C220.782 57.196 214.05 56.368 205.77 54.712C204.546 56.8 203.934 59.32 203.934 62.272C203.934 67.528 205.661 73.396 209.117 79.876C214.373 79.66 219.306 78.4 223.914 76.096C224.778 75.664 228.45 73.396 234.93 69.292C239.106 66.628 242.958 64.936 246.486 64.216C247.35 65.656 247.781 66.844 247.781 67.78C247.781 69.724 245.01 71.992 239.466 74.584L210.737 88.084C206.561 90.1 203.25 91.108 200.802 91.108C195.834 91.108 192.306 87.868 190.218 81.388C188.922 77.356 188.273 71.488 188.273 63.784C188.273 52.624 189.425 42.4 191.729 33.112C194.465 22.168 198.03 15.796 202.422 13.996C204.654 13.06 207.353 12.592 210.521 12.592C214.553 12.592 220.854 13.816 229.422 16.264C239.214 19.072 246.342 20.764 250.806 21.34Z" fill="white"/>
<path d="M313.37 21.34C313.37 26.524 309.59 29.116 302.03 29.116C297.638 29.116 291.842 28.18 284.642 26.308C281.906 25.588 277.586 25.156 271.682 25.012C271.034 28.612 270.026 34.768 268.658 43.48C272.33 43.624 278.054 44.488 285.83 46.072C293.246 47.584 298.97 48.34 303.002 48.34C303.506 49.42 304.118 51.148 304.838 53.524C300.518 55.972 295.082 57.196 288.53 57.196C283.346 57.196 276.614 56.368 268.334 54.712C267.11 56.8 266.498 59.32 266.498 62.272C266.498 67.528 268.226 73.396 271.682 79.876C276.938 79.66 281.87 78.4 286.478 76.096C287.342 75.664 291.014 73.396 297.494 69.292C301.67 66.628 305.522 64.936 309.05 64.216C309.914 65.656 310.346 66.844 310.346 67.78C310.346 69.724 307.574 71.992 302.03 74.584L273.302 88.084C269.126 90.1 265.814 91.108 263.366 91.108C258.398 91.108 254.87 87.868 252.782 81.388C251.486 77.356 250.838 71.488 250.838 63.784C250.838 52.624 251.99 42.4 254.294 33.112C257.03 22.168 260.594 15.796 264.986 13.996C267.218 13.06 269.918 12.592 273.086 12.592C277.118 12.592 283.418 13.816 291.986 16.264C301.778 19.072 308.906 20.764 313.37 21.34Z" fill="white"/>
<path d="M373.342 53.2C370.39 57.592 368.194 63.676 366.754 71.452C365.602 77.644 365.134 83.224 365.35 88.192C363.334 90.424 360.274 91.54 356.17 91.54C354.586 91.54 352.534 91.36 350.014 91C350.014 81.712 351.526 71.344 354.55 59.896C351.67 58.384 348.79 57.412 345.91 56.98C344.038 56.692 340.978 56.548 336.73 56.548C336.514 57.988 336.406 59.392 336.406 60.76C336.406 67.528 339.862 75.016 346.774 83.224C343.39 85.456 340.906 86.968 339.322 87.76C336.73 88.984 334.03 89.704 331.222 89.92C330.43 87.04 328.234 80.776 324.634 71.128C321.826 63.784 320.134 56.332 319.558 48.772C319.198 44.092 319.198 36.424 319.558 25.768C316.75 24.544 315.31 23.896 315.238 23.824C314.158 23.104 313.546 21.808 313.402 19.936C317.434 16.624 321.07 14.968 324.31 14.968C326.398 14.968 329.782 15.976 334.462 17.992C340.366 20.512 345.55 22.276 350.014 23.284C360.598 25.588 365.89 29.008 365.89 33.544C365.89 37.72 363.334 40.996 358.222 43.372C354.334 45.244 350.518 47.044 346.774 48.772C349.654 49.636 354.082 50.392 360.058 51.04C366.034 51.616 370.462 52.336 373.342 53.2ZM343.966 33.328C342.31 32.968 339.79 32.464 336.406 31.816V45.208C344.686 44.128 348.826 41.932 348.826 38.62C348.826 35.884 347.206 34.12 343.966 33.328Z" fill="white"/>
<path d="M489.774 57.844C487.614 57.628 485.454 57.52 483.294 57.52C479.766 57.52 474.474 57.952 467.418 58.816C460.362 59.68 455.07 60.112 451.542 60.112C451.542 64.216 451.614 69.58 451.758 76.204L451.866 85.816C451.866 88.264 450.03 89.632 446.358 89.92C440.598 90.352 437.322 90.712 436.53 91C435.018 85.456 434.118 78.58 433.83 70.372C433.398 57.988 433.11 51.148 432.966 49.852C432.102 42.076 430.23 34.984 427.35 28.576C437.79 23.176 449.31 20.476 461.91 20.476C474.222 20.476 483.51 23.068 489.774 28.252C484.518 30.196 480.054 31.168 476.382 31.168C474.366 31.168 471.738 30.592 468.498 29.44C465.258 28.216 462.882 27.604 461.37 27.604C460.578 27.604 459.534 27.748 458.238 28.036C454.71 28.828 452.946 31.636 452.946 36.46C452.946 37.396 453.054 39.232 453.27 41.968C453.414 44.272 453.45 46.108 453.378 47.476C453.234 49.348 452.838 51.004 452.19 52.444C455.502 53.38 458.814 53.848 462.126 53.848C465.15 53.848 469.722 53.308 475.842 52.228C481.962 51.148 486.606 50.608 489.774 50.608V57.844Z" fill="white"/>
<path d="M550.505 85.384C545.537 88.84 540.245 90.712 534.629 91C534.125 88.624 532.433 84.88 529.553 79.768C526.961 75.16 525.521 71.344 525.233 68.32C522.209 68.824 518.933 69.976 515.405 71.776L507.521 75.772C506.585 77.212 506.045 79.336 505.901 82.144C505.973 84.448 505.901 87.616 505.685 91.648C504.101 93.376 501.725 94.492 498.557 94.996C497.117 95.212 494.201 95.32 489.809 95.32C489.809 88.12 490.709 80.776 492.509 73.288C493.733 68.464 495.533 61.192 497.909 51.472C499.421 44.92 500.177 39.052 500.177 33.868C500.177 30.34 499.817 26.344 499.097 21.88L508.817 17.452C515.945 14.284 521.849 11.944 526.529 10.432C526.529 19.072 527.501 26.884 529.445 33.868C531.173 39.916 534.233 47.152 538.625 55.576C541.793 54.568 543.773 54.064 544.565 54.064C545.717 54.064 546.761 54.352 547.697 54.928C547.121 56.008 546.185 56.908 544.889 57.628C543.593 58.348 542.333 59.032 541.109 59.68C540.749 59.896 540.461 60.076 540.245 60.22C541.973 62.884 543.737 67.06 545.537 72.748C547.409 78.724 549.065 82.936 550.505 85.384ZM522.425 61.732C519.185 53.38 516.701 45.928 514.973 39.376C514.973 42.832 514.217 47.62 512.705 53.74C511.121 60.292 510.221 65.044 510.005 67.996C512.669 66.916 516.809 64.828 522.425 61.732Z" fill="white"/>
<path d="M611.386 65.836C611.674 66.7 611.818 67.492 611.818 68.212C611.818 70.156 610.63 71.704 608.254 72.856C606.526 73.72 603.754 74.512 599.938 75.232C596.194 75.952 593.494 76.708 591.838 77.5C588.382 79.156 583.162 81.64 576.178 84.952C569.554 88.048 564.046 90.064 559.654 91C559.798 90.496 559.618 89.848 559.114 89.056C558.682 88.264 558.466 87.76 558.466 87.544C558.466 86.248 560.266 84.916 563.866 83.548L570.454 81.064C563.902 70.048 560.626 59.68 560.626 49.96C560.626 47.656 560.77 45.136 561.058 42.4C561.562 37.504 563.506 30.844 566.89 22.42C566.098 21.052 564.55 20.368 562.246 20.368C561.454 20.368 560.302 20.476 558.79 20.692C557.278 20.836 556.126 20.908 555.334 20.908C551.878 20.908 550.258 19.072 550.474 15.4C555.73 14.032 561.022 13.348 566.35 13.348C572.11 13.348 578.878 14.248 586.654 16.048L607.93 21.016C608.362 25.12 605.626 27.172 599.722 27.172C595.978 27.172 591.298 26.38 585.682 24.796C583.306 24.148 580.858 27.352 578.338 34.408C576.178 40.528 575.098 45.136 575.098 48.232C575.098 52.336 575.926 56.98 577.582 62.164C579.454 68.284 581.758 72.244 584.494 74.044C595.654 68.572 604.618 65.836 611.386 65.836Z" fill="white"/>
<path d="M671.713 53.2C668.761 57.592 666.565 63.676 665.125 71.452C663.973 77.644 663.505 83.224 663.721 88.192C661.705 90.424 658.645 91.54 654.541 91.54C652.957 91.54 650.905 91.36 648.385 91C648.385 81.712 649.897 71.344 652.921 59.896C650.041 58.384 647.161 57.412 644.281 56.98C642.409 56.692 639.349 56.548 635.101 56.548C634.885 57.988 634.777 59.392 634.777 60.76C634.777 67.528 638.233 75.016 645.145 83.224C641.761 85.456 639.277 86.968 637.693 87.76C635.101 88.984 632.401 89.704 629.593 89.92C628.801 87.04 626.605 80.776 623.005 71.128C620.197 63.784 618.505 56.332 617.929 48.772C617.569 44.092 617.569 36.424 617.929 25.768C615.121 24.544 613.681 23.896 613.609 23.824C612.529 23.104 611.917 21.808 611.773 19.936C615.805 16.624 619.441 14.968 622.681 14.968C624.769 14.968 628.153 15.976 632.833 17.992C638.737 20.512 643.921 22.276 648.385 23.284C658.969 25.588 664.261 29.008 664.261 33.544C664.261 37.72 661.705 40.996 656.593 43.372C652.705 45.244 648.889 47.044 645.145 48.772C648.025 49.636 652.453 50.392 658.429 51.04C664.405 51.616 668.833 52.336 671.713 53.2ZM642.337 33.328C640.681 32.968 638.161 32.464 634.777 31.816V45.208C643.057 44.128 647.197 41.932 647.197 38.62C647.197 35.884 645.577 34.12 642.337 33.328Z" fill="white"/>
<path d="M150.651 261.384C145.683 264.84 140.392 266.712 134.776 267C134.272 264.624 132.58 260.88 129.7 255.768C127.108 251.16 125.668 247.344 125.38 244.32C122.356 244.824 119.08 245.976 115.552 247.776L107.668 251.772C106.732 253.212 106.192 255.336 106.048 258.144C106.12 260.448 106.048 263.616 105.832 267.648C104.248 269.376 101.871 270.492 98.7035 270.996C97.2635 271.212 94.3475 271.32 89.9555 271.32C89.9555 264.12 90.8555 256.776 92.6555 249.288C93.8795 244.464 95.6795 237.192 98.0555 227.472C99.5675 220.92 100.324 215.052 100.324 209.868C100.324 206.34 99.9635 202.344 99.2435 197.88L108.964 193.452C116.092 190.284 121.996 187.944 126.676 186.432C126.676 195.072 127.647 202.884 129.591 209.868C131.319 215.916 134.38 223.152 138.772 231.576C141.94 230.568 143.92 230.064 144.712 230.064C145.864 230.064 146.908 230.352 147.844 230.928C147.268 232.008 146.332 232.908 145.036 233.628C143.74 234.348 142.479 235.032 141.255 235.68C140.895 235.896 140.608 236.076 140.392 236.22C142.12 238.884 143.884 243.06 145.684 248.748C147.556 254.724 149.211 258.936 150.651 261.384ZM122.572 237.732C119.332 229.38 116.848 221.928 115.12 215.376C115.12 218.832 114.364 223.62 112.852 229.74C111.268 236.292 110.367 241.044 110.151 243.996C112.815 242.916 116.956 240.828 122.572 237.732Z" fill="white"/>
<path d="M193.605 262.464C188.565 265.344 182.913 266.856 176.649 267C163.905 267.288 156.057 263.256 153.105 254.904C151.449 250.224 150.621 244.68 150.621 238.272C150.621 229.848 152.061 219.624 154.941 207.6C160.125 203.496 166.353 201.444 173.625 201.444C173.409 204.828 172.293 210.156 170.277 217.428C168.405 224.268 167.469 229.596 167.469 233.412C167.469 236.148 167.865 238.848 168.657 241.512C170.385 247.272 171.861 251.232 173.085 253.392C175.389 257.424 178.341 259.26 181.941 258.9C184.749 258.612 186.729 255.444 187.881 249.396C188.097 248.244 188.601 242.916 189.393 233.412C189.537 231.684 189.609 230.388 189.609 229.524C189.609 226.572 188.997 222.108 187.773 216.132C186.549 210.372 185.973 206.088 186.045 203.28C190.149 201.264 193.605 200.256 196.413 200.256C198.069 200.256 199.365 200.652 200.301 201.444C204.765 211.596 206.997 222.468 206.997 234.06C206.997 240.756 206.133 246.192 204.405 250.368C202.317 255.48 198.717 259.512 193.605 262.464Z" fill="white"/>
<path d="M269.279 270.132C264.095 274.596 259.595 276.828 255.779 276.828C251.603 276.828 249.371 273.804 249.083 267.756C248.939 264.876 248.615 262.752 248.111 261.384C246.167 261.744 242.351 262.86 236.663 264.732C232.055 266.244 228.527 267 226.079 267C222.407 267 219.383 265.56 217.007 262.68C213.263 258.144 210.671 253.32 209.231 248.208C208.151 244.464 207.431 238.92 207.071 231.576C206.351 218.112 210.095 208.968 218.303 204.144C222.911 201.48 228.707 200.004 235.691 199.716C236.483 199.716 237.707 200.148 239.363 201.012C241.091 201.876 242.351 202.308 243.143 202.308C244.799 201.156 248.939 199.716 255.563 197.988C255.779 202.02 256.463 207.528 257.615 214.512L259.991 229.092C259.631 229.956 258.695 230.64 257.183 231.144C255.023 231.864 253.655 232.404 253.079 232.764C257.543 234.06 262.511 234.708 267.983 234.708C268.055 237.3 267.767 241.08 267.119 246.048C266.471 251.016 266.147 254.688 266.147 257.064C266.147 261.816 267.191 266.172 269.279 270.132ZM240.983 232.224C240.191 220.992 235.727 213.72 227.591 210.408C225.431 218.688 224.495 226.788 224.783 234.708C228.959 233.052 234.359 232.224 240.983 232.224ZM242.171 242.808C240.371 242.808 237.671 242.592 234.071 242.16C230.543 241.728 227.879 241.512 226.079 241.512C227.303 249.504 231.119 255.408 237.527 259.224C239.759 257.496 241.163 255.012 241.739 251.772C242.027 250.116 242.171 247.128 242.171 242.808Z" fill="white"/>
<path d="M312.3 262.464C307.26 265.344 301.608 266.856 295.344 267C282.6 267.288 274.752 263.256 271.8 254.904C270.144 250.224 269.316 244.68 269.316 238.272C269.316 229.848 270.756 219.624 273.636 207.6C278.82 203.496 285.048 201.444 292.32 201.444C292.104 204.828 290.988 210.156 288.972 217.428C287.1 224.268 286.164 229.596 286.164 233.412C286.164 236.148 286.56 238.848 287.352 241.512C289.08 247.272 290.556 251.232 291.78 253.392C294.084 257.424 297.036 259.26 300.636 258.9C303.444 258.612 305.424 255.444 306.576 249.396C306.792 248.244 307.296 242.916 308.088 233.412C308.232 231.684 308.304 230.388 308.304 229.524C308.304 226.572 307.692 222.108 306.468 216.132C305.244 210.372 304.668 206.088 304.74 203.28C308.844 201.264 312.3 200.256 315.108 200.256C316.764 200.256 318.06 200.652 318.996 201.444C323.46 211.596 325.692 222.468 325.692 234.06C325.692 240.756 324.828 246.192 323.1 250.368C321.012 255.48 317.412 259.512 312.3 262.464Z" fill="white"/>
<path d="M392.293 188.916C392.437 190.068 392.509 191.22 392.509 192.372C392.509 196.116 391.537 201.624 389.593 208.896C387.721 216.168 386.785 221.712 386.785 225.528C384.193 225.744 380.125 226.5 374.581 227.796C379.405 233.268 381.817 238.632 381.817 243.888C381.817 249.648 379.153 254.724 373.825 259.116C369.361 262.86 364.033 265.38 357.841 266.676C356.833 266.892 355.681 267 354.385 267C350.281 267 346.681 265.74 343.585 263.22C340.273 260.556 338.365 257.244 337.861 253.284C337.645 251.628 337.537 250.296 337.537 249.288C337.537 245.976 338.725 243.672 341.101 242.376C342.685 241.512 346.789 240.324 353.413 238.812C352.261 241.044 351.685 243.384 351.685 245.832C351.685 251.592 354.493 256.668 360.109 261.06C365.293 254.508 367.885 249.252 367.885 245.292C367.885 243.42 367.525 241.656 366.805 240C362.917 231 354.025 226.5 340.129 226.5C338.401 226.5 336.529 226.536 334.513 226.608C334.153 224.88 333.037 219.732 331.165 211.164C329.941 205.548 328.105 200.724 325.657 196.692C328.753 194.388 332.245 192.984 336.133 192.48C338.653 192.12 342.469 192.084 347.581 192.372C352.693 192.588 356.509 192.516 359.029 192.156C366.877 191.148 372.385 190.464 375.553 190.104C380.593 189.528 386.173 189.132 392.293 188.916ZM370.909 225.528C370.765 217.176 370.549 212.028 370.261 210.084C369.109 203.028 366.337 199.5 361.945 199.5C360.577 199.5 359.209 199.644 357.841 199.932C355.609 200.436 353.809 201.732 352.441 203.82C351.073 205.836 350.389 208.032 350.389 210.408C350.389 211.56 350.569 212.712 350.929 213.864C351.937 216.96 354.781 219.264 359.461 220.776C365.653 222.792 369.469 224.376 370.909 225.528ZM346.177 197.772L340.669 198.312L340.885 201.336L346.177 197.772Z" fill="white"/>
<path d="M459.721 191.184C456.913 194.208 452.845 196.26 447.517 197.34C440.461 198.78 435.817 200.04 433.585 201.12C430.921 202.416 429.589 204.396 429.589 207.06C429.589 209.364 430.633 212.784 432.721 217.32C435.241 222.864 436.753 226.572 437.257 228.444C438.121 231.612 440.497 236.508 444.385 243.132C447.769 248.82 449.461 253.212 449.461 256.308C449.461 259.548 448.381 262.248 446.221 264.408C444.133 266.496 441.433 267.54 438.121 267.54C437.041 267.54 435.457 267.432 433.369 267.216C431.281 267.072 429.697 267 428.617 267C428.041 264.48 427.213 259.224 426.133 251.232C425.341 245.4 424.081 240.288 422.353 235.896C421.993 235.032 420.013 231.108 416.413 224.124C414.109 219.66 412.957 215.988 412.957 213.108C412.957 210.66 413.605 208.32 414.901 206.088C412.741 206.088 409.609 206.556 405.505 207.492C401.473 208.428 398.449 208.896 396.433 208.896C395.137 208.896 393.841 208.788 392.545 208.572C398.161 202.956 404.605 198.96 411.877 196.584C416.341 195.144 423.469 193.848 433.261 192.696C443.629 191.472 451.621 190.14 457.237 188.7L459.721 191.184Z" fill="white"/>
<path d="M552.003 186.972C552.435 189.708 552.651 192.408 552.651 195.072C552.651 198.168 552.183 202.776 551.247 208.896C550.383 214.944 549.951 219.516 549.951 222.612C549.951 227.796 551.283 235.068 553.947 244.428C556.467 244.284 560.427 243.384 565.827 241.728C571.011 240.144 574.935 239.352 577.599 239.352C581.127 239.352 584.043 240.504 586.347 242.808C583.467 244.968 578.355 246.372 571.011 247.02C564.171 247.596 559.023 248.532 555.567 249.828C551.895 251.124 547.431 253.68 542.175 257.496C537.783 260.736 534.651 262.824 532.779 263.76C529.107 265.632 524.931 266.712 520.251 267C523.707 262.176 530.079 257.1 539.367 251.772C536.991 244.212 535.803 235.356 535.803 225.204C535.803 219.948 536.127 214.404 536.775 208.572C533.895 211.02 530.727 213.072 527.271 214.728C524.751 215.952 521.151 217.284 516.471 218.724C518.055 216.78 520.539 214.368 523.923 211.488C527.595 208.392 530.115 206.052 531.483 204.468C534.075 201.516 536.163 198.024 537.747 193.992C539.907 192.264 544.659 189.924 552.003 186.972Z" fill="white"/>
<path d="M665.021 231.792L664.373 236.112C662.141 236.112 659.297 236.58 655.841 237.516C651.953 238.524 649.181 239.1 647.525 239.244C645.365 243.42 641.657 252.024 636.401 265.056C634.745 266.496 632.081 267.216 628.409 267.216C627.617 267.144 624.665 266.928 619.553 266.568C620.561 262.392 622.109 258.072 624.197 253.608C624.197 253.536 626.285 249.468 630.461 241.404C628.301 241.332 625.277 241.656 621.389 242.376C617.285 243.168 614.261 243.564 612.317 243.564C610.517 243.564 608.789 243.348 607.133 242.916C612.389 239.172 621.425 236.616 634.241 235.248C638.705 225.096 644.609 214.728 651.953 204.144C647.129 201.912 641.081 200.544 633.809 200.04C629.633 199.824 623.333 199.428 614.909 198.852C611.957 198.636 610.481 199.86 610.481 202.524C610.481 204.396 611.165 207.816 612.533 212.784C613.973 217.68 614.585 221.424 614.369 224.016C613.217 224.088 611.345 224.664 608.753 225.744C606.233 226.824 604.433 227.364 603.353 227.364C602.345 227.364 601.445 227.076 600.653 226.5C598.133 224.556 595.973 221.424 594.173 217.104C592.589 213.072 591.797 209.292 591.797 205.764C591.797 196.26 601.661 191.508 621.389 191.508C628.013 191.508 635.357 192.3 643.421 193.884C648.245 194.604 653.105 195.288 658.001 195.936C665.345 197.448 669.017 199.608 669.017 202.416C669.017 207.24 665.093 214.656 657.245 224.664L654.761 230.496C658.289 230.496 661.709 230.928 665.021 231.792Z" fill="white"/>
<path d="M67.7058 91C65.7618 91.072 63.9258 91.108 62.1978 91.108C55.6458 91.108 49.9578 90.352 45.1339 88.84C41.8939 87.832 37.1058 86.392 30.7698 84.52C26.5218 83.368 21.3378 81.82 15.2178 79.876C9.88983 77.5 7.22583 74.404 7.22583 70.588C7.22583 69.58 7.36984 68.608 7.65784 67.672C11.4018 55.648 16.9459 44.92 24.2899 35.488C33.2899 23.968 42.6858 18.208 52.4778 18.208C52.6218 19.72 52.6938 21.268 52.6938 22.852C52.6938 24.58 52.3698 29.26 51.7218 36.892C51.2178 42.508 51.3618 47.26 52.1538 51.148C47.4018 53.308 43.2619 54.388 39.7339 54.388C35.6299 54.388 33.5779 52.696 33.5779 49.312C30.1218 52.768 27.9618 55.18 27.0978 56.548C25.5138 59.068 24.8658 62.056 25.1538 65.512C25.5858 70.768 28.3578 74.944 33.4698 78.04C37.7898 80.632 42.7938 81.928 48.4818 81.928C48.5538 77.392 48.8419 70.66 49.3459 61.732C56.6179 58.132 62.6658 56.476 67.4898 56.764C66.4818 64.684 65.9778 70.696 65.9778 74.8C65.9778 79.984 66.5538 85.384 67.7058 91Z" stroke="black" stroke-width="14" mask="url(#path-1-outside-1)"/>
<path d="M128.377 85.384C123.409 88.84 118.117 90.712 112.501 91C111.997 88.624 110.304 84.88 107.424 79.768C104.832 75.16 103.393 71.344 103.105 68.32C100.081 68.824 96.8045 69.976 93.2766 71.776L85.3925 75.772C84.4565 77.212 83.9165 79.336 83.7725 82.144C83.8445 84.448 83.7725 87.616 83.5565 91.648C81.9725 93.376 79.5965 94.492 76.4285 94.996C74.9885 95.212 72.0725 95.32 67.6805 95.32C67.6805 88.12 68.5805 80.776 70.3805 73.288C71.6045 68.464 73.4045 61.192 75.7805 51.472C77.2925 44.92 78.0485 39.052 78.0485 33.868C78.0485 30.34 77.6885 26.344 76.9685 21.88L86.6885 17.452C93.8165 14.284 99.7205 11.944 104.401 10.432C104.401 19.072 105.373 26.884 107.317 33.868C109.045 39.916 112.105 47.152 116.497 55.576C119.665 54.568 121.645 54.064 122.437 54.064C123.589 54.064 124.633 54.352 125.569 54.928C124.993 56.008 124.056 56.908 122.76 57.628C121.464 58.348 120.205 59.032 118.981 59.68C118.621 59.896 118.333 60.076 118.117 60.22C119.845 62.884 121.609 67.06 123.409 72.748C125.281 78.724 126.937 82.936 128.377 85.384ZM100.297 61.732C97.0565 53.38 94.5725 45.928 92.8445 39.376C92.8445 42.832 92.0885 47.62 90.5765 53.74C88.9925 60.292 88.0925 65.044 87.8765 67.996C90.5405 66.916 94.6805 64.828 100.297 61.732Z" stroke="black" stroke-width="14" mask="url(#path-1-outside-1)"/>
<path d="M188.286 53.2C185.334 57.592 183.138 63.676 181.698 71.452C180.546 77.644 180.078 83.224 180.294 88.192C178.278 90.424 175.218 91.54 171.114 91.54C169.53 91.54 167.478 91.36 164.958 91C164.958 81.712 166.47 71.344 169.494 59.896C166.614 58.384 163.734 57.412 160.854 56.98C158.982 56.692 155.922 56.548 151.674 56.548C151.458 57.988 151.35 59.392 151.35 60.76C151.35 67.528 154.806 75.016 161.718 83.224C158.334 85.456 155.85 86.968 154.266 87.76C151.674 88.984 148.974 89.704 146.166 89.92C145.374 87.04 143.178 80.776 139.578 71.128C136.77 63.784 135.078 56.332 134.502 48.772C134.142 44.092 134.142 36.424 134.502 25.768C131.694 24.544 130.254 23.896 130.182 23.824C129.102 23.104 128.49 21.808 128.346 19.936C132.378 16.624 136.014 14.968 139.254 14.968C141.342 14.968 144.726 15.976 149.406 17.992C155.31 20.512 160.494 22.276 164.958 23.284C175.542 25.588 180.834 29.008 180.834 33.544C180.834 37.72 178.278 40.996 173.166 43.372C169.278 45.244 165.462 47.044 161.718 48.772C164.598 49.636 169.026 50.392 175.002 51.04C180.978 51.616 185.406 52.336 188.286 53.2ZM158.91 33.328C157.254 32.968 154.734 32.464 151.35 31.816V45.208C159.63 44.128 163.77 41.932 163.77 38.62C163.77 35.884 162.15 34.12 158.91 33.328Z" stroke="black" stroke-width="14" mask="url(#path-1-outside-1)"/>
<path d="M250.806 21.34C250.806 26.524 247.026 29.116 239.466 29.116C235.074 29.116 229.278 28.18 222.078 26.308C219.342 25.588 215.021 25.156 209.117 25.012C208.469 28.612 207.462 34.768 206.094 43.48C209.766 43.624 215.49 44.488 223.266 46.072C230.682 47.584 236.405 48.34 240.438 48.34C240.941 49.42 241.553 51.148 242.273 53.524C237.953 55.972 232.518 57.196 225.966 57.196C220.782 57.196 214.05 56.368 205.77 54.712C204.546 56.8 203.934 59.32 203.934 62.272C203.934 67.528 205.661 73.396 209.117 79.876C214.373 79.66 219.306 78.4 223.914 76.096C224.778 75.664 228.45 73.396 234.93 69.292C239.106 66.628 242.958 64.936 246.486 64.216C247.35 65.656 247.781 66.844 247.781 67.78C247.781 69.724 245.01 71.992 239.466 74.584L210.737 88.084C206.561 90.1 203.25 91.108 200.802 91.108C195.834 91.108 192.306 87.868 190.218 81.388C188.922 77.356 188.273 71.488 188.273 63.784C188.273 52.624 189.425 42.4 191.729 33.112C194.465 22.168 198.03 15.796 202.422 13.996C204.654 13.06 207.353 12.592 210.521 12.592C214.553 12.592 220.854 13.816 229.422 16.264C239.214 19.072 246.342 20.764 250.806 21.34Z" stroke="black" stroke-width="14" mask="url(#path-1-outside-1)"/>
<path d="M313.37 21.34C313.37 26.524 309.59 29.116 302.03 29.116C297.638 29.116 291.842 28.18 284.642 26.308C281.906 25.588 277.586 25.156 271.682 25.012C271.034 28.612 270.026 34.768 268.658 43.48C272.33 43.624 278.054 44.488 285.83 46.072C293.246 47.584 298.97 48.34 303.002 48.34C303.506 49.42 304.118 51.148 304.838 53.524C300.518 55.972 295.082 57.196 288.53 57.196C283.346 57.196 276.614 56.368 268.334 54.712C267.11 56.8 266.498 59.32 266.498 62.272C266.498 67.528 268.226 73.396 271.682 79.876C276.938 79.66 281.87 78.4 286.478 76.096C287.342 75.664 291.014 73.396 297.494 69.292C301.67 66.628 305.522 64.936 309.05 64.216C309.914 65.656 310.346 66.844 310.346 67.78C310.346 69.724 307.574 71.992 302.03 74.584L273.302 88.084C269.126 90.1 265.814 91.108 263.366 91.108C258.398 91.108 254.87 87.868 252.782 81.388C251.486 77.356 250.838 71.488 250.838 63.784C250.838 52.624 251.99 42.4 254.294 33.112C257.03 22.168 260.594 15.796 264.986 13.996C267.218 13.06 269.918 12.592 273.086 12.592C277.118 12.592 283.418 13.816 291.986 16.264C301.778 19.072 308.906 20.764 313.37 21.34Z" stroke="black" stroke-width="14" mask="url(#path-1-outside-1)"/>
<path d="M373.342 53.2C370.39 57.592 368.194 63.676 366.754 71.452C365.602 77.644 365.134 83.224 365.35 88.192C363.334 90.424 360.274 91.54 356.17 91.54C354.586 91.54 352.534 91.36 350.014 91C350.014 81.712 351.526 71.344 354.55 59.896C351.67 58.384 348.79 57.412 345.91 56.98C344.038 56.692 340.978 56.548 336.73 56.548C336.514 57.988 336.406 59.392 336.406 60.76C336.406 67.528 339.862 75.016 346.774 83.224C343.39 85.456 340.906 86.968 339.322 87.76C336.73 88.984 334.03 89.704 331.222 89.92C330.43 87.04 328.234 80.776 324.634 71.128C321.826 63.784 320.134 56.332 319.558 48.772C319.198 44.092 319.198 36.424 319.558 25.768C316.75 24.544 315.31 23.896 315.238 23.824C314.158 23.104 313.546 21.808 313.402 19.936C317.434 16.624 321.07 14.968 324.31 14.968C326.398 14.968 329.782 15.976 334.462 17.992C340.366 20.512 345.55 22.276 350.014 23.284C360.598 25.588 365.89 29.008 365.89 33.544C365.89 37.72 363.334 40.996 358.222 43.372C354.334 45.244 350.518 47.044 346.774 48.772C349.654 49.636 354.082 50.392 360.058 51.04C366.034 51.616 370.462 52.336 373.342 53.2ZM343.966 33.328C342.31 32.968 339.79 32.464 336.406 31.816V45.208C344.686 44.128 348.826 41.932 348.826 38.62C348.826 35.884 347.206 34.12 343.966 33.328Z" stroke="black" stroke-width="14" mask="url(#path-1-outside-1)"/>
<path d="M489.774 57.844C487.614 57.628 485.454 57.52 483.294 57.52C479.766 57.52 474.474 57.952 467.418 58.816C460.362 59.68 455.07 60.112 451.542 60.112C451.542 64.216 451.614 69.58 451.758 76.204L451.866 85.816C451.866 88.264 450.03 89.632 446.358 89.92C440.598 90.352 437.322 90.712 436.53 91C435.018 85.456 434.118 78.58 433.83 70.372C433.398 57.988 433.11 51.148 432.966 49.852C432.102 42.076 430.23 34.984 427.35 28.576C437.79 23.176 449.31 20.476 461.91 20.476C474.222 20.476 483.51 23.068 489.774 28.252C484.518 30.196 480.054 31.168 476.382 31.168C474.366 31.168 471.738 30.592 468.498 29.44C465.258 28.216 462.882 27.604 461.37 27.604C460.578 27.604 459.534 27.748 458.238 28.036C454.71 28.828 452.946 31.636 452.946 36.46C452.946 37.396 453.054 39.232 453.27 41.968C453.414 44.272 453.45 46.108 453.378 47.476C453.234 49.348 452.838 51.004 452.19 52.444C455.502 53.38 458.814 53.848 462.126 53.848C465.15 53.848 469.722 53.308 475.842 52.228C481.962 51.148 486.606 50.608 489.774 50.608V57.844Z" stroke="black" stroke-width="14" mask="url(#path-1-outside-1)"/>
<path d="M550.505 85.384C545.537 88.84 540.245 90.712 534.629 91C534.125 88.624 532.433 84.88 529.553 79.768C526.961 75.16 525.521 71.344 525.233 68.32C522.209 68.824 518.933 69.976 515.405 71.776L507.521 75.772C506.585 77.212 506.045 79.336 505.901 82.144C505.973 84.448 505.901 87.616 505.685 91.648C504.101 93.376 501.725 94.492 498.557 94.996C497.117 95.212 494.201 95.32 489.809 95.32C489.809 88.12 490.709 80.776 492.509 73.288C493.733 68.464 495.533 61.192 497.909 51.472C499.421 44.92 500.177 39.052 500.177 33.868C500.177 30.34 499.817 26.344 499.097 21.88L508.817 17.452C515.945 14.284 521.849 11.944 526.529 10.432C526.529 19.072 527.501 26.884 529.445 33.868C531.173 39.916 534.233 47.152 538.625 55.576C541.793 54.568 543.773 54.064 544.565 54.064C545.717 54.064 546.761 54.352 547.697 54.928C547.121 56.008 546.185 56.908 544.889 57.628C543.593 58.348 542.333 59.032 541.109 59.68C540.749 59.896 540.461 60.076 540.245 60.22C541.973 62.884 543.737 67.06 545.537 72.748C547.409 78.724 549.065 82.936 550.505 85.384ZM522.425 61.732C519.185 53.38 516.701 45.928 514.973 39.376C514.973 42.832 514.217 47.62 512.705 53.74C511.121 60.292 510.221 65.044 510.005 67.996C512.669 66.916 516.809 64.828 522.425 61.732Z" stroke="black" stroke-width="14" mask="url(#path-1-outside-1)"/>
<path d="M611.386 65.836C611.674 66.7 611.818 67.492 611.818 68.212C611.818 70.156 610.63 71.704 608.254 72.856C606.526 73.72 603.754 74.512 599.938 75.232C596.194 75.952 593.494 76.708 591.838 77.5C588.382 79.156 583.162 81.64 576.178 84.952C569.554 88.048 564.046 90.064 559.654 91C559.798 90.496 559.618 89.848 559.114 89.056C558.682 88.264 558.466 87.76 558.466 87.544C558.466 86.248 560.266 84.916 563.866 83.548L570.454 81.064C563.902 70.048 560.626 59.68 560.626 49.96C560.626 47.656 560.77 45.136 561.058 42.4C561.562 37.504 563.506 30.844 566.89 22.42C566.098 21.052 564.55 20.368 562.246 20.368C561.454 20.368 560.302 20.476 558.79 20.692C557.278 20.836 556.126 20.908 555.334 20.908C551.878 20.908 550.258 19.072 550.474 15.4C555.73 14.032 561.022 13.348 566.35 13.348C572.11 13.348 578.878 14.248 586.654 16.048L607.93 21.016C608.362 25.12 605.626 27.172 599.722 27.172C595.978 27.172 591.298 26.38 585.682 24.796C583.306 24.148 580.858 27.352 578.338 34.408C576.178 40.528 575.098 45.136 575.098 48.232C575.098 52.336 575.926 56.98 577.582 62.164C579.454 68.284 581.758 72.244 584.494 74.044C595.654 68.572 604.618 65.836 611.386 65.836Z" stroke="black" stroke-width="14" mask="url(#path-1-outside-1)"/>
<path d="M671.713 53.2C668.761 57.592 666.565 63.676 665.125 71.452C663.973 77.644 663.505 83.224 663.721 88.192C661.705 90.424 658.645 91.54 654.541 91.54C652.957 91.54 650.905 91.36 648.385 91C648.385 81.712 649.897 71.344 652.921 59.896C650.041 58.384 647.161 57.412 644.281 56.98C642.409 56.692 639.349 56.548 635.101 56.548C634.885 57.988 634.777 59.392 634.777 60.76C634.777 67.528 638.233 75.016 645.145 83.224C641.761 85.456 639.277 86.968 637.693 87.76C635.101 88.984 632.401 89.704 629.593 89.92C628.801 87.04 626.605 80.776 623.005 71.128C620.197 63.784 618.505 56.332 617.929 48.772C617.569 44.092 617.569 36.424 617.929 25.768C615.121 24.544 613.681 23.896 613.609 23.824C612.529 23.104 611.917 21.808 611.773 19.936C615.805 16.624 619.441 14.968 622.681 14.968C624.769 14.968 628.153 15.976 632.833 17.992C638.737 20.512 643.921 22.276 648.385 23.284C658.969 25.588 664.261 29.008 664.261 33.544C664.261 37.72 661.705 40.996 656.593 43.372C652.705 45.244 648.889 47.044 645.145 48.772C648.025 49.636 652.453 50.392 658.429 51.04C664.405 51.616 668.833 52.336 671.713 53.2ZM642.337 33.328C640.681 32.968 638.161 32.464 634.777 31.816V45.208C643.057 44.128 647.197 41.932 647.197 38.62C647.197 35.884 645.577 34.12 642.337 33.328Z" stroke="black" stroke-width="14" mask="url(#path-1-outside-1)"/>
<path d="M150.651 261.384C145.683 264.84 140.392 266.712 134.776 267C134.272 264.624 132.58 260.88 129.7 255.768C127.108 251.16 125.668 247.344 125.38 244.32C122.356 244.824 119.08 245.976 115.552 247.776L107.668 251.772C106.732 253.212 106.192 255.336 106.048 258.144C106.12 260.448 106.048 263.616 105.832 267.648C104.248 269.376 101.871 270.492 98.7035 270.996C97.2635 271.212 94.3475 271.32 89.9555 271.32C89.9555 264.12 90.8555 256.776 92.6555 249.288C93.8795 244.464 95.6795 237.192 98.0555 227.472C99.5675 220.92 100.324 215.052 100.324 209.868C100.324 206.34 99.9635 202.344 99.2435 197.88L108.964 193.452C116.092 190.284 121.996 187.944 126.676 186.432C126.676 195.072 127.647 202.884 129.591 209.868C131.319 215.916 134.38 223.152 138.772 231.576C141.94 230.568 143.92 230.064 144.712 230.064C145.864 230.064 146.908 230.352 147.844 230.928C147.268 232.008 146.332 232.908 145.036 233.628C143.74 234.348 142.479 235.032 141.255 235.68C140.895 235.896 140.608 236.076 140.392 236.22C142.12 238.884 143.884 243.06 145.684 248.748C147.556 254.724 149.211 258.936 150.651 261.384ZM122.572 237.732C119.332 229.38 116.848 221.928 115.12 215.376C115.12 218.832 114.364 223.62 112.852 229.74C111.268 236.292 110.367 241.044 110.151 243.996C112.815 242.916 116.956 240.828 122.572 237.732Z" stroke="black" stroke-width="14" mask="url(#path-1-outside-1)"/>
<path d="M193.605 262.464C188.565 265.344 182.913 266.856 176.649 267C163.905 267.288 156.057 263.256 153.105 254.904C151.449 250.224 150.621 244.68 150.621 238.272C150.621 229.848 152.061 219.624 154.941 207.6C160.125 203.496 166.353 201.444 173.625 201.444C173.409 204.828 172.293 210.156 170.277 217.428C168.405 224.268 167.469 229.596 167.469 233.412C167.469 236.148 167.865 238.848 168.657 241.512C170.385 247.272 171.861 251.232 173.085 253.392C175.389 257.424 178.341 259.26 181.941 258.9C184.749 258.612 186.729 255.444 187.881 249.396C188.097 248.244 188.601 242.916 189.393 233.412C189.537 231.684 189.609 230.388 189.609 229.524C189.609 226.572 188.997 222.108 187.773 216.132C186.549 210.372 185.973 206.088 186.045 203.28C190.149 201.264 193.605 200.256 196.413 200.256C198.069 200.256 199.365 200.652 200.301 201.444C204.765 211.596 206.997 222.468 206.997 234.06C206.997 240.756 206.133 246.192 204.405 250.368C202.317 255.48 198.717 259.512 193.605 262.464Z" stroke="black" stroke-width="14" mask="url(#path-1-outside-1)"/>
<path d="M269.279 270.132C264.095 274.596 259.595 276.828 255.779 276.828C251.603 276.828 249.371 273.804 249.083 267.756C248.939 264.876 248.615 262.752 248.111 261.384C246.167 261.744 242.351 262.86 236.663 264.732C232.055 266.244 228.527 267 226.079 267C222.407 267 219.383 265.56 217.007 262.68C213.263 258.144 210.671 253.32 209.231 248.208C208.151 244.464 207.431 238.92 207.071 231.576C206.351 218.112 210.095 208.968 218.303 204.144C222.911 201.48 228.707 200.004 235.691 199.716C236.483 199.716 237.707 200.148 239.363 201.012C241.091 201.876 242.351 202.308 243.143 202.308C244.799 201.156 248.939 199.716 255.563 197.988C255.779 202.02 256.463 207.528 257.615 214.512L259.991 229.092C259.631 229.956 258.695 230.64 257.183 231.144C255.023 231.864 253.655 232.404 253.079 232.764C257.543 234.06 262.511 234.708 267.983 234.708C268.055 237.3 267.767 241.08 267.119 246.048C266.471 251.016 266.147 254.688 266.147 257.064C266.147 261.816 267.191 266.172 269.279 270.132ZM240.983 232.224C240.191 220.992 235.727 213.72 227.591 210.408C225.431 218.688 224.495 226.788 224.783 234.708C228.959 233.052 234.359 232.224 240.983 232.224ZM242.171 242.808C240.371 242.808 237.671 242.592 234.071 242.16C230.543 241.728 227.879 241.512 226.079 241.512C227.303 249.504 231.119 255.408 237.527 259.224C239.759 257.496 241.163 255.012 241.739 251.772C242.027 250.116 242.171 247.128 242.171 242.808Z" stroke="black" stroke-width="14" mask="url(#path-1-outside-1)"/>
<path d="M312.3 262.464C307.26 265.344 301.608 266.856 295.344 267C282.6 267.288 274.752 263.256 271.8 254.904C270.144 250.224 269.316 244.68 269.316 238.272C269.316 229.848 270.756 219.624 273.636 207.6C278.82 203.496 285.048 201.444 292.32 201.444C292.104 204.828 290.988 210.156 288.972 217.428C287.1 224.268 286.164 229.596 286.164 233.412C286.164 236.148 286.56 238.848 287.352 241.512C289.08 247.272 290.556 251.232 291.78 253.392C294.084 257.424 297.036 259.26 300.636 258.9C303.444 258.612 305.424 255.444 306.576 249.396C306.792 248.244 307.296 242.916 308.088 233.412C308.232 231.684 308.304 230.388 308.304 229.524C308.304 226.572 307.692 222.108 306.468 216.132C305.244 210.372 304.668 206.088 304.74 203.28C308.844 201.264 312.3 200.256 315.108 200.256C316.764 200.256 318.06 200.652 318.996 201.444C323.46 211.596 325.692 222.468 325.692 234.06C325.692 240.756 324.828 246.192 323.1 250.368C321.012 255.48 317.412 259.512 312.3 262.464Z" stroke="black" stroke-width="14" mask="url(#path-1-outside-1)"/>
<path d="M392.293 188.916C392.437 190.068 392.509 191.22 392.509 192.372C392.509 196.116 391.537 201.624 389.593 208.896C387.721 216.168 386.785 221.712 386.785 225.528C384.193 225.744 380.125 226.5 374.581 227.796C379.405 233.268 381.817 238.632 381.817 243.888C381.817 249.648 379.153 254.724 373.825 259.116C369.361 262.86 364.033 265.38 357.841 266.676C356.833 266.892 355.681 267 354.385 267C350.281 267 346.681 265.74 343.585 263.22C340.273 260.556 338.365 257.244 337.861 253.284C337.645 251.628 337.537 250.296 337.537 249.288C337.537 245.976 338.725 243.672 341.101 242.376C342.685 241.512 346.789 240.324 353.413 238.812C352.261 241.044 351.685 243.384 351.685 245.832C351.685 251.592 354.493 256.668 360.109 261.06C365.293 254.508 367.885 249.252 367.885 245.292C367.885 243.42 367.525 241.656 366.805 240C362.917 231 354.025 226.5 340.129 226.5C338.401 226.5 336.529 226.536 334.513 226.608C334.153 224.88 333.037 219.732 331.165 211.164C329.941 205.548 328.105 200.724 325.657 196.692C328.753 194.388 332.245 192.984 336.133 192.48C338.653 192.12 342.469 192.084 347.581 192.372C352.693 192.588 356.509 192.516 359.029 192.156C366.877 191.148 372.385 190.464 375.553 190.104C380.593 189.528 386.173 189.132 392.293 188.916ZM370.909 225.528C370.765 217.176 370.549 212.028 370.261 210.084C369.109 203.028 366.337 199.5 361.945 199.5C360.577 199.5 359.209 199.644 357.841 199.932C355.609 200.436 353.809 201.732 352.441 203.82C351.073 205.836 350.389 208.032 350.389 210.408C350.389 211.56 350.569 212.712 350.929 213.864C351.937 216.96 354.781 219.264 359.461 220.776C365.653 222.792 369.469 224.376 370.909 225.528ZM346.177 197.772L340.669 198.312L340.885 201.336L346.177 197.772Z" stroke="black" stroke-width="14" mask="url(#path-1-outside-1)"/>
<path d="M459.721 191.184C456.913 194.208 452.845 196.26 447.517 197.34C440.461 198.78 435.817 200.04 433.585 201.12C430.921 202.416 429.589 204.396 429.589 207.06C429.589 209.364 430.633 212.784 432.721 217.32C435.241 222.864 436.753 226.572 437.257 228.444C438.121 231.612 440.497 236.508 444.385 243.132C447.769 248.82 449.461 253.212 449.461 256.308C449.461 259.548 448.381 262.248 446.221 264.408C444.133 266.496 441.433 267.54 438.121 267.54C437.041 267.54 435.457 267.432 433.369 267.216C431.281 267.072 429.697 267 428.617 267C428.041 264.48 427.213 259.224 426.133 251.232C425.341 245.4 424.081 240.288 422.353 235.896C421.993 235.032 420.013 231.108 416.413 224.124C414.109 219.66 412.957 215.988 412.957 213.108C412.957 210.66 413.605 208.32 414.901 206.088C412.741 206.088 409.609 206.556 405.505 207.492C401.473 208.428 398.449 208.896 396.433 208.896C395.137 208.896 393.841 208.788 392.545 208.572C398.161 202.956 404.605 198.96 411.877 196.584C416.341 195.144 423.469 193.848 433.261 192.696C443.629 191.472 451.621 190.14 457.237 188.7L459.721 191.184Z" stroke="black" stroke-width="14" mask="url(#path-1-outside-1)"/>
<path d="M552.003 186.972C552.435 189.708 552.651 192.408 552.651 195.072C552.651 198.168 552.183 202.776 551.247 208.896C550.383 214.944 549.951 219.516 549.951 222.612C549.951 227.796 551.283 235.068 553.947 244.428C556.467 244.284 560.427 243.384 565.827 241.728C571.011 240.144 574.935 239.352 577.599 239.352C581.127 239.352 584.043 240.504 586.347 242.808C583.467 244.968 578.355 246.372 571.011 247.02C564.171 247.596 559.023 248.532 555.567 249.828C551.895 251.124 547.431 253.68 542.175 257.496C537.783 260.736 534.651 262.824 532.779 263.76C529.107 265.632 524.931 266.712 520.251 267C523.707 262.176 530.079 257.1 539.367 251.772C536.991 244.212 535.803 235.356 535.803 225.204C535.803 219.948 536.127 214.404 536.775 208.572C533.895 211.02 530.727 213.072 527.271 214.728C524.751 215.952 521.151 217.284 516.471 218.724C518.055 216.78 520.539 214.368 523.923 211.488C527.595 208.392 530.115 206.052 531.483 204.468C534.075 201.516 536.163 198.024 537.747 193.992C539.907 192.264 544.659 189.924 552.003 186.972Z" stroke="black" stroke-width="14" mask="url(#path-1-outside-1)"/>
<path d="M665.021 231.792L664.373 236.112C662.141 236.112 659.297 236.58 655.841 237.516C651.953 238.524 649.181 239.1 647.525 239.244C645.365 243.42 641.657 252.024 636.401 265.056C634.745 266.496 632.081 267.216 628.409 267.216C627.617 267.144 624.665 266.928 619.553 266.568C620.561 262.392 622.109 258.072 624.197 253.608C624.197 253.536 626.285 249.468 630.461 241.404C628.301 241.332 625.277 241.656 621.389 242.376C617.285 243.168 614.261 243.564 612.317 243.564C610.517 243.564 608.789 243.348 607.133 242.916C612.389 239.172 621.425 236.616 634.241 235.248C638.705 225.096 644.609 214.728 651.953 204.144C647.129 201.912 641.081 200.544 633.809 200.04C629.633 199.824 623.333 199.428 614.909 198.852C611.957 198.636 610.481 199.86 610.481 202.524C610.481 204.396 611.165 207.816 612.533 212.784C613.973 217.68 614.585 221.424 614.369 224.016C613.217 224.088 611.345 224.664 608.753 225.744C606.233 226.824 604.433 227.364 603.353 227.364C602.345 227.364 601.445 227.076 600.653 226.5C598.133 224.556 595.973 221.424 594.173 217.104C592.589 213.072 591.797 209.292 591.797 205.764C591.797 196.26 601.661 191.508 621.389 191.508C628.013 191.508 635.357 192.3 643.421 193.884C648.245 194.604 653.105 195.288 658.001 195.936C665.345 197.448 669.017 199.608 669.017 202.416C669.017 207.24 665.093 214.656 657.245 224.664L654.761 230.496C658.289 230.496 661.709 230.928 665.021 231.792Z" stroke="black" stroke-width="14" mask="url(#path-1-outside-1)"/>
</svg>
