<?xml version="1.0" encoding="UTF-8"?>
<svg width="1415px" height="38px" viewBox="0 0 1415 38" version="1.1" xmlns="http://www.w3.org/2000/svg" xmlns:xlink="http://www.w3.org/1999/xlink">
    <title>Slice 1</title>
    <g id="Page-2" stroke="none" stroke-width="1" fill="none" fill-rule="evenodd">
        <path d="M41.5437764,38 C47.1687764,38 49.9812764,35.65625 49.9812764,30.96875 L49.9812764,30.96875 L49.9812764,26.75 C49.9812764,23.9375 46.7000264,21.59375 40.1375264,19.71875 L40.1375264,19.71875 L10.6062764,11.28125 C9.6687764,10.8125 9.2000264,10.109375 9.2000264,9.171875 C9.2000264,8.234375 9.6687764,7.53125 10.6062764,7.0625 L10.6062764,7.0625 L49.9812764,7.0625 L49.9812764,0.03125 L9.2000264,0.03125 C3.5750264,0.03125 0.7625264,2.375 0.7625264,7.0625 L0.7625264,7.0625 L0.7625264,11.28125 C0.7625264,14.09375 4.0437764,16.4375 10.6062764,18.3125 L10.6062764,18.3125 L40.1375264,26.75 C41.0750264,27.21875 41.5437764,27.921875 41.5437764,28.859375 C41.5437764,29.796875 41.0750264,30.5 40.1375264,30.96875 L40.1375264,30.96875 L0.7625264,30.96875 L0.7625264,38 L41.5437764,38 Z M124.437524,38 L124.437524,30.96875 L85.062524,30.96875 C84.125024,30.96875 83.656274,30.5 83.656274,29.5625 L83.656274,29.5625 L83.656274,21.125 L124.437524,21.125 L124.437524,14.09375 L83.656274,14.09375 L83.656274,8.46875 C83.656274,7.53125 84.125024,7.0625 85.062524,7.0625 L85.062524,7.0625 L124.437524,7.0625 L124.437524,0.03125 L83.656274,0.03125 C78.031274,0.03125 75.218774,2.375 75.218774,7.0625 L75.218774,7.0625 L75.218774,30.96875 C75.218774,35.65625 78.031274,38 83.656274,38 L83.656274,38 L124.437524,38 Z M158.112522,38 L158.112522,21.125 L190.456272,21.125 C196.081272,21.125 198.893772,18.78125 198.893772,14.09375 L198.893772,14.09375 L198.893772,7.0625 C198.893772,2.375 196.081272,0.03125 190.456272,0.03125 L190.456272,0.03125 L149.675022,0.03125 L149.675022,7.0625 L189.050022,7.0625 C189.987522,7.0625 190.456272,7.53125 190.456272,8.46875 L190.456272,8.46875 L190.456272,12.6875 C190.456272,13.625 189.987522,14.09375 189.050022,14.09375 L189.050022,14.09375 L149.675022,14.09375 L149.675022,38 L158.112522,38 Z M250.146894,38 L250.146894,7.0625 L270.537519,7.0625 L270.537519,0.03125 L221.318769,0.03125 L221.318769,7.0625 L241.709394,7.0625 L241.709394,38 L250.146894,38 Z M342.181267,38 L342.181267,30.96875 L302.806267,30.96875 C301.868767,30.96875 301.400017,30.5 301.400017,29.5625 L301.400017,29.5625 L301.400017,21.125 L342.181267,21.125 L342.181267,14.09375 L301.400017,14.09375 L301.400017,8.46875 C301.400017,7.53125 301.868767,7.0625 302.806267,7.0625 L302.806267,7.0625 L342.181267,7.0625 L342.181267,0.03125 L301.400017,0.03125 C295.775017,0.03125 292.962517,2.375 292.962517,7.0625 L292.962517,7.0625 L292.962517,30.96875 C292.962517,35.65625 295.775017,38 301.400017,38 L301.400017,38 L342.181267,38 Z M374.450014,38 L374.450014,7.0625 L392.731264,38 L399.762514,38 L418.043764,7.0625 L418.043764,38 L426.481264,38 L426.481264,7.0625 C426.387514,2.375 423.575014,0.03125 418.043764,0.03125 C415.231264,0.03125 412.887514,1.4375 411.012514,4.25 L411.012514,4.25 L396.246889,29.5625 L381.481264,4.25 C379.606264,1.4375 377.262514,0.03125 374.450014,0.03125 C368.825014,0.03125 366.012514,2.375 366.012514,7.0625 L366.012514,7.0625 L366.012514,38 L374.450014,38 Z M491.093762,38 C496.718762,38 499.531262,35.65625 499.531262,30.96875 L499.531262,30.96875 L499.531262,21.125 C499.531262,19.71875 498.828137,18.546875 497.421887,17.609375 C498.828137,16.671875 499.531262,15.5 499.531262,14.09375 L499.531262,14.09375 L499.531262,7.0625 C499.531262,2.375 496.718762,0.03125 491.093762,0.03125 L491.093762,0.03125 L450.312512,0.03125 L450.312512,7.0625 L489.687512,7.0625 C490.625012,7.0625 491.093762,7.53125 491.093762,8.46875 L491.093762,8.46875 L491.093762,12.6875 C491.093762,13.625 490.625012,14.09375 489.687512,14.09375 L489.687512,14.09375 L450.312512,14.09375 L450.312512,38 L491.093762,38 Z M489.687512,30.96875 L458.750012,30.96875 L458.750012,21.125 L489.687512,21.125 C490.625012,21.125 491.093762,21.59375 491.093762,22.53125 L491.093762,22.53125 L491.093762,29.5625 C491.093762,30.5 490.625012,30.96875 489.687512,30.96875 L489.687512,30.96875 Z M573.98751,38 L573.98751,30.96875 L534.61251,30.96875 C533.67501,30.96875 533.20626,30.5 533.20626,29.5625 L533.20626,29.5625 L533.20626,21.125 L573.98751,21.125 L573.98751,14.09375 L533.20626,14.09375 L533.20626,8.46875 C533.20626,7.53125 533.67501,7.0625 534.61251,7.0625 L534.61251,7.0625 L573.98751,7.0625 L573.98751,0.03125 L533.20626,0.03125 C527.58126,0.03125 524.76876,2.375 524.76876,7.0625 L524.76876,7.0625 L524.76876,30.96875 C524.76876,35.65625 527.58126,38 533.20626,38 L533.20626,38 L573.98751,38 Z M607.662507,38 L607.662507,21.125 L638.600007,21.125 C639.537507,21.125 640.006257,21.59375 640.006257,22.53125 L640.006257,22.53125 L642.115632,38 L650.553132,38 L648.443757,22.53125 C648.443757,20.65625 647.740632,19.25 646.334382,18.3125 C647.740632,17.84375 648.443757,16.4375 648.443757,14.09375 L648.443757,14.09375 L648.443757,7.0625 C648.443757,2.375 645.631257,0.03125 640.006257,0.03125 L640.006257,0.03125 L599.225007,0.03125 L599.225007,7.0625 L638.600007,7.0625 C639.537507,7.0625 640.006257,7.53125 640.006257,8.46875 L640.006257,8.46875 L640.006257,12.6875 C640.006257,13.625 639.537507,14.09375 638.600007,14.09375 L638.600007,14.09375 L599.225007,14.09375 L599.225007,38 L607.662507,38 Z M737.731252,38 L737.731252,7.0625 C737.731252,2.375 734.918752,0.03125 729.293752,0.03125 L729.293752,0.03125 L722.262502,0.03125 L722.262502,7.0625 L727.887502,7.0625 C728.825002,7.0625 729.293752,7.53125 729.293752,8.46875 L729.293752,8.46875 L729.293752,38 L737.731252,38 Z M812.1875,38 L812.1875,0.03125 L803.75,0.03125 C801.875,0.03125 800,0.5 798.125,1.4375 L798.125,1.4375 L771.40625,15.5 C765.78125,18.3125 762.96875,21.125 762.96875,23.9375 C762.96875,28.625 765.78125,30.96875 771.40625,30.96875 L771.40625,30.96875 L803.75,30.96875 L803.75,38 L812.1875,38 Z M803.75,23.9375 L771.40625,23.9375 L803.75,7.0625 L803.75,23.9375 Z M901.474995,21.125 L901.474995,15.5 L886.006245,15.5 L886.006245,21.125 L901.474995,21.125 Z M989.35624,38 L989.35624,7.0625 C989.35624,2.375 986.54374,0.03125 980.91874,0.03125 L980.91874,0.03125 L973.88749,0.03125 L973.88749,7.0625 L979.51249,7.0625 C980.44999,7.0625 980.91874,7.53125 980.91874,8.46875 L980.91874,8.46875 L980.91874,38 L989.35624,38 Z M1055.37499,38 C1060.99999,38 1063.81249,35.65625 1063.81249,30.96875 L1063.81249,30.96875 L1063.81249,21.125 C1063.81249,16.4375 1060.99999,14.09375 1055.37499,14.09375 L1055.37499,14.09375 L1023.03124,14.09375 L1023.03124,8.46875 C1023.03124,7.53125 1023.49999,7.0625 1024.43749,7.0625 L1024.43749,7.0625 L1063.81249,7.0625 L1063.81249,0.03125 L1023.03124,0.03125 C1017.40624,0.03125 1014.59374,2.375 1014.59374,7.0625 L1014.59374,7.0625 L1014.59374,30.96875 C1014.59374,35.65625 1017.40624,38 1023.03124,38 L1023.03124,38 L1055.37499,38 Z M1053.96874,30.96875 L1024.43749,30.96875 C1023.49999,30.96875 1023.03124,30.5 1023.03124,29.5625 L1023.03124,29.5625 L1023.03124,21.125 L1053.96874,21.125 C1054.90624,21.125 1055.37499,21.59375 1055.37499,22.53125 L1055.37499,22.53125 L1055.37499,29.5625 C1055.37499,30.5 1054.90624,30.96875 1053.96874,30.96875 L1053.96874,30.96875 Z M1191.06873,38 L1191.06873,30.96875 L1150.28748,30.96875 L1150.28748,22.53125 C1150.28748,21.59375 1150.75623,21.125 1151.69373,21.125 L1151.69373,21.125 L1182.63123,21.125 C1188.25623,21.125 1191.06873,18.78125 1191.06873,14.09375 L1191.06873,14.09375 L1191.06873,7.0625 C1191.06873,2.375 1188.25623,0.03125 1182.63123,0.03125 L1182.63123,0.03125 L1141.84998,0.03125 L1141.84998,7.0625 L1181.22498,7.0625 C1182.16248,7.0625 1182.63123,7.53125 1182.63123,8.46875 L1182.63123,8.46875 L1182.63123,12.6875 C1182.63123,13.625 1182.16248,14.09375 1181.22498,14.09375 L1181.22498,14.09375 L1150.28748,14.09375 C1144.66248,14.09375 1141.84998,16.4375 1141.84998,21.125 L1141.84998,21.125 L1141.84998,38 L1191.06873,38 Z M1257.08748,38 C1262.71248,38 1265.52498,35.65625 1265.52498,30.96875 L1265.52498,30.96875 L1265.52498,7.0625 C1265.52498,2.375 1262.71248,0.03125 1257.08748,0.03125 L1257.08748,0.03125 L1224.74373,0.03125 C1219.11873,0.03125 1216.30623,2.375 1216.30623,7.0625 L1216.30623,7.0625 L1216.30623,30.96875 C1216.30623,35.65625 1219.11873,38 1224.74373,38 L1224.74373,38 L1257.08748,38 Z M1255.68123,30.96875 L1226.14998,30.96875 C1225.21248,30.96875 1224.74373,30.5 1224.74373,29.5625 L1224.74373,29.5625 L1224.74373,8.46875 C1224.74373,7.53125 1225.21248,7.0625 1226.14998,7.0625 L1226.14998,7.0625 L1255.68123,7.0625 C1256.61873,7.0625 1257.08748,7.53125 1257.08748,8.46875 L1257.08748,8.46875 L1257.08748,29.5625 C1257.08748,30.5 1256.61873,30.96875 1255.68123,30.96875 L1255.68123,30.96875 Z M1339.98123,38 L1339.98123,30.96875 L1299.19998,30.96875 L1299.19998,22.53125 C1299.19998,21.59375 1299.66873,21.125 1300.60623,21.125 L1300.60623,21.125 L1331.54373,21.125 C1337.16873,21.125 1339.98123,18.78125 1339.98123,14.09375 L1339.98123,14.09375 L1339.98123,7.0625 C1339.98123,2.375 1337.16873,0.03125 1331.54373,0.03125 L1331.54373,0.03125 L1290.76248,0.03125 L1290.76248,7.0625 L1330.13748,7.0625 C1331.07498,7.0625 1331.54373,7.53125 1331.54373,8.46875 L1331.54373,8.46875 L1331.54373,12.6875 C1331.54373,13.625 1331.07498,14.09375 1330.13748,14.09375 L1330.13748,14.09375 L1299.19998,14.09375 C1293.57498,14.09375 1290.76248,16.4375 1290.76248,21.125 L1290.76248,21.125 L1290.76248,38 L1339.98123,38 Z M1414.43748,38 L1414.43748,30.96875 L1373.65623,30.96875 L1373.65623,22.53125 C1373.65623,21.59375 1374.12498,21.125 1375.06248,21.125 L1375.06248,21.125 L1405.99998,21.125 C1411.62498,21.125 1414.43748,18.78125 1414.43748,14.09375 L1414.43748,14.09375 L1414.43748,7.0625 C1414.43748,2.375 1411.62498,0.03125 1405.99998,0.03125 L1405.99998,0.03125 L1365.21873,0.03125 L1365.21873,7.0625 L1404.59373,7.0625 C1405.53123,7.0625 1405.99998,7.53125 1405.99998,8.46875 L1405.99998,8.46875 L1405.99998,12.6875 C1405.99998,13.625 1405.53123,14.09375 1404.59373,14.09375 L1404.59373,14.09375 L1373.65623,14.09375 C1368.03123,14.09375 1365.21873,16.4375 1365.21873,21.125 L1365.21873,21.125 L1365.21873,38 L1414.43748,38 Z" id="September14-162022" fill="#C418A3" fill-rule="nonzero"></path>
    </g>
</svg>