<svg width="905" height="279" viewBox="0 0 905 279" fill="none" xmlns="http://www.w3.org/2000/svg">
<mask id="path-1-outside-1" maskUnits="userSpaceOnUse" x="0.983215" y="0.144165" width="904" height="279" fill="black">
<rect fill="white" x="0.983215" y="0.144165" width="904" height="279"/>
<path d="M166.106 86C164.162 86.072 162.326 86.108 160.598 86.108C154.046 86.108 148.358 85.352 143.534 83.84C140.294 82.832 135.506 81.392 129.17 79.52C124.922 78.368 119.738 76.82 113.618 74.876C108.29 72.5 105.626 69.404 105.626 65.588C105.626 64.58 105.77 63.608 106.058 62.672C109.802 50.648 115.346 39.92 122.69 30.488C131.69 18.968 141.086 13.208 150.878 13.208C151.022 14.72 151.094 16.268 151.094 17.852C151.094 19.58 150.77 24.26 150.122 31.892C149.618 37.508 149.762 42.26 150.554 46.148C145.802 48.308 141.662 49.388 138.134 49.388C134.03 49.388 131.978 47.696 131.978 44.312C128.522 47.768 126.362 50.18 125.498 51.548C123.914 54.068 123.266 57.056 123.554 60.512C123.986 65.768 126.758 69.944 131.87 73.04C136.19 75.632 141.194 76.928 146.882 76.928C146.954 72.392 147.242 65.66 147.746 56.732C155.018 53.132 161.066 51.476 165.89 51.764C164.882 59.684 164.378 65.696 164.378 69.8C164.378 74.984 164.954 80.384 166.106 86Z"/>
<path d="M238.549 53.924C237.757 64.076 232.753 72.032 223.537 77.792C215.977 82.472 206.617 85.208 195.457 86C187.249 85.64 180.265 82.112 174.505 75.416C168.889 68.936 166.081 61.52 166.081 53.168C166.081 50.576 166.441 47.984 167.161 45.392C170.329 33.944 175.477 24.836 182.605 18.068C190.669 10.508 200.281 6.87202 211.441 7.16002C220.873 7.44802 228.037 12.236 232.933 21.524C236.821 29.012 238.765 37.94 238.765 48.308C238.765 50.252 238.693 52.124 238.549 53.924ZM204.961 75.524C205.753 75.668 206.509 75.74 207.229 75.74C212.629 75.74 216.661 72.644 219.325 66.452C221.269 61.916 222.241 56.552 222.241 50.36C222.241 42.8 220.837 35.96 218.029 29.84C214.357 21.704 209.173 18.032 202.477 18.824C195.277 19.616 190.129 23.396 187.033 30.164C184.945 34.628 183.649 41.432 183.145 50.576C182.281 64.76 189.553 73.076 204.961 75.524ZM204.961 42.908C204.529 45.5 202.945 47.768 200.209 49.712C195.529 53.024 193.009 54.86 192.649 55.22C191.929 54.428 191.569 53.492 191.569 52.412C191.569 50.036 193.117 47.732 196.213 45.5C198.733 43.7 201.145 42.8 203.449 42.8C203.953 42.8 204.457 42.836 204.961 42.908Z"/>
<path d="M304.974 14.612C307.206 26.42 308.322 35.168 308.322 40.856C308.322 49.496 306.378 57.992 302.49 66.344C299.826 72.032 296.514 76.604 292.554 80.06C287.874 84.092 282.726 86.108 277.11 86.108C271.926 86.108 267.822 83.984 264.798 79.736C262.206 76.064 261.126 71.996 261.558 67.532C259.11 72.428 256.23 76.352 252.918 79.304C249.246 82.544 245.43 84.164 241.47 84.164C240.534 84.164 239.634 84.056 238.77 83.84C239.346 82.184 242.334 77 247.734 68.288C252.918 59.936 256.086 52.916 257.238 47.228C257.67 45.068 258.462 38.66 259.614 28.004C260.262 22.1 261.666 17.924 263.826 15.476C266.634 12.308 271.746 10.364 279.162 9.64402C278.874 11.66 277.722 18.968 275.706 31.568C274.338 40.064 273.654 46.724 273.654 51.548C273.654 61.844 276.498 69.44 282.186 74.336C282.978 74.552 284.742 71.816 287.478 66.128C290.574 59.72 291.906 54.248 291.474 49.712C290.178 35.24 289.53 27.464 289.53 26.384C289.53 22.136 290.61 19.364 292.77 18.068C293.85 17.42 297.918 16.268 304.974 14.612Z"/>
<path d="M370.719 52.844C368.559 52.628 366.399 52.52 364.239 52.52C360.711 52.52 355.419 52.952 348.363 53.816C341.307 54.68 336.015 55.112 332.487 55.112C332.487 59.216 332.559 64.58 332.703 71.204L332.811 80.816C332.811 83.264 330.975 84.632 327.303 84.92C321.543 85.352 318.267 85.712 317.475 86C315.963 80.456 315.063 73.58 314.775 65.372C314.343 52.988 314.055 46.148 313.911 44.852C313.047 37.076 311.175 29.984 308.295 23.576C318.735 18.176 330.255 15.476 342.855 15.476C355.167 15.476 364.455 18.068 370.719 23.252C365.463 25.196 360.999 26.168 357.327 26.168C355.311 26.168 352.683 25.592 349.443 24.44C346.203 23.216 343.827 22.604 342.315 22.604C341.523 22.604 340.479 22.748 339.183 23.036C335.655 23.828 333.891 26.636 333.891 31.46C333.891 32.396 333.999 34.232 334.215 36.968C334.359 39.272 334.395 41.108 334.323 42.476C334.179 44.348 333.783 46.004 333.135 47.444C336.447 48.38 339.759 48.848 343.071 48.848C346.095 48.848 350.667 48.308 356.787 47.228C362.907 46.148 367.551 45.608 370.719 45.608V52.844Z"/>
<path d="M433.286 16.34C433.286 21.524 429.505 24.116 421.945 24.116C417.553 24.116 411.757 23.18 404.557 21.308C401.821 20.588 397.502 20.156 391.598 20.012C390.95 23.612 389.942 29.768 388.574 38.48C392.246 38.624 397.97 39.488 405.746 41.072C413.162 42.584 418.886 43.34 422.918 43.34C423.422 44.42 424.034 46.148 424.754 48.524C420.434 50.972 414.997 52.196 408.445 52.196C403.261 52.196 396.53 51.368 388.25 49.712C387.026 51.8 386.414 54.32 386.414 57.272C386.414 62.528 388.142 68.396 391.598 74.876C396.854 74.66 401.785 73.4 406.393 71.096C407.257 70.664 410.93 68.396 417.41 64.292C421.586 61.628 425.438 59.936 428.966 59.216C429.83 60.656 430.262 61.844 430.262 62.78C430.262 64.724 427.489 66.992 421.945 69.584L393.218 83.084C389.042 85.1 385.73 86.108 383.282 86.108C378.314 86.108 374.786 82.868 372.698 76.388C371.402 72.356 370.754 66.488 370.754 58.784C370.754 47.624 371.906 37.4 374.21 28.112C376.946 17.168 380.51 10.796 384.902 8.99601C387.134 8.06002 389.834 7.59202 393.002 7.59202C397.034 7.59202 403.334 8.81602 411.902 11.264C421.694 14.072 428.822 15.764 433.286 16.34Z"/>
<path d="M493.258 48.2C490.306 52.592 488.11 58.676 486.67 66.452C485.518 72.644 485.05 78.224 485.266 83.192C483.25 85.424 480.19 86.54 476.086 86.54C474.502 86.54 472.45 86.36 469.93 86C469.93 76.712 471.442 66.344 474.466 54.896C471.586 53.384 468.706 52.412 465.826 51.98C463.954 51.692 460.894 51.548 456.646 51.548C456.43 52.988 456.322 54.392 456.322 55.76C456.322 62.528 459.778 70.016 466.69 78.224C463.306 80.456 460.822 81.968 459.238 82.76C456.646 83.984 453.946 84.704 451.138 84.92C450.346 82.04 448.15 75.776 444.55 66.128C441.742 58.784 440.05 51.332 439.474 43.772C439.114 39.092 439.114 31.424 439.474 20.768C436.666 19.544 435.226 18.896 435.154 18.824C434.074 18.104 433.462 16.808 433.318 14.936C437.35 11.624 440.986 9.96801 444.226 9.96801C446.314 9.96801 449.698 10.976 454.378 12.992C460.282 15.512 465.466 17.276 469.93 18.284C480.514 20.588 485.806 24.008 485.806 28.544C485.806 32.72 483.25 35.996 478.138 38.372C474.25 40.244 470.434 42.044 466.69 43.772C469.57 44.636 473.998 45.392 479.974 46.04C485.95 46.616 490.378 47.336 493.258 48.2ZM463.882 28.328C462.226 27.968 459.706 27.464 456.322 26.816V40.208C464.602 39.128 468.742 36.932 468.742 33.62C468.742 30.884 467.122 29.12 463.882 28.328Z"/>
<path d="M555.777 16.34C555.777 21.524 551.997 24.116 544.437 24.116C540.045 24.116 534.249 23.18 527.049 21.308C524.313 20.588 519.993 20.156 514.089 20.012C513.441 23.612 512.433 29.768 511.065 38.48C514.737 38.624 520.461 39.488 528.237 41.072C535.653 42.584 541.377 43.34 545.409 43.34C545.913 44.42 546.525 46.148 547.245 48.524C542.925 50.972 537.489 52.196 530.937 52.196C525.753 52.196 519.021 51.368 510.741 49.712C509.517 51.8 508.905 54.32 508.905 57.272C508.905 62.528 510.633 68.396 514.089 74.876C519.345 74.66 524.277 73.4 528.885 71.096C529.749 70.664 533.421 68.396 539.901 64.292C544.077 61.628 547.929 59.936 551.457 59.216C552.321 60.656 552.753 61.844 552.753 62.78C552.753 64.724 549.981 66.992 544.437 69.584L515.709 83.084C511.533 85.1 508.221 86.108 505.773 86.108C500.805 86.108 497.277 82.868 495.189 76.388C493.893 72.356 493.245 66.488 493.245 58.784C493.245 47.624 494.397 37.4 496.701 28.112C499.437 17.168 503.001 10.796 507.393 8.99601C509.625 8.06002 512.325 7.59202 515.493 7.59202C519.525 7.59202 525.825 8.81602 534.393 11.264C544.185 14.072 551.313 15.764 555.777 16.34Z"/>
<path d="M622.013 14.612C624.245 26.42 625.361 35.168 625.361 40.856C625.361 49.496 623.417 57.992 619.529 66.344C616.865 72.032 613.553 76.604 609.593 80.06C604.913 84.092 599.765 86.108 594.149 86.108C588.965 86.108 584.861 83.984 581.837 79.736C579.245 76.064 578.165 71.996 578.597 67.532C576.149 72.428 573.269 76.352 569.957 79.304C566.285 82.544 562.469 84.164 558.509 84.164C557.573 84.164 556.673 84.056 555.809 83.84C556.385 82.184 559.373 77 564.773 68.288C569.957 59.936 573.125 52.916 574.277 47.228C574.709 45.068 575.501 38.66 576.653 28.004C577.301 22.1 578.705 17.924 580.865 15.476C583.673 12.308 588.785 10.364 596.201 9.64402C595.913 11.66 594.761 18.968 592.745 31.568C591.377 40.064 590.693 46.724 590.693 51.548C590.693 61.844 593.537 69.44 599.225 74.336C600.017 74.552 601.781 71.816 604.517 66.128C607.613 59.72 608.945 54.248 608.513 49.712C607.217 35.24 606.569 27.464 606.569 26.384C606.569 22.136 607.649 19.364 609.809 18.068C610.889 17.42 614.957 16.268 622.013 14.612Z"/>
<path d="M685.814 86C683.87 86.072 682.034 86.108 680.306 86.108C673.754 86.108 668.066 85.352 663.242 83.84C660.002 82.832 655.214 81.392 648.878 79.52C644.63 78.368 639.446 76.82 633.326 74.876C627.998 72.5 625.334 69.404 625.334 65.588C625.334 64.58 625.478 63.608 625.766 62.672C629.51 50.648 635.054 39.92 642.398 30.488C651.398 18.968 660.794 13.208 670.586 13.208C670.73 14.72 670.802 16.268 670.802 17.852C670.802 19.58 670.478 24.26 669.83 31.892C669.326 37.508 669.47 42.26 670.262 46.148C665.51 48.308 661.37 49.388 657.842 49.388C653.738 49.388 651.686 47.696 651.686 44.312C648.23 47.768 646.07 50.18 645.206 51.548C643.622 54.068 642.974 57.056 643.262 60.512C643.694 65.768 646.466 69.944 651.578 73.04C655.898 75.632 660.902 76.928 666.59 76.928C666.662 72.392 666.95 65.66 667.454 56.732C674.726 53.132 680.774 51.476 685.598 51.764C684.59 59.684 684.086 65.696 684.086 69.8C684.086 74.984 684.662 80.384 685.814 86Z"/>
<path d="M748.321 16.34C748.321 21.524 744.541 24.116 736.981 24.116C732.589 24.116 726.793 23.18 719.593 21.308C716.857 20.588 712.537 20.156 706.633 20.012C705.985 23.612 704.977 29.768 703.609 38.48C707.281 38.624 713.005 39.488 720.781 41.072C728.197 42.584 733.921 43.34 737.953 43.34C738.457 44.42 739.069 46.148 739.789 48.524C735.469 50.972 730.033 52.196 723.481 52.196C718.297 52.196 711.565 51.368 703.285 49.712C702.061 51.8 701.449 54.32 701.449 57.272C701.449 62.528 703.177 68.396 706.633 74.876C711.889 74.66 716.821 73.4 721.429 71.096C722.293 70.664 725.965 68.396 732.445 64.292C736.621 61.628 740.473 59.936 744.001 59.216C744.865 60.656 745.297 61.844 745.297 62.78C745.297 64.724 742.525 66.992 736.981 69.584L708.253 83.084C704.077 85.1 700.765 86.108 698.317 86.108C693.349 86.108 689.821 82.868 687.733 76.388C686.437 72.356 685.789 66.488 685.789 58.784C685.789 47.624 686.941 37.4 689.245 28.112C691.981 17.168 695.545 10.796 699.937 8.99601C702.169 8.06002 704.869 7.59202 708.037 7.59202C712.069 7.59202 718.369 8.81602 726.937 11.264C736.729 14.072 743.857 15.764 748.321 16.34Z"/>
<path d="M68.6792 256.384C63.7112 259.84 58.4192 261.712 52.8032 262C52.2992 259.624 50.6072 255.88 47.7272 250.768C45.1352 246.16 43.6952 242.344 43.4072 239.32C40.3832 239.824 37.1072 240.976 33.5792 242.776L25.6952 246.772C24.7592 248.212 24.2192 250.336 24.0752 253.144C24.1472 255.448 24.0752 258.616 23.8592 262.648C22.2752 264.376 19.8992 265.492 16.7312 265.996C15.2912 266.212 12.3752 266.32 7.98322 266.32C7.98322 259.12 8.88321 251.776 10.6832 244.288C11.9072 239.464 13.7072 232.192 16.0832 222.472C17.5952 215.92 18.3512 210.052 18.3512 204.868C18.3512 201.34 17.9912 197.344 17.2712 192.88L26.9912 188.452C34.1192 185.284 40.0232 182.944 44.7032 181.432C44.7032 190.072 45.6752 197.884 47.6192 204.868C49.3472 210.916 52.4072 218.152 56.7992 226.576C59.9672 225.568 61.9472 225.064 62.7392 225.064C63.8912 225.064 64.9352 225.352 65.8712 225.928C65.2952 227.008 64.3592 227.908 63.0632 228.628C61.7672 229.348 60.5072 230.032 59.2832 230.68C58.9232 230.896 58.6352 231.076 58.4192 231.22C60.1472 233.884 61.9112 238.06 63.7112 243.748C65.5832 249.724 67.2392 253.936 68.6792 256.384ZM40.5992 232.732C37.3592 224.38 34.8752 216.928 33.1472 210.376C33.1472 213.832 32.3912 218.62 30.8792 224.74C29.2952 231.292 28.3952 236.044 28.1792 238.996C30.8432 237.916 34.9832 235.828 40.5992 232.732Z"/>
<path d="M111.633 257.464C106.593 260.344 100.941 261.856 94.6768 262C81.9328 262.288 74.0848 258.256 71.1328 249.904C69.4768 245.224 68.6488 239.68 68.6488 233.272C68.6488 224.848 70.0888 214.624 72.9688 202.6C78.1528 198.496 84.3808 196.444 91.6528 196.444C91.4368 199.828 90.3208 205.156 88.3048 212.428C86.4328 219.268 85.4968 224.596 85.4968 228.412C85.4968 231.148 85.8928 233.848 86.6848 236.512C88.4128 242.272 89.8888 246.232 91.1128 248.392C93.4168 252.424 96.3688 254.26 99.9688 253.9C102.777 253.612 104.757 250.444 105.909 244.396C106.125 243.244 106.629 237.916 107.421 228.412C107.565 226.684 107.637 225.388 107.637 224.524C107.637 221.572 107.025 217.108 105.801 211.132C104.577 205.372 104.001 201.088 104.073 198.28C108.177 196.264 111.633 195.256 114.441 195.256C116.097 195.256 117.393 195.652 118.329 196.444C122.793 206.596 125.025 217.468 125.025 229.06C125.025 235.756 124.161 241.192 122.433 245.368C120.345 250.48 116.745 254.512 111.633 257.464Z"/>
<path d="M187.306 265.132C182.122 269.596 177.622 271.828 173.806 271.828C169.63 271.828 167.398 268.804 167.11 262.756C166.966 259.876 166.642 257.752 166.138 256.384C164.194 256.744 160.378 257.86 154.69 259.732C150.082 261.244 146.554 262 144.106 262C140.434 262 137.41 260.56 135.034 257.68C131.29 253.144 128.698 248.32 127.258 243.208C126.178 239.464 125.458 233.92 125.098 226.576C124.378 213.112 128.122 203.968 136.33 199.144C140.938 196.48 146.734 195.004 153.718 194.716C154.51 194.716 155.734 195.148 157.39 196.012C159.118 196.876 160.378 197.308 161.17 197.308C162.826 196.156 166.966 194.716 173.59 192.988C173.806 197.02 174.49 202.528 175.642 209.512L178.018 224.092C177.658 224.956 176.722 225.64 175.21 226.144C173.05 226.864 171.682 227.404 171.106 227.764C175.57 229.06 180.538 229.708 186.01 229.708C186.082 232.3 185.794 236.08 185.146 241.048C184.498 246.016 184.174 249.688 184.174 252.064C184.174 256.816 185.218 261.172 187.306 265.132ZM159.01 227.224C158.218 215.992 153.754 208.72 145.618 205.408C143.458 213.688 142.522 221.788 142.81 229.708C146.986 228.052 152.386 227.224 159.01 227.224ZM160.198 237.808C158.398 237.808 155.698 237.592 152.098 237.16C148.57 236.728 145.906 236.512 144.106 236.512C145.33 244.504 149.146 250.408 155.554 254.224C157.786 252.496 159.19 250.012 159.766 246.772C160.054 245.116 160.198 242.128 160.198 237.808Z"/>
<path d="M230.327 257.464C225.287 260.344 219.635 261.856 213.371 262C200.627 262.288 192.779 258.256 189.827 249.904C188.171 245.224 187.343 239.68 187.343 233.272C187.343 224.848 188.783 214.624 191.663 202.6C196.847 198.496 203.075 196.444 210.347 196.444C210.131 199.828 209.015 205.156 206.999 212.428C205.127 219.268 204.191 224.596 204.191 228.412C204.191 231.148 204.587 233.848 205.379 236.512C207.107 242.272 208.583 246.232 209.807 248.392C212.111 252.424 215.063 254.26 218.663 253.9C221.471 253.612 223.451 250.444 224.603 244.396C224.819 243.244 225.323 237.916 226.115 228.412C226.259 226.684 226.331 225.388 226.331 224.524C226.331 221.572 225.719 217.108 224.495 211.132C223.271 205.372 222.695 201.088 222.767 198.28C226.871 196.264 230.327 195.256 233.135 195.256C234.791 195.256 236.087 195.652 237.023 196.444C241.487 206.596 243.719 217.468 243.719 229.06C243.719 235.756 242.855 241.192 241.127 245.368C239.039 250.48 235.439 254.512 230.327 257.464Z"/>
<path d="M310.321 183.916C310.465 185.068 310.537 186.22 310.537 187.372C310.537 191.116 309.565 196.624 307.621 203.896C305.749 211.168 304.813 216.712 304.813 220.528C302.221 220.744 298.153 221.5 292.609 222.796C297.433 228.268 299.845 233.632 299.845 238.888C299.845 244.648 297.181 249.724 291.853 254.116C287.389 257.86 282.061 260.38 275.869 261.676C274.861 261.892 273.709 262 272.413 262C268.309 262 264.709 260.74 261.613 258.22C258.301 255.556 256.393 252.244 255.889 248.284C255.673 246.628 255.565 245.296 255.565 244.288C255.565 240.976 256.753 238.672 259.129 237.376C260.713 236.512 264.817 235.324 271.441 233.812C270.289 236.044 269.713 238.384 269.713 240.832C269.713 246.592 272.521 251.668 278.137 256.06C283.321 249.508 285.913 244.252 285.913 240.292C285.913 238.42 285.553 236.656 284.833 235C280.945 226 272.053 221.5 258.157 221.5C256.429 221.5 254.557 221.536 252.541 221.608C252.181 219.88 251.065 214.732 249.193 206.164C247.969 200.548 246.133 195.724 243.685 191.692C246.781 189.388 250.273 187.984 254.161 187.48C256.681 187.12 260.497 187.084 265.609 187.372C270.721 187.588 274.537 187.516 277.057 187.156C284.905 186.148 290.413 185.464 293.581 185.104C298.621 184.528 304.201 184.132 310.321 183.916ZM288.937 220.528C288.793 212.176 288.577 207.028 288.289 205.084C287.137 198.028 284.365 194.5 279.973 194.5C278.605 194.5 277.237 194.644 275.869 194.932C273.637 195.436 271.837 196.732 270.469 198.82C269.101 200.836 268.417 203.032 268.417 205.408C268.417 206.56 268.597 207.712 268.957 208.864C269.965 211.96 272.809 214.264 277.489 215.776C283.681 217.792 287.497 219.376 288.937 220.528ZM264.205 192.772L258.697 193.312L258.913 196.336L264.205 192.772Z"/>
<path d="M377.749 186.184C374.941 189.208 370.873 191.26 365.545 192.34C358.489 193.78 353.845 195.04 351.613 196.12C348.949 197.416 347.617 199.396 347.617 202.06C347.617 204.364 348.661 207.784 350.749 212.32C353.269 217.864 354.781 221.572 355.285 223.444C356.149 226.612 358.525 231.508 362.413 238.132C365.797 243.82 367.489 248.212 367.489 251.308C367.489 254.548 366.409 257.248 364.249 259.408C362.161 261.496 359.461 262.54 356.149 262.54C355.069 262.54 353.485 262.432 351.397 262.216C349.309 262.072 347.725 262 346.645 262C346.069 259.48 345.241 254.224 344.161 246.232C343.369 240.4 342.109 235.288 340.381 230.896C340.021 230.032 338.041 226.108 334.441 219.124C332.137 214.66 330.985 210.988 330.985 208.108C330.985 205.66 331.633 203.32 332.929 201.088C330.769 201.088 327.637 201.556 323.533 202.492C319.501 203.428 316.477 203.896 314.461 203.896C313.165 203.896 311.869 203.788 310.573 203.572C316.189 197.956 322.633 193.96 329.905 191.584C334.369 190.144 341.497 188.848 351.289 187.696C361.657 186.472 369.649 185.14 375.265 183.7L377.749 186.184Z"/>
<path d="M470.031 181.972C470.463 184.708 470.679 187.408 470.679 190.072C470.679 193.168 470.211 197.776 469.275 203.896C468.411 209.944 467.979 214.516 467.979 217.612C467.979 222.796 469.311 230.068 471.975 239.428C474.495 239.284 478.455 238.384 483.855 236.728C489.039 235.144 492.963 234.352 495.627 234.352C499.155 234.352 502.071 235.504 504.375 237.808C501.495 239.968 496.383 241.372 489.039 242.02C482.199 242.596 477.051 243.532 473.595 244.828C469.923 246.124 465.459 248.68 460.203 252.496C455.811 255.736 452.679 257.824 450.807 258.76C447.135 260.632 442.959 261.712 438.279 262C441.735 257.176 448.107 252.1 457.395 246.772C455.019 239.212 453.831 230.356 453.831 220.204C453.831 214.948 454.155 209.404 454.803 203.572C451.923 206.02 448.755 208.072 445.299 209.728C442.779 210.952 439.179 212.284 434.499 213.724C436.083 211.78 438.567 209.368 441.951 206.488C445.623 203.392 448.143 201.052 449.511 199.468C452.103 196.516 454.191 193.024 455.775 188.992C457.935 187.264 462.687 184.924 470.031 181.972Z"/>
<path d="M583.913 187.588C581.177 192.916 576.533 197.992 569.981 202.816C560.621 209.728 554.825 214.3 552.593 216.532C554.609 217.828 558.497 219.88 564.257 222.688C569.369 225.136 572.897 227.152 574.841 228.736C577.937 231.256 579.485 234.1 579.485 237.268C579.485 238.348 579.305 239.5 578.945 240.724C577.001 247.204 573.221 252.28 567.605 255.952C562.349 259.336 556.193 261.1 549.137 261.244C547.553 261.316 544.781 261.46 540.821 261.676C537.365 261.964 534.629 262.108 532.613 262.108C523.325 262.108 516.701 259.336 512.741 253.792C510.797 251.056 509.825 248.032 509.825 244.72C509.825 236.656 515.261 227.584 526.133 217.504C521.741 214.264 519.041 212.14 518.033 211.132C515.801 208.828 514.685 206.2 514.685 203.248C514.685 202.456 514.793 201.484 515.009 200.332C515.873 195.652 518.321 191.296 522.353 187.264C526.385 183.232 530.777 180.748 535.529 179.812C537.329 179.452 539.273 179.272 541.361 179.272C550.145 179.272 557.813 181.756 564.365 186.724C568.253 184.492 571.997 183.376 575.597 183.376C579.629 183.376 582.401 184.78 583.913 187.588ZM541.145 187.48C537.401 187.48 534.917 189.388 533.693 193.204C533.189 194.716 532.937 196.264 532.937 197.848C532.937 199.864 533.333 201.916 534.125 204.004C535.565 207.82 537.689 209.8 540.497 209.944C546.401 208.216 549.353 204.112 549.353 197.632C549.353 195.112 548.777 192.88 547.625 190.936C546.185 188.632 544.025 187.48 541.145 187.48ZM561.557 237.916C559.973 234.028 557.093 230.896 552.917 228.52C550.397 227.08 545.933 225.352 539.525 223.336C536.933 226.432 534.341 229.492 531.749 232.516C528.869 236.476 527.321 240.04 527.105 243.208C526.817 247.096 528.653 250.192 532.613 252.496C535.925 254.296 539.669 255.196 543.845 255.196C548.093 255.196 552.125 253.972 555.941 251.524C560.189 248.788 562.313 245.404 562.313 241.372C562.313 240.292 562.061 239.14 561.557 237.916Z"/>
<path d="M647.605 237.268V228.844H673.741V237.268H647.605Z"/>
<path d="M774.015 242.02C795.615 239.428 810.014 238.132 817.214 238.132C817.574 239.14 818.006 240.832 818.51 243.208C805.694 243.208 797.918 243.316 795.182 243.532C787.622 244.108 780.135 245.728 772.719 248.392C769.911 249.4 765.266 252.244 758.786 256.924C753.386 260.812 748.922 262.756 745.394 262.756C743.954 262.756 742.478 262.504 740.966 262C744.206 257.824 749.751 251.704 757.599 243.64C765.231 235.864 770.738 229.672 774.122 225.064C779.81 217.432 784.022 209.512 786.758 201.304C787.046 200.44 787.19 199.612 787.19 198.82C787.19 196.516 786.399 194.536 784.815 192.88C783.231 191.224 781.323 190.396 779.091 190.396C774.915 190.396 769.335 193.348 762.351 199.252C759.039 202.06 755.331 205.12 751.227 208.432C746.835 211.312 742.262 212.752 737.51 212.752C743.702 203.464 751.371 196.228 760.515 191.044C769.731 185.86 779.811 183.268 790.755 183.268C792.483 183.268 794.535 183.376 796.911 183.592C801.879 184.024 804.362 187.768 804.362 194.824C804.362 199.792 803.138 204.076 800.69 207.676C797.738 211.996 793.203 217.648 787.083 224.632C781.395 231.112 777.039 236.908 774.015 242.02Z"/>
<path d="M897.243 215.02C896.307 226.684 893.535 236.404 888.927 244.18C883.311 253.612 875.319 259.228 864.951 261.028C861.206 261.676 857.463 262 853.719 262C844.431 262 837.159 259.624 831.903 254.872C826.359 249.832 823.695 242.74 823.911 233.596C824.199 222.22 826.863 212.5 831.903 204.436C837.591 195.22 845.691 189.604 856.203 187.588C858.507 187.156 860.847 186.94 863.223 186.94C872.007 186.94 879.819 189.352 886.659 194.176C894.363 199.576 897.891 206.524 897.243 215.02ZM881.367 217.18C881.655 215.668 881.799 214.408 881.799 213.4C881.799 209.584 880.755 205.552 878.667 201.304C876.219 196.192 873.303 193.6 869.919 193.528C862.359 193.312 855.663 198.532 849.831 209.188C844.791 218.404 842.271 227.152 842.271 235.432C842.271 246.808 846.915 253.36 856.203 255.088C869.595 247.096 877.983 234.46 881.367 217.18Z"/>
</mask>
<path d="M166.106 86C164.162 86.072 162.326 86.108 160.598 86.108C154.046 86.108 148.358 85.352 143.534 83.84C140.294 82.832 135.506 81.392 129.17 79.52C124.922 78.368 119.738 76.82 113.618 74.876C108.29 72.5 105.626 69.404 105.626 65.588C105.626 64.58 105.77 63.608 106.058 62.672C109.802 50.648 115.346 39.92 122.69 30.488C131.69 18.968 141.086 13.208 150.878 13.208C151.022 14.72 151.094 16.268 151.094 17.852C151.094 19.58 150.77 24.26 150.122 31.892C149.618 37.508 149.762 42.26 150.554 46.148C145.802 48.308 141.662 49.388 138.134 49.388C134.03 49.388 131.978 47.696 131.978 44.312C128.522 47.768 126.362 50.18 125.498 51.548C123.914 54.068 123.266 57.056 123.554 60.512C123.986 65.768 126.758 69.944 131.87 73.04C136.19 75.632 141.194 76.928 146.882 76.928C146.954 72.392 147.242 65.66 147.746 56.732C155.018 53.132 161.066 51.476 165.89 51.764C164.882 59.684 164.378 65.696 164.378 69.8C164.378 74.984 164.954 80.384 166.106 86Z" fill="white"/>
<path d="M238.549 53.924C237.757 64.076 232.753 72.032 223.537 77.792C215.977 82.472 206.617 85.208 195.457 86C187.249 85.64 180.265 82.112 174.505 75.416C168.889 68.936 166.081 61.52 166.081 53.168C166.081 50.576 166.441 47.984 167.161 45.392C170.329 33.944 175.477 24.836 182.605 18.068C190.669 10.508 200.281 6.87202 211.441 7.16002C220.873 7.44802 228.037 12.236 232.933 21.524C236.821 29.012 238.765 37.94 238.765 48.308C238.765 50.252 238.693 52.124 238.549 53.924ZM204.961 75.524C205.753 75.668 206.509 75.74 207.229 75.74C212.629 75.74 216.661 72.644 219.325 66.452C221.269 61.916 222.241 56.552 222.241 50.36C222.241 42.8 220.837 35.96 218.029 29.84C214.357 21.704 209.173 18.032 202.477 18.824C195.277 19.616 190.129 23.396 187.033 30.164C184.945 34.628 183.649 41.432 183.145 50.576C182.281 64.76 189.553 73.076 204.961 75.524ZM204.961 42.908C204.529 45.5 202.945 47.768 200.209 49.712C195.529 53.024 193.009 54.86 192.649 55.22C191.929 54.428 191.569 53.492 191.569 52.412C191.569 50.036 193.117 47.732 196.213 45.5C198.733 43.7 201.145 42.8 203.449 42.8C203.953 42.8 204.457 42.836 204.961 42.908Z" fill="white"/>
<path d="M304.974 14.612C307.206 26.42 308.322 35.168 308.322 40.856C308.322 49.496 306.378 57.992 302.49 66.344C299.826 72.032 296.514 76.604 292.554 80.06C287.874 84.092 282.726 86.108 277.11 86.108C271.926 86.108 267.822 83.984 264.798 79.736C262.206 76.064 261.126 71.996 261.558 67.532C259.11 72.428 256.23 76.352 252.918 79.304C249.246 82.544 245.43 84.164 241.47 84.164C240.534 84.164 239.634 84.056 238.77 83.84C239.346 82.184 242.334 77 247.734 68.288C252.918 59.936 256.086 52.916 257.238 47.228C257.67 45.068 258.462 38.66 259.614 28.004C260.262 22.1 261.666 17.924 263.826 15.476C266.634 12.308 271.746 10.364 279.162 9.64402C278.874 11.66 277.722 18.968 275.706 31.568C274.338 40.064 273.654 46.724 273.654 51.548C273.654 61.844 276.498 69.44 282.186 74.336C282.978 74.552 284.742 71.816 287.478 66.128C290.574 59.72 291.906 54.248 291.474 49.712C290.178 35.24 289.53 27.464 289.53 26.384C289.53 22.136 290.61 19.364 292.77 18.068C293.85 17.42 297.918 16.268 304.974 14.612Z" fill="white"/>
<path d="M370.719 52.844C368.559 52.628 366.399 52.52 364.239 52.52C360.711 52.52 355.419 52.952 348.363 53.816C341.307 54.68 336.015 55.112 332.487 55.112C332.487 59.216 332.559 64.58 332.703 71.204L332.811 80.816C332.811 83.264 330.975 84.632 327.303 84.92C321.543 85.352 318.267 85.712 317.475 86C315.963 80.456 315.063 73.58 314.775 65.372C314.343 52.988 314.055 46.148 313.911 44.852C313.047 37.076 311.175 29.984 308.295 23.576C318.735 18.176 330.255 15.476 342.855 15.476C355.167 15.476 364.455 18.068 370.719 23.252C365.463 25.196 360.999 26.168 357.327 26.168C355.311 26.168 352.683 25.592 349.443 24.44C346.203 23.216 343.827 22.604 342.315 22.604C341.523 22.604 340.479 22.748 339.183 23.036C335.655 23.828 333.891 26.636 333.891 31.46C333.891 32.396 333.999 34.232 334.215 36.968C334.359 39.272 334.395 41.108 334.323 42.476C334.179 44.348 333.783 46.004 333.135 47.444C336.447 48.38 339.759 48.848 343.071 48.848C346.095 48.848 350.667 48.308 356.787 47.228C362.907 46.148 367.551 45.608 370.719 45.608V52.844Z" fill="white"/>
<path d="M433.286 16.34C433.286 21.524 429.505 24.116 421.945 24.116C417.553 24.116 411.757 23.18 404.557 21.308C401.821 20.588 397.502 20.156 391.598 20.012C390.95 23.612 389.942 29.768 388.574 38.48C392.246 38.624 397.97 39.488 405.746 41.072C413.162 42.584 418.886 43.34 422.918 43.34C423.422 44.42 424.034 46.148 424.754 48.524C420.434 50.972 414.997 52.196 408.445 52.196C403.261 52.196 396.53 51.368 388.25 49.712C387.026 51.8 386.414 54.32 386.414 57.272C386.414 62.528 388.142 68.396 391.598 74.876C396.854 74.66 401.785 73.4 406.393 71.096C407.257 70.664 410.93 68.396 417.41 64.292C421.586 61.628 425.438 59.936 428.966 59.216C429.83 60.656 430.262 61.844 430.262 62.78C430.262 64.724 427.489 66.992 421.945 69.584L393.218 83.084C389.042 85.1 385.73 86.108 383.282 86.108C378.314 86.108 374.786 82.868 372.698 76.388C371.402 72.356 370.754 66.488 370.754 58.784C370.754 47.624 371.906 37.4 374.21 28.112C376.946 17.168 380.51 10.796 384.902 8.99601C387.134 8.06002 389.834 7.59202 393.002 7.59202C397.034 7.59202 403.334 8.81602 411.902 11.264C421.694 14.072 428.822 15.764 433.286 16.34Z" fill="white"/>
<path d="M493.258 48.2C490.306 52.592 488.11 58.676 486.67 66.452C485.518 72.644 485.05 78.224 485.266 83.192C483.25 85.424 480.19 86.54 476.086 86.54C474.502 86.54 472.45 86.36 469.93 86C469.93 76.712 471.442 66.344 474.466 54.896C471.586 53.384 468.706 52.412 465.826 51.98C463.954 51.692 460.894 51.548 456.646 51.548C456.43 52.988 456.322 54.392 456.322 55.76C456.322 62.528 459.778 70.016 466.69 78.224C463.306 80.456 460.822 81.968 459.238 82.76C456.646 83.984 453.946 84.704 451.138 84.92C450.346 82.04 448.15 75.776 444.55 66.128C441.742 58.784 440.05 51.332 439.474 43.772C439.114 39.092 439.114 31.424 439.474 20.768C436.666 19.544 435.226 18.896 435.154 18.824C434.074 18.104 433.462 16.808 433.318 14.936C437.35 11.624 440.986 9.96801 444.226 9.96801C446.314 9.96801 449.698 10.976 454.378 12.992C460.282 15.512 465.466 17.276 469.93 18.284C480.514 20.588 485.806 24.008 485.806 28.544C485.806 32.72 483.25 35.996 478.138 38.372C474.25 40.244 470.434 42.044 466.69 43.772C469.57 44.636 473.998 45.392 479.974 46.04C485.95 46.616 490.378 47.336 493.258 48.2ZM463.882 28.328C462.226 27.968 459.706 27.464 456.322 26.816V40.208C464.602 39.128 468.742 36.932 468.742 33.62C468.742 30.884 467.122 29.12 463.882 28.328Z" fill="white"/>
<path d="M555.777 16.34C555.777 21.524 551.997 24.116 544.437 24.116C540.045 24.116 534.249 23.18 527.049 21.308C524.313 20.588 519.993 20.156 514.089 20.012C513.441 23.612 512.433 29.768 511.065 38.48C514.737 38.624 520.461 39.488 528.237 41.072C535.653 42.584 541.377 43.34 545.409 43.34C545.913 44.42 546.525 46.148 547.245 48.524C542.925 50.972 537.489 52.196 530.937 52.196C525.753 52.196 519.021 51.368 510.741 49.712C509.517 51.8 508.905 54.32 508.905 57.272C508.905 62.528 510.633 68.396 514.089 74.876C519.345 74.66 524.277 73.4 528.885 71.096C529.749 70.664 533.421 68.396 539.901 64.292C544.077 61.628 547.929 59.936 551.457 59.216C552.321 60.656 552.753 61.844 552.753 62.78C552.753 64.724 549.981 66.992 544.437 69.584L515.709 83.084C511.533 85.1 508.221 86.108 505.773 86.108C500.805 86.108 497.277 82.868 495.189 76.388C493.893 72.356 493.245 66.488 493.245 58.784C493.245 47.624 494.397 37.4 496.701 28.112C499.437 17.168 503.001 10.796 507.393 8.99601C509.625 8.06002 512.325 7.59202 515.493 7.59202C519.525 7.59202 525.825 8.81602 534.393 11.264C544.185 14.072 551.313 15.764 555.777 16.34Z" fill="white"/>
<path d="M622.013 14.612C624.245 26.42 625.361 35.168 625.361 40.856C625.361 49.496 623.417 57.992 619.529 66.344C616.865 72.032 613.553 76.604 609.593 80.06C604.913 84.092 599.765 86.108 594.149 86.108C588.965 86.108 584.861 83.984 581.837 79.736C579.245 76.064 578.165 71.996 578.597 67.532C576.149 72.428 573.269 76.352 569.957 79.304C566.285 82.544 562.469 84.164 558.509 84.164C557.573 84.164 556.673 84.056 555.809 83.84C556.385 82.184 559.373 77 564.773 68.288C569.957 59.936 573.125 52.916 574.277 47.228C574.709 45.068 575.501 38.66 576.653 28.004C577.301 22.1 578.705 17.924 580.865 15.476C583.673 12.308 588.785 10.364 596.201 9.64402C595.913 11.66 594.761 18.968 592.745 31.568C591.377 40.064 590.693 46.724 590.693 51.548C590.693 61.844 593.537 69.44 599.225 74.336C600.017 74.552 601.781 71.816 604.517 66.128C607.613 59.72 608.945 54.248 608.513 49.712C607.217 35.24 606.569 27.464 606.569 26.384C606.569 22.136 607.649 19.364 609.809 18.068C610.889 17.42 614.957 16.268 622.013 14.612Z" fill="white"/>
<path d="M685.814 86C683.87 86.072 682.034 86.108 680.306 86.108C673.754 86.108 668.066 85.352 663.242 83.84C660.002 82.832 655.214 81.392 648.878 79.52C644.63 78.368 639.446 76.82 633.326 74.876C627.998 72.5 625.334 69.404 625.334 65.588C625.334 64.58 625.478 63.608 625.766 62.672C629.51 50.648 635.054 39.92 642.398 30.488C651.398 18.968 660.794 13.208 670.586 13.208C670.73 14.72 670.802 16.268 670.802 17.852C670.802 19.58 670.478 24.26 669.83 31.892C669.326 37.508 669.47 42.26 670.262 46.148C665.51 48.308 661.37 49.388 657.842 49.388C653.738 49.388 651.686 47.696 651.686 44.312C648.23 47.768 646.07 50.18 645.206 51.548C643.622 54.068 642.974 57.056 643.262 60.512C643.694 65.768 646.466 69.944 651.578 73.04C655.898 75.632 660.902 76.928 666.59 76.928C666.662 72.392 666.95 65.66 667.454 56.732C674.726 53.132 680.774 51.476 685.598 51.764C684.59 59.684 684.086 65.696 684.086 69.8C684.086 74.984 684.662 80.384 685.814 86Z" fill="white"/>
<path d="M748.321 16.34C748.321 21.524 744.541 24.116 736.981 24.116C732.589 24.116 726.793 23.18 719.593 21.308C716.857 20.588 712.537 20.156 706.633 20.012C705.985 23.612 704.977 29.768 703.609 38.48C707.281 38.624 713.005 39.488 720.781 41.072C728.197 42.584 733.921 43.34 737.953 43.34C738.457 44.42 739.069 46.148 739.789 48.524C735.469 50.972 730.033 52.196 723.481 52.196C718.297 52.196 711.565 51.368 703.285 49.712C702.061 51.8 701.449 54.32 701.449 57.272C701.449 62.528 703.177 68.396 706.633 74.876C711.889 74.66 716.821 73.4 721.429 71.096C722.293 70.664 725.965 68.396 732.445 64.292C736.621 61.628 740.473 59.936 744.001 59.216C744.865 60.656 745.297 61.844 745.297 62.78C745.297 64.724 742.525 66.992 736.981 69.584L708.253 83.084C704.077 85.1 700.765 86.108 698.317 86.108C693.349 86.108 689.821 82.868 687.733 76.388C686.437 72.356 685.789 66.488 685.789 58.784C685.789 47.624 686.941 37.4 689.245 28.112C691.981 17.168 695.545 10.796 699.937 8.99601C702.169 8.06002 704.869 7.59202 708.037 7.59202C712.069 7.59202 718.369 8.81602 726.937 11.264C736.729 14.072 743.857 15.764 748.321 16.34Z" fill="white"/>
<path d="M68.6792 256.384C63.7112 259.84 58.4192 261.712 52.8032 262C52.2992 259.624 50.6072 255.88 47.7272 250.768C45.1352 246.16 43.6952 242.344 43.4072 239.32C40.3832 239.824 37.1072 240.976 33.5792 242.776L25.6952 246.772C24.7592 248.212 24.2192 250.336 24.0752 253.144C24.1472 255.448 24.0752 258.616 23.8592 262.648C22.2752 264.376 19.8992 265.492 16.7312 265.996C15.2912 266.212 12.3752 266.32 7.98322 266.32C7.98322 259.12 8.88321 251.776 10.6832 244.288C11.9072 239.464 13.7072 232.192 16.0832 222.472C17.5952 215.92 18.3512 210.052 18.3512 204.868C18.3512 201.34 17.9912 197.344 17.2712 192.88L26.9912 188.452C34.1192 185.284 40.0232 182.944 44.7032 181.432C44.7032 190.072 45.6752 197.884 47.6192 204.868C49.3472 210.916 52.4072 218.152 56.7992 226.576C59.9672 225.568 61.9472 225.064 62.7392 225.064C63.8912 225.064 64.9352 225.352 65.8712 225.928C65.2952 227.008 64.3592 227.908 63.0632 228.628C61.7672 229.348 60.5072 230.032 59.2832 230.68C58.9232 230.896 58.6352 231.076 58.4192 231.22C60.1472 233.884 61.9112 238.06 63.7112 243.748C65.5832 249.724 67.2392 253.936 68.6792 256.384ZM40.5992 232.732C37.3592 224.38 34.8752 216.928 33.1472 210.376C33.1472 213.832 32.3912 218.62 30.8792 224.74C29.2952 231.292 28.3952 236.044 28.1792 238.996C30.8432 237.916 34.9832 235.828 40.5992 232.732Z" fill="white"/>
<path d="M111.633 257.464C106.593 260.344 100.941 261.856 94.6768 262C81.9328 262.288 74.0848 258.256 71.1328 249.904C69.4768 245.224 68.6488 239.68 68.6488 233.272C68.6488 224.848 70.0888 214.624 72.9688 202.6C78.1528 198.496 84.3808 196.444 91.6528 196.444C91.4368 199.828 90.3208 205.156 88.3048 212.428C86.4328 219.268 85.4968 224.596 85.4968 228.412C85.4968 231.148 85.8928 233.848 86.6848 236.512C88.4128 242.272 89.8888 246.232 91.1128 248.392C93.4168 252.424 96.3688 254.26 99.9688 253.9C102.777 253.612 104.757 250.444 105.909 244.396C106.125 243.244 106.629 237.916 107.421 228.412C107.565 226.684 107.637 225.388 107.637 224.524C107.637 221.572 107.025 217.108 105.801 211.132C104.577 205.372 104.001 201.088 104.073 198.28C108.177 196.264 111.633 195.256 114.441 195.256C116.097 195.256 117.393 195.652 118.329 196.444C122.793 206.596 125.025 217.468 125.025 229.06C125.025 235.756 124.161 241.192 122.433 245.368C120.345 250.48 116.745 254.512 111.633 257.464Z" fill="white"/>
<path d="M187.306 265.132C182.122 269.596 177.622 271.828 173.806 271.828C169.63 271.828 167.398 268.804 167.11 262.756C166.966 259.876 166.642 257.752 166.138 256.384C164.194 256.744 160.378 257.86 154.69 259.732C150.082 261.244 146.554 262 144.106 262C140.434 262 137.41 260.56 135.034 257.68C131.29 253.144 128.698 248.32 127.258 243.208C126.178 239.464 125.458 233.92 125.098 226.576C124.378 213.112 128.122 203.968 136.33 199.144C140.938 196.48 146.734 195.004 153.718 194.716C154.51 194.716 155.734 195.148 157.39 196.012C159.118 196.876 160.378 197.308 161.17 197.308C162.826 196.156 166.966 194.716 173.59 192.988C173.806 197.02 174.49 202.528 175.642 209.512L178.018 224.092C177.658 224.956 176.722 225.64 175.21 226.144C173.05 226.864 171.682 227.404 171.106 227.764C175.57 229.06 180.538 229.708 186.01 229.708C186.082 232.3 185.794 236.08 185.146 241.048C184.498 246.016 184.174 249.688 184.174 252.064C184.174 256.816 185.218 261.172 187.306 265.132ZM159.01 227.224C158.218 215.992 153.754 208.72 145.618 205.408C143.458 213.688 142.522 221.788 142.81 229.708C146.986 228.052 152.386 227.224 159.01 227.224ZM160.198 237.808C158.398 237.808 155.698 237.592 152.098 237.16C148.57 236.728 145.906 236.512 144.106 236.512C145.33 244.504 149.146 250.408 155.554 254.224C157.786 252.496 159.19 250.012 159.766 246.772C160.054 245.116 160.198 242.128 160.198 237.808Z" fill="white"/>
<path d="M230.327 257.464C225.287 260.344 219.635 261.856 213.371 262C200.627 262.288 192.779 258.256 189.827 249.904C188.171 245.224 187.343 239.68 187.343 233.272C187.343 224.848 188.783 214.624 191.663 202.6C196.847 198.496 203.075 196.444 210.347 196.444C210.131 199.828 209.015 205.156 206.999 212.428C205.127 219.268 204.191 224.596 204.191 228.412C204.191 231.148 204.587 233.848 205.379 236.512C207.107 242.272 208.583 246.232 209.807 248.392C212.111 252.424 215.063 254.26 218.663 253.9C221.471 253.612 223.451 250.444 224.603 244.396C224.819 243.244 225.323 237.916 226.115 228.412C226.259 226.684 226.331 225.388 226.331 224.524C226.331 221.572 225.719 217.108 224.495 211.132C223.271 205.372 222.695 201.088 222.767 198.28C226.871 196.264 230.327 195.256 233.135 195.256C234.791 195.256 236.087 195.652 237.023 196.444C241.487 206.596 243.719 217.468 243.719 229.06C243.719 235.756 242.855 241.192 241.127 245.368C239.039 250.48 235.439 254.512 230.327 257.464Z" fill="white"/>
<path d="M310.321 183.916C310.465 185.068 310.537 186.22 310.537 187.372C310.537 191.116 309.565 196.624 307.621 203.896C305.749 211.168 304.813 216.712 304.813 220.528C302.221 220.744 298.153 221.5 292.609 222.796C297.433 228.268 299.845 233.632 299.845 238.888C299.845 244.648 297.181 249.724 291.853 254.116C287.389 257.86 282.061 260.38 275.869 261.676C274.861 261.892 273.709 262 272.413 262C268.309 262 264.709 260.74 261.613 258.22C258.301 255.556 256.393 252.244 255.889 248.284C255.673 246.628 255.565 245.296 255.565 244.288C255.565 240.976 256.753 238.672 259.129 237.376C260.713 236.512 264.817 235.324 271.441 233.812C270.289 236.044 269.713 238.384 269.713 240.832C269.713 246.592 272.521 251.668 278.137 256.06C283.321 249.508 285.913 244.252 285.913 240.292C285.913 238.42 285.553 236.656 284.833 235C280.945 226 272.053 221.5 258.157 221.5C256.429 221.5 254.557 221.536 252.541 221.608C252.181 219.88 251.065 214.732 249.193 206.164C247.969 200.548 246.133 195.724 243.685 191.692C246.781 189.388 250.273 187.984 254.161 187.48C256.681 187.12 260.497 187.084 265.609 187.372C270.721 187.588 274.537 187.516 277.057 187.156C284.905 186.148 290.413 185.464 293.581 185.104C298.621 184.528 304.201 184.132 310.321 183.916ZM288.937 220.528C288.793 212.176 288.577 207.028 288.289 205.084C287.137 198.028 284.365 194.5 279.973 194.5C278.605 194.5 277.237 194.644 275.869 194.932C273.637 195.436 271.837 196.732 270.469 198.82C269.101 200.836 268.417 203.032 268.417 205.408C268.417 206.56 268.597 207.712 268.957 208.864C269.965 211.96 272.809 214.264 277.489 215.776C283.681 217.792 287.497 219.376 288.937 220.528ZM264.205 192.772L258.697 193.312L258.913 196.336L264.205 192.772Z" fill="white"/>
<path d="M377.749 186.184C374.941 189.208 370.873 191.26 365.545 192.34C358.489 193.78 353.845 195.04 351.613 196.12C348.949 197.416 347.617 199.396 347.617 202.06C347.617 204.364 348.661 207.784 350.749 212.32C353.269 217.864 354.781 221.572 355.285 223.444C356.149 226.612 358.525 231.508 362.413 238.132C365.797 243.82 367.489 248.212 367.489 251.308C367.489 254.548 366.409 257.248 364.249 259.408C362.161 261.496 359.461 262.54 356.149 262.54C355.069 262.54 353.485 262.432 351.397 262.216C349.309 262.072 347.725 262 346.645 262C346.069 259.48 345.241 254.224 344.161 246.232C343.369 240.4 342.109 235.288 340.381 230.896C340.021 230.032 338.041 226.108 334.441 219.124C332.137 214.66 330.985 210.988 330.985 208.108C330.985 205.66 331.633 203.32 332.929 201.088C330.769 201.088 327.637 201.556 323.533 202.492C319.501 203.428 316.477 203.896 314.461 203.896C313.165 203.896 311.869 203.788 310.573 203.572C316.189 197.956 322.633 193.96 329.905 191.584C334.369 190.144 341.497 188.848 351.289 187.696C361.657 186.472 369.649 185.14 375.265 183.7L377.749 186.184Z" fill="white"/>
<path d="M470.031 181.972C470.463 184.708 470.679 187.408 470.679 190.072C470.679 193.168 470.211 197.776 469.275 203.896C468.411 209.944 467.979 214.516 467.979 217.612C467.979 222.796 469.311 230.068 471.975 239.428C474.495 239.284 478.455 238.384 483.855 236.728C489.039 235.144 492.963 234.352 495.627 234.352C499.155 234.352 502.071 235.504 504.375 237.808C501.495 239.968 496.383 241.372 489.039 242.02C482.199 242.596 477.051 243.532 473.595 244.828C469.923 246.124 465.459 248.68 460.203 252.496C455.811 255.736 452.679 257.824 450.807 258.76C447.135 260.632 442.959 261.712 438.279 262C441.735 257.176 448.107 252.1 457.395 246.772C455.019 239.212 453.831 230.356 453.831 220.204C453.831 214.948 454.155 209.404 454.803 203.572C451.923 206.02 448.755 208.072 445.299 209.728C442.779 210.952 439.179 212.284 434.499 213.724C436.083 211.78 438.567 209.368 441.951 206.488C445.623 203.392 448.143 201.052 449.511 199.468C452.103 196.516 454.191 193.024 455.775 188.992C457.935 187.264 462.687 184.924 470.031 181.972Z" fill="white"/>
<path d="M583.913 187.588C581.177 192.916 576.533 197.992 569.981 202.816C560.621 209.728 554.825 214.3 552.593 216.532C554.609 217.828 558.497 219.88 564.257 222.688C569.369 225.136 572.897 227.152 574.841 228.736C577.937 231.256 579.485 234.1 579.485 237.268C579.485 238.348 579.305 239.5 578.945 240.724C577.001 247.204 573.221 252.28 567.605 255.952C562.349 259.336 556.193 261.1 549.137 261.244C547.553 261.316 544.781 261.46 540.821 261.676C537.365 261.964 534.629 262.108 532.613 262.108C523.325 262.108 516.701 259.336 512.741 253.792C510.797 251.056 509.825 248.032 509.825 244.72C509.825 236.656 515.261 227.584 526.133 217.504C521.741 214.264 519.041 212.14 518.033 211.132C515.801 208.828 514.685 206.2 514.685 203.248C514.685 202.456 514.793 201.484 515.009 200.332C515.873 195.652 518.321 191.296 522.353 187.264C526.385 183.232 530.777 180.748 535.529 179.812C537.329 179.452 539.273 179.272 541.361 179.272C550.145 179.272 557.813 181.756 564.365 186.724C568.253 184.492 571.997 183.376 575.597 183.376C579.629 183.376 582.401 184.78 583.913 187.588ZM541.145 187.48C537.401 187.48 534.917 189.388 533.693 193.204C533.189 194.716 532.937 196.264 532.937 197.848C532.937 199.864 533.333 201.916 534.125 204.004C535.565 207.82 537.689 209.8 540.497 209.944C546.401 208.216 549.353 204.112 549.353 197.632C549.353 195.112 548.777 192.88 547.625 190.936C546.185 188.632 544.025 187.48 541.145 187.48ZM561.557 237.916C559.973 234.028 557.093 230.896 552.917 228.52C550.397 227.08 545.933 225.352 539.525 223.336C536.933 226.432 534.341 229.492 531.749 232.516C528.869 236.476 527.321 240.04 527.105 243.208C526.817 247.096 528.653 250.192 532.613 252.496C535.925 254.296 539.669 255.196 543.845 255.196C548.093 255.196 552.125 253.972 555.941 251.524C560.189 248.788 562.313 245.404 562.313 241.372C562.313 240.292 562.061 239.14 561.557 237.916Z" fill="white"/>
<path d="M647.605 237.268V228.844H673.741V237.268H647.605Z" fill="white"/>
<path d="M774.015 242.02C795.615 239.428 810.014 238.132 817.214 238.132C817.574 239.14 818.006 240.832 818.51 243.208C805.694 243.208 797.918 243.316 795.182 243.532C787.622 244.108 780.135 245.728 772.719 248.392C769.911 249.4 765.266 252.244 758.786 256.924C753.386 260.812 748.922 262.756 745.394 262.756C743.954 262.756 742.478 262.504 740.966 262C744.206 257.824 749.751 251.704 757.599 243.64C765.231 235.864 770.738 229.672 774.122 225.064C779.81 217.432 784.022 209.512 786.758 201.304C787.046 200.44 787.19 199.612 787.19 198.82C787.19 196.516 786.399 194.536 784.815 192.88C783.231 191.224 781.323 190.396 779.091 190.396C774.915 190.396 769.335 193.348 762.351 199.252C759.039 202.06 755.331 205.12 751.227 208.432C746.835 211.312 742.262 212.752 737.51 212.752C743.702 203.464 751.371 196.228 760.515 191.044C769.731 185.86 779.811 183.268 790.755 183.268C792.483 183.268 794.535 183.376 796.911 183.592C801.879 184.024 804.362 187.768 804.362 194.824C804.362 199.792 803.138 204.076 800.69 207.676C797.738 211.996 793.203 217.648 787.083 224.632C781.395 231.112 777.039 236.908 774.015 242.02Z" fill="white"/>
<path d="M897.243 215.02C896.307 226.684 893.535 236.404 888.927 244.18C883.311 253.612 875.319 259.228 864.951 261.028C861.206 261.676 857.463 262 853.719 262C844.431 262 837.159 259.624 831.903 254.872C826.359 249.832 823.695 242.74 823.911 233.596C824.199 222.22 826.863 212.5 831.903 204.436C837.591 195.22 845.691 189.604 856.203 187.588C858.507 187.156 860.847 186.94 863.223 186.94C872.007 186.94 879.819 189.352 886.659 194.176C894.363 199.576 897.891 206.524 897.243 215.02ZM881.367 217.18C881.655 215.668 881.799 214.408 881.799 213.4C881.799 209.584 880.755 205.552 878.667 201.304C876.219 196.192 873.303 193.6 869.919 193.528C862.359 193.312 855.663 198.532 849.831 209.188C844.791 218.404 842.271 227.152 842.271 235.432C842.271 246.808 846.915 253.36 856.203 255.088C869.595 247.096 877.983 234.46 881.367 217.18Z" fill="white"/>
<path d="M166.106 86C164.162 86.072 162.326 86.108 160.598 86.108C154.046 86.108 148.358 85.352 143.534 83.84C140.294 82.832 135.506 81.392 129.17 79.52C124.922 78.368 119.738 76.82 113.618 74.876C108.29 72.5 105.626 69.404 105.626 65.588C105.626 64.58 105.77 63.608 106.058 62.672C109.802 50.648 115.346 39.92 122.69 30.488C131.69 18.968 141.086 13.208 150.878 13.208C151.022 14.72 151.094 16.268 151.094 17.852C151.094 19.58 150.77 24.26 150.122 31.892C149.618 37.508 149.762 42.26 150.554 46.148C145.802 48.308 141.662 49.388 138.134 49.388C134.03 49.388 131.978 47.696 131.978 44.312C128.522 47.768 126.362 50.18 125.498 51.548C123.914 54.068 123.266 57.056 123.554 60.512C123.986 65.768 126.758 69.944 131.87 73.04C136.19 75.632 141.194 76.928 146.882 76.928C146.954 72.392 147.242 65.66 147.746 56.732C155.018 53.132 161.066 51.476 165.89 51.764C164.882 59.684 164.378 65.696 164.378 69.8C164.378 74.984 164.954 80.384 166.106 86Z" stroke="black" stroke-width="14" mask="url(#path-1-outside-1)"/>
<path d="M238.549 53.924C237.757 64.076 232.753 72.032 223.537 77.792C215.977 82.472 206.617 85.208 195.457 86C187.249 85.64 180.265 82.112 174.505 75.416C168.889 68.936 166.081 61.52 166.081 53.168C166.081 50.576 166.441 47.984 167.161 45.392C170.329 33.944 175.477 24.836 182.605 18.068C190.669 10.508 200.281 6.87202 211.441 7.16002C220.873 7.44802 228.037 12.236 232.933 21.524C236.821 29.012 238.765 37.94 238.765 48.308C238.765 50.252 238.693 52.124 238.549 53.924ZM204.961 75.524C205.753 75.668 206.509 75.74 207.229 75.74C212.629 75.74 216.661 72.644 219.325 66.452C221.269 61.916 222.241 56.552 222.241 50.36C222.241 42.8 220.837 35.96 218.029 29.84C214.357 21.704 209.173 18.032 202.477 18.824C195.277 19.616 190.129 23.396 187.033 30.164C184.945 34.628 183.649 41.432 183.145 50.576C182.281 64.76 189.553 73.076 204.961 75.524ZM204.961 42.908C204.529 45.5 202.945 47.768 200.209 49.712C195.529 53.024 193.009 54.86 192.649 55.22C191.929 54.428 191.569 53.492 191.569 52.412C191.569 50.036 193.117 47.732 196.213 45.5C198.733 43.7 201.145 42.8 203.449 42.8C203.953 42.8 204.457 42.836 204.961 42.908Z" stroke="black" stroke-width="14" mask="url(#path-1-outside-1)"/>
<path d="M304.974 14.612C307.206 26.42 308.322 35.168 308.322 40.856C308.322 49.496 306.378 57.992 302.49 66.344C299.826 72.032 296.514 76.604 292.554 80.06C287.874 84.092 282.726 86.108 277.11 86.108C271.926 86.108 267.822 83.984 264.798 79.736C262.206 76.064 261.126 71.996 261.558 67.532C259.11 72.428 256.23 76.352 252.918 79.304C249.246 82.544 245.43 84.164 241.47 84.164C240.534 84.164 239.634 84.056 238.77 83.84C239.346 82.184 242.334 77 247.734 68.288C252.918 59.936 256.086 52.916 257.238 47.228C257.67 45.068 258.462 38.66 259.614 28.004C260.262 22.1 261.666 17.924 263.826 15.476C266.634 12.308 271.746 10.364 279.162 9.64402C278.874 11.66 277.722 18.968 275.706 31.568C274.338 40.064 273.654 46.724 273.654 51.548C273.654 61.844 276.498 69.44 282.186 74.336C282.978 74.552 284.742 71.816 287.478 66.128C290.574 59.72 291.906 54.248 291.474 49.712C290.178 35.24 289.53 27.464 289.53 26.384C289.53 22.136 290.61 19.364 292.77 18.068C293.85 17.42 297.918 16.268 304.974 14.612Z" stroke="black" stroke-width="14" mask="url(#path-1-outside-1)"/>
<path d="M370.719 52.844C368.559 52.628 366.399 52.52 364.239 52.52C360.711 52.52 355.419 52.952 348.363 53.816C341.307 54.68 336.015 55.112 332.487 55.112C332.487 59.216 332.559 64.58 332.703 71.204L332.811 80.816C332.811 83.264 330.975 84.632 327.303 84.92C321.543 85.352 318.267 85.712 317.475 86C315.963 80.456 315.063 73.58 314.775 65.372C314.343 52.988 314.055 46.148 313.911 44.852C313.047 37.076 311.175 29.984 308.295 23.576C318.735 18.176 330.255 15.476 342.855 15.476C355.167 15.476 364.455 18.068 370.719 23.252C365.463 25.196 360.999 26.168 357.327 26.168C355.311 26.168 352.683 25.592 349.443 24.44C346.203 23.216 343.827 22.604 342.315 22.604C341.523 22.604 340.479 22.748 339.183 23.036C335.655 23.828 333.891 26.636 333.891 31.46C333.891 32.396 333.999 34.232 334.215 36.968C334.359 39.272 334.395 41.108 334.323 42.476C334.179 44.348 333.783 46.004 333.135 47.444C336.447 48.38 339.759 48.848 343.071 48.848C346.095 48.848 350.667 48.308 356.787 47.228C362.907 46.148 367.551 45.608 370.719 45.608V52.844Z" stroke="black" stroke-width="14" mask="url(#path-1-outside-1)"/>
<path d="M433.286 16.34C433.286 21.524 429.505 24.116 421.945 24.116C417.553 24.116 411.757 23.18 404.557 21.308C401.821 20.588 397.502 20.156 391.598 20.012C390.95 23.612 389.942 29.768 388.574 38.48C392.246 38.624 397.97 39.488 405.746 41.072C413.162 42.584 418.886 43.34 422.918 43.34C423.422 44.42 424.034 46.148 424.754 48.524C420.434 50.972 414.997 52.196 408.445 52.196C403.261 52.196 396.53 51.368 388.25 49.712C387.026 51.8 386.414 54.32 386.414 57.272C386.414 62.528 388.142 68.396 391.598 74.876C396.854 74.66 401.785 73.4 406.393 71.096C407.257 70.664 410.93 68.396 417.41 64.292C421.586 61.628 425.438 59.936 428.966 59.216C429.83 60.656 430.262 61.844 430.262 62.78C430.262 64.724 427.489 66.992 421.945 69.584L393.218 83.084C389.042 85.1 385.73 86.108 383.282 86.108C378.314 86.108 374.786 82.868 372.698 76.388C371.402 72.356 370.754 66.488 370.754 58.784C370.754 47.624 371.906 37.4 374.21 28.112C376.946 17.168 380.51 10.796 384.902 8.99601C387.134 8.06002 389.834 7.59202 393.002 7.59202C397.034 7.59202 403.334 8.81602 411.902 11.264C421.694 14.072 428.822 15.764 433.286 16.34Z" stroke="black" stroke-width="14" mask="url(#path-1-outside-1)"/>
<path d="M493.258 48.2C490.306 52.592 488.11 58.676 486.67 66.452C485.518 72.644 485.05 78.224 485.266 83.192C483.25 85.424 480.19 86.54 476.086 86.54C474.502 86.54 472.45 86.36 469.93 86C469.93 76.712 471.442 66.344 474.466 54.896C471.586 53.384 468.706 52.412 465.826 51.98C463.954 51.692 460.894 51.548 456.646 51.548C456.43 52.988 456.322 54.392 456.322 55.76C456.322 62.528 459.778 70.016 466.69 78.224C463.306 80.456 460.822 81.968 459.238 82.76C456.646 83.984 453.946 84.704 451.138 84.92C450.346 82.04 448.15 75.776 444.55 66.128C441.742 58.784 440.05 51.332 439.474 43.772C439.114 39.092 439.114 31.424 439.474 20.768C436.666 19.544 435.226 18.896 435.154 18.824C434.074 18.104 433.462 16.808 433.318 14.936C437.35 11.624 440.986 9.96801 444.226 9.96801C446.314 9.96801 449.698 10.976 454.378 12.992C460.282 15.512 465.466 17.276 469.93 18.284C480.514 20.588 485.806 24.008 485.806 28.544C485.806 32.72 483.25 35.996 478.138 38.372C474.25 40.244 470.434 42.044 466.69 43.772C469.57 44.636 473.998 45.392 479.974 46.04C485.95 46.616 490.378 47.336 493.258 48.2ZM463.882 28.328C462.226 27.968 459.706 27.464 456.322 26.816V40.208C464.602 39.128 468.742 36.932 468.742 33.62C468.742 30.884 467.122 29.12 463.882 28.328Z" stroke="black" stroke-width="14" mask="url(#path-1-outside-1)"/>
<path d="M555.777 16.34C555.777 21.524 551.997 24.116 544.437 24.116C540.045 24.116 534.249 23.18 527.049 21.308C524.313 20.588 519.993 20.156 514.089 20.012C513.441 23.612 512.433 29.768 511.065 38.48C514.737 38.624 520.461 39.488 528.237 41.072C535.653 42.584 541.377 43.34 545.409 43.34C545.913 44.42 546.525 46.148 547.245 48.524C542.925 50.972 537.489 52.196 530.937 52.196C525.753 52.196 519.021 51.368 510.741 49.712C509.517 51.8 508.905 54.32 508.905 57.272C508.905 62.528 510.633 68.396 514.089 74.876C519.345 74.66 524.277 73.4 528.885 71.096C529.749 70.664 533.421 68.396 539.901 64.292C544.077 61.628 547.929 59.936 551.457 59.216C552.321 60.656 552.753 61.844 552.753 62.78C552.753 64.724 549.981 66.992 544.437 69.584L515.709 83.084C511.533 85.1 508.221 86.108 505.773 86.108C500.805 86.108 497.277 82.868 495.189 76.388C493.893 72.356 493.245 66.488 493.245 58.784C493.245 47.624 494.397 37.4 496.701 28.112C499.437 17.168 503.001 10.796 507.393 8.99601C509.625 8.06002 512.325 7.59202 515.493 7.59202C519.525 7.59202 525.825 8.81602 534.393 11.264C544.185 14.072 551.313 15.764 555.777 16.34Z" stroke="black" stroke-width="14" mask="url(#path-1-outside-1)"/>
<path d="M622.013 14.612C624.245 26.42 625.361 35.168 625.361 40.856C625.361 49.496 623.417 57.992 619.529 66.344C616.865 72.032 613.553 76.604 609.593 80.06C604.913 84.092 599.765 86.108 594.149 86.108C588.965 86.108 584.861 83.984 581.837 79.736C579.245 76.064 578.165 71.996 578.597 67.532C576.149 72.428 573.269 76.352 569.957 79.304C566.285 82.544 562.469 84.164 558.509 84.164C557.573 84.164 556.673 84.056 555.809 83.84C556.385 82.184 559.373 77 564.773 68.288C569.957 59.936 573.125 52.916 574.277 47.228C574.709 45.068 575.501 38.66 576.653 28.004C577.301 22.1 578.705 17.924 580.865 15.476C583.673 12.308 588.785 10.364 596.201 9.64402C595.913 11.66 594.761 18.968 592.745 31.568C591.377 40.064 590.693 46.724 590.693 51.548C590.693 61.844 593.537 69.44 599.225 74.336C600.017 74.552 601.781 71.816 604.517 66.128C607.613 59.72 608.945 54.248 608.513 49.712C607.217 35.24 606.569 27.464 606.569 26.384C606.569 22.136 607.649 19.364 609.809 18.068C610.889 17.42 614.957 16.268 622.013 14.612Z" stroke="black" stroke-width="14" mask="url(#path-1-outside-1)"/>
<path d="M685.814 86C683.87 86.072 682.034 86.108 680.306 86.108C673.754 86.108 668.066 85.352 663.242 83.84C660.002 82.832 655.214 81.392 648.878 79.52C644.63 78.368 639.446 76.82 633.326 74.876C627.998 72.5 625.334 69.404 625.334 65.588C625.334 64.58 625.478 63.608 625.766 62.672C629.51 50.648 635.054 39.92 642.398 30.488C651.398 18.968 660.794 13.208 670.586 13.208C670.73 14.72 670.802 16.268 670.802 17.852C670.802 19.58 670.478 24.26 669.83 31.892C669.326 37.508 669.47 42.26 670.262 46.148C665.51 48.308 661.37 49.388 657.842 49.388C653.738 49.388 651.686 47.696 651.686 44.312C648.23 47.768 646.07 50.18 645.206 51.548C643.622 54.068 642.974 57.056 643.262 60.512C643.694 65.768 646.466 69.944 651.578 73.04C655.898 75.632 660.902 76.928 666.59 76.928C666.662 72.392 666.95 65.66 667.454 56.732C674.726 53.132 680.774 51.476 685.598 51.764C684.59 59.684 684.086 65.696 684.086 69.8C684.086 74.984 684.662 80.384 685.814 86Z" stroke="black" stroke-width="14" mask="url(#path-1-outside-1)"/>
<path d="M748.321 16.34C748.321 21.524 744.541 24.116 736.981 24.116C732.589 24.116 726.793 23.18 719.593 21.308C716.857 20.588 712.537 20.156 706.633 20.012C705.985 23.612 704.977 29.768 703.609 38.48C707.281 38.624 713.005 39.488 720.781 41.072C728.197 42.584 733.921 43.34 737.953 43.34C738.457 44.42 739.069 46.148 739.789 48.524C735.469 50.972 730.033 52.196 723.481 52.196C718.297 52.196 711.565 51.368 703.285 49.712C702.061 51.8 701.449 54.32 701.449 57.272C701.449 62.528 703.177 68.396 706.633 74.876C711.889 74.66 716.821 73.4 721.429 71.096C722.293 70.664 725.965 68.396 732.445 64.292C736.621 61.628 740.473 59.936 744.001 59.216C744.865 60.656 745.297 61.844 745.297 62.78C745.297 64.724 742.525 66.992 736.981 69.584L708.253 83.084C704.077 85.1 700.765 86.108 698.317 86.108C693.349 86.108 689.821 82.868 687.733 76.388C686.437 72.356 685.789 66.488 685.789 58.784C685.789 47.624 686.941 37.4 689.245 28.112C691.981 17.168 695.545 10.796 699.937 8.99601C702.169 8.06002 704.869 7.59202 708.037 7.59202C712.069 7.59202 718.369 8.81602 726.937 11.264C736.729 14.072 743.857 15.764 748.321 16.34Z" stroke="black" stroke-width="14" mask="url(#path-1-outside-1)"/>
<path d="M68.6792 256.384C63.7112 259.84 58.4192 261.712 52.8032 262C52.2992 259.624 50.6072 255.88 47.7272 250.768C45.1352 246.16 43.6952 242.344 43.4072 239.32C40.3832 239.824 37.1072 240.976 33.5792 242.776L25.6952 246.772C24.7592 248.212 24.2192 250.336 24.0752 253.144C24.1472 255.448 24.0752 258.616 23.8592 262.648C22.2752 264.376 19.8992 265.492 16.7312 265.996C15.2912 266.212 12.3752 266.32 7.98322 266.32C7.98322 259.12 8.88321 251.776 10.6832 244.288C11.9072 239.464 13.7072 232.192 16.0832 222.472C17.5952 215.92 18.3512 210.052 18.3512 204.868C18.3512 201.34 17.9912 197.344 17.2712 192.88L26.9912 188.452C34.1192 185.284 40.0232 182.944 44.7032 181.432C44.7032 190.072 45.6752 197.884 47.6192 204.868C49.3472 210.916 52.4072 218.152 56.7992 226.576C59.9672 225.568 61.9472 225.064 62.7392 225.064C63.8912 225.064 64.9352 225.352 65.8712 225.928C65.2952 227.008 64.3592 227.908 63.0632 228.628C61.7672 229.348 60.5072 230.032 59.2832 230.68C58.9232 230.896 58.6352 231.076 58.4192 231.22C60.1472 233.884 61.9112 238.06 63.7112 243.748C65.5832 249.724 67.2392 253.936 68.6792 256.384ZM40.5992 232.732C37.3592 224.38 34.8752 216.928 33.1472 210.376C33.1472 213.832 32.3912 218.62 30.8792 224.74C29.2952 231.292 28.3952 236.044 28.1792 238.996C30.8432 237.916 34.9832 235.828 40.5992 232.732Z" stroke="black" stroke-width="14" mask="url(#path-1-outside-1)"/>
<path d="M111.633 257.464C106.593 260.344 100.941 261.856 94.6768 262C81.9328 262.288 74.0848 258.256 71.1328 249.904C69.4768 245.224 68.6488 239.68 68.6488 233.272C68.6488 224.848 70.0888 214.624 72.9688 202.6C78.1528 198.496 84.3808 196.444 91.6528 196.444C91.4368 199.828 90.3208 205.156 88.3048 212.428C86.4328 219.268 85.4968 224.596 85.4968 228.412C85.4968 231.148 85.8928 233.848 86.6848 236.512C88.4128 242.272 89.8888 246.232 91.1128 248.392C93.4168 252.424 96.3688 254.26 99.9688 253.9C102.777 253.612 104.757 250.444 105.909 244.396C106.125 243.244 106.629 237.916 107.421 228.412C107.565 226.684 107.637 225.388 107.637 224.524C107.637 221.572 107.025 217.108 105.801 211.132C104.577 205.372 104.001 201.088 104.073 198.28C108.177 196.264 111.633 195.256 114.441 195.256C116.097 195.256 117.393 195.652 118.329 196.444C122.793 206.596 125.025 217.468 125.025 229.06C125.025 235.756 124.161 241.192 122.433 245.368C120.345 250.48 116.745 254.512 111.633 257.464Z" stroke="black" stroke-width="14" mask="url(#path-1-outside-1)"/>
<path d="M187.306 265.132C182.122 269.596 177.622 271.828 173.806 271.828C169.63 271.828 167.398 268.804 167.11 262.756C166.966 259.876 166.642 257.752 166.138 256.384C164.194 256.744 160.378 257.86 154.69 259.732C150.082 261.244 146.554 262 144.106 262C140.434 262 137.41 260.56 135.034 257.68C131.29 253.144 128.698 248.32 127.258 243.208C126.178 239.464 125.458 233.92 125.098 226.576C124.378 213.112 128.122 203.968 136.33 199.144C140.938 196.48 146.734 195.004 153.718 194.716C154.51 194.716 155.734 195.148 157.39 196.012C159.118 196.876 160.378 197.308 161.17 197.308C162.826 196.156 166.966 194.716 173.59 192.988C173.806 197.02 174.49 202.528 175.642 209.512L178.018 224.092C177.658 224.956 176.722 225.64 175.21 226.144C173.05 226.864 171.682 227.404 171.106 227.764C175.57 229.06 180.538 229.708 186.01 229.708C186.082 232.3 185.794 236.08 185.146 241.048C184.498 246.016 184.174 249.688 184.174 252.064C184.174 256.816 185.218 261.172 187.306 265.132ZM159.01 227.224C158.218 215.992 153.754 208.72 145.618 205.408C143.458 213.688 142.522 221.788 142.81 229.708C146.986 228.052 152.386 227.224 159.01 227.224ZM160.198 237.808C158.398 237.808 155.698 237.592 152.098 237.16C148.57 236.728 145.906 236.512 144.106 236.512C145.33 244.504 149.146 250.408 155.554 254.224C157.786 252.496 159.19 250.012 159.766 246.772C160.054 245.116 160.198 242.128 160.198 237.808Z" stroke="black" stroke-width="14" mask="url(#path-1-outside-1)"/>
<path d="M230.327 257.464C225.287 260.344 219.635 261.856 213.371 262C200.627 262.288 192.779 258.256 189.827 249.904C188.171 245.224 187.343 239.68 187.343 233.272C187.343 224.848 188.783 214.624 191.663 202.6C196.847 198.496 203.075 196.444 210.347 196.444C210.131 199.828 209.015 205.156 206.999 212.428C205.127 219.268 204.191 224.596 204.191 228.412C204.191 231.148 204.587 233.848 205.379 236.512C207.107 242.272 208.583 246.232 209.807 248.392C212.111 252.424 215.063 254.26 218.663 253.9C221.471 253.612 223.451 250.444 224.603 244.396C224.819 243.244 225.323 237.916 226.115 228.412C226.259 226.684 226.331 225.388 226.331 224.524C226.331 221.572 225.719 217.108 224.495 211.132C223.271 205.372 222.695 201.088 222.767 198.28C226.871 196.264 230.327 195.256 233.135 195.256C234.791 195.256 236.087 195.652 237.023 196.444C241.487 206.596 243.719 217.468 243.719 229.06C243.719 235.756 242.855 241.192 241.127 245.368C239.039 250.48 235.439 254.512 230.327 257.464Z" stroke="black" stroke-width="14" mask="url(#path-1-outside-1)"/>
<path d="M310.321 183.916C310.465 185.068 310.537 186.22 310.537 187.372C310.537 191.116 309.565 196.624 307.621 203.896C305.749 211.168 304.813 216.712 304.813 220.528C302.221 220.744 298.153 221.5 292.609 222.796C297.433 228.268 299.845 233.632 299.845 238.888C299.845 244.648 297.181 249.724 291.853 254.116C287.389 257.86 282.061 260.38 275.869 261.676C274.861 261.892 273.709 262 272.413 262C268.309 262 264.709 260.74 261.613 258.22C258.301 255.556 256.393 252.244 255.889 248.284C255.673 246.628 255.565 245.296 255.565 244.288C255.565 240.976 256.753 238.672 259.129 237.376C260.713 236.512 264.817 235.324 271.441 233.812C270.289 236.044 269.713 238.384 269.713 240.832C269.713 246.592 272.521 251.668 278.137 256.06C283.321 249.508 285.913 244.252 285.913 240.292C285.913 238.42 285.553 236.656 284.833 235C280.945 226 272.053 221.5 258.157 221.5C256.429 221.5 254.557 221.536 252.541 221.608C252.181 219.88 251.065 214.732 249.193 206.164C247.969 200.548 246.133 195.724 243.685 191.692C246.781 189.388 250.273 187.984 254.161 187.48C256.681 187.12 260.497 187.084 265.609 187.372C270.721 187.588 274.537 187.516 277.057 187.156C284.905 186.148 290.413 185.464 293.581 185.104C298.621 184.528 304.201 184.132 310.321 183.916ZM288.937 220.528C288.793 212.176 288.577 207.028 288.289 205.084C287.137 198.028 284.365 194.5 279.973 194.5C278.605 194.5 277.237 194.644 275.869 194.932C273.637 195.436 271.837 196.732 270.469 198.82C269.101 200.836 268.417 203.032 268.417 205.408C268.417 206.56 268.597 207.712 268.957 208.864C269.965 211.96 272.809 214.264 277.489 215.776C283.681 217.792 287.497 219.376 288.937 220.528ZM264.205 192.772L258.697 193.312L258.913 196.336L264.205 192.772Z" stroke="black" stroke-width="14" mask="url(#path-1-outside-1)"/>
<path d="M377.749 186.184C374.941 189.208 370.873 191.26 365.545 192.34C358.489 193.78 353.845 195.04 351.613 196.12C348.949 197.416 347.617 199.396 347.617 202.06C347.617 204.364 348.661 207.784 350.749 212.32C353.269 217.864 354.781 221.572 355.285 223.444C356.149 226.612 358.525 231.508 362.413 238.132C365.797 243.82 367.489 248.212 367.489 251.308C367.489 254.548 366.409 257.248 364.249 259.408C362.161 261.496 359.461 262.54 356.149 262.54C355.069 262.54 353.485 262.432 351.397 262.216C349.309 262.072 347.725 262 346.645 262C346.069 259.48 345.241 254.224 344.161 246.232C343.369 240.4 342.109 235.288 340.381 230.896C340.021 230.032 338.041 226.108 334.441 219.124C332.137 214.66 330.985 210.988 330.985 208.108C330.985 205.66 331.633 203.32 332.929 201.088C330.769 201.088 327.637 201.556 323.533 202.492C319.501 203.428 316.477 203.896 314.461 203.896C313.165 203.896 311.869 203.788 310.573 203.572C316.189 197.956 322.633 193.96 329.905 191.584C334.369 190.144 341.497 188.848 351.289 187.696C361.657 186.472 369.649 185.14 375.265 183.7L377.749 186.184Z" stroke="black" stroke-width="14" mask="url(#path-1-outside-1)"/>
<path d="M470.031 181.972C470.463 184.708 470.679 187.408 470.679 190.072C470.679 193.168 470.211 197.776 469.275 203.896C468.411 209.944 467.979 214.516 467.979 217.612C467.979 222.796 469.311 230.068 471.975 239.428C474.495 239.284 478.455 238.384 483.855 236.728C489.039 235.144 492.963 234.352 495.627 234.352C499.155 234.352 502.071 235.504 504.375 237.808C501.495 239.968 496.383 241.372 489.039 242.02C482.199 242.596 477.051 243.532 473.595 244.828C469.923 246.124 465.459 248.68 460.203 252.496C455.811 255.736 452.679 257.824 450.807 258.76C447.135 260.632 442.959 261.712 438.279 262C441.735 257.176 448.107 252.1 457.395 246.772C455.019 239.212 453.831 230.356 453.831 220.204C453.831 214.948 454.155 209.404 454.803 203.572C451.923 206.02 448.755 208.072 445.299 209.728C442.779 210.952 439.179 212.284 434.499 213.724C436.083 211.78 438.567 209.368 441.951 206.488C445.623 203.392 448.143 201.052 449.511 199.468C452.103 196.516 454.191 193.024 455.775 188.992C457.935 187.264 462.687 184.924 470.031 181.972Z" stroke="black" stroke-width="14" mask="url(#path-1-outside-1)"/>
<path d="M583.913 187.588C581.177 192.916 576.533 197.992 569.981 202.816C560.621 209.728 554.825 214.3 552.593 216.532C554.609 217.828 558.497 219.88 564.257 222.688C569.369 225.136 572.897 227.152 574.841 228.736C577.937 231.256 579.485 234.1 579.485 237.268C579.485 238.348 579.305 239.5 578.945 240.724C577.001 247.204 573.221 252.28 567.605 255.952C562.349 259.336 556.193 261.1 549.137 261.244C547.553 261.316 544.781 261.46 540.821 261.676C537.365 261.964 534.629 262.108 532.613 262.108C523.325 262.108 516.701 259.336 512.741 253.792C510.797 251.056 509.825 248.032 509.825 244.72C509.825 236.656 515.261 227.584 526.133 217.504C521.741 214.264 519.041 212.14 518.033 211.132C515.801 208.828 514.685 206.2 514.685 203.248C514.685 202.456 514.793 201.484 515.009 200.332C515.873 195.652 518.321 191.296 522.353 187.264C526.385 183.232 530.777 180.748 535.529 179.812C537.329 179.452 539.273 179.272 541.361 179.272C550.145 179.272 557.813 181.756 564.365 186.724C568.253 184.492 571.997 183.376 575.597 183.376C579.629 183.376 582.401 184.78 583.913 187.588ZM541.145 187.48C537.401 187.48 534.917 189.388 533.693 193.204C533.189 194.716 532.937 196.264 532.937 197.848C532.937 199.864 533.333 201.916 534.125 204.004C535.565 207.82 537.689 209.8 540.497 209.944C546.401 208.216 549.353 204.112 549.353 197.632C549.353 195.112 548.777 192.88 547.625 190.936C546.185 188.632 544.025 187.48 541.145 187.48ZM561.557 237.916C559.973 234.028 557.093 230.896 552.917 228.52C550.397 227.08 545.933 225.352 539.525 223.336C536.933 226.432 534.341 229.492 531.749 232.516C528.869 236.476 527.321 240.04 527.105 243.208C526.817 247.096 528.653 250.192 532.613 252.496C535.925 254.296 539.669 255.196 543.845 255.196C548.093 255.196 552.125 253.972 555.941 251.524C560.189 248.788 562.313 245.404 562.313 241.372C562.313 240.292 562.061 239.14 561.557 237.916Z" stroke="black" stroke-width="14" mask="url(#path-1-outside-1)"/>
<path d="M647.605 237.268V228.844H673.741V237.268H647.605Z" stroke="black" stroke-width="14" mask="url(#path-1-outside-1)"/>
<path d="M774.015 242.02C795.615 239.428 810.014 238.132 817.214 238.132C817.574 239.14 818.006 240.832 818.51 243.208C805.694 243.208 797.918 243.316 795.182 243.532C787.622 244.108 780.135 245.728 772.719 248.392C769.911 249.4 765.266 252.244 758.786 256.924C753.386 260.812 748.922 262.756 745.394 262.756C743.954 262.756 742.478 262.504 740.966 262C744.206 257.824 749.751 251.704 757.599 243.64C765.231 235.864 770.738 229.672 774.122 225.064C779.81 217.432 784.022 209.512 786.758 201.304C787.046 200.44 787.19 199.612 787.19 198.82C787.19 196.516 786.399 194.536 784.815 192.88C783.231 191.224 781.323 190.396 779.091 190.396C774.915 190.396 769.335 193.348 762.351 199.252C759.039 202.06 755.331 205.12 751.227 208.432C746.835 211.312 742.262 212.752 737.51 212.752C743.702 203.464 751.371 196.228 760.515 191.044C769.731 185.86 779.811 183.268 790.755 183.268C792.483 183.268 794.535 183.376 796.911 183.592C801.879 184.024 804.362 187.768 804.362 194.824C804.362 199.792 803.138 204.076 800.69 207.676C797.738 211.996 793.203 217.648 787.083 224.632C781.395 231.112 777.039 236.908 774.015 242.02Z" stroke="black" stroke-width="14" mask="url(#path-1-outside-1)"/>
<path d="M897.243 215.02C896.307 226.684 893.535 236.404 888.927 244.18C883.311 253.612 875.319 259.228 864.951 261.028C861.206 261.676 857.463 262 853.719 262C844.431 262 837.159 259.624 831.903 254.872C826.359 249.832 823.695 242.74 823.911 233.596C824.199 222.22 826.863 212.5 831.903 204.436C837.591 195.22 845.691 189.604 856.203 187.588C858.507 187.156 860.847 186.94 863.223 186.94C872.007 186.94 879.819 189.352 886.659 194.176C894.363 199.576 897.891 206.524 897.243 215.02ZM881.367 217.18C881.655 215.668 881.799 214.408 881.799 213.4C881.799 209.584 880.755 205.552 878.667 201.304C876.219 196.192 873.303 193.6 869.919 193.528C862.359 193.312 855.663 198.532 849.831 209.188C844.791 218.404 842.271 227.152 842.271 235.432C842.271 246.808 846.915 253.36 856.203 255.088C869.595 247.096 877.983 234.46 881.367 217.18Z" stroke="black" stroke-width="14" mask="url(#path-1-outside-1)"/>
</svg>
