<?xml version="1.0" encoding="UTF-8"?>
<svg width="1037px" height="129px" viewBox="0 0 1037 129" version="1.1" xmlns="http://www.w3.org/2000/svg" xmlns:xlink="http://www.w3.org/1999/xlink">
    <title>Slice 1</title>
    <defs>
        <path d="M7.62301423,118.03696 C7.63813362,118.03696 7.653253,118.02352 7.653253,118.006719 L7.653253,114.176318 C10.9393326,116.677838 14.9310117,118.03696 19.1326907,118.03696 C24.2079719,118.03696 28.9791708,116.061279 32.5676509,112.471119 C36.1578101,108.882639 38.1334918,104.11144 38.1334918,99.0361592 L38.1334918,74.4627985 C38.1334918,69.3858383 36.1561285,64.6146393 32.5676484,61.0278383 C28.9774892,57.4376791 24.2062902,55.462 19.1326907,55.462 C12.8041311,55.462 7.65493208,50.3077612 7.65493208,43.9741617 L7.65157136,19.4024827 C7.65157136,13.0722439 12.802452,7.92136328 19.1326907,7.92136328 C25.4612504,7.92136328 30.6104494,13.0722439 30.6104494,19.4024827 C30.6104494,19.4192837 30.6238897,19.432724 30.6406907,19.432724 L38.1032504,19.432724 C38.1200515,19.432724 38.1334918,19.4192837 38.1334918,19.4024827 L38.1334918,0.43024646 C38.1334918,0.413445435 38.1200515,0.4 38.1032504,0.4 L30.6406907,0.4 C30.6238897,0.4 30.6104494,0.413445435 30.6104494,0.43024646 L30.6104494,4.26064697 C27.3243698,1.757448 23.3343698,0.4 19.1326907,0.4 L19.1326959,0.4 C14.0574147,0.4 9.28453413,2.37567908 5.69605403,5.96583826 C2.10757392,9.55431836 0.130213206,14.3255173 0.130213206,19.4007985 L0.130213206,43.9741592 C0.130213206,49.0494403 2.10757392,53.8223209 5.6977331,57.4141617 C9.28621321,61.0060026 14.0574122,62.9833633 19.1326933,62.9833633 C25.461253,62.9833633 30.610452,68.1325623 30.610452,74.462801 L30.6121311,99.0344801 C30.6121311,105.364719 25.4629321,110.515599 19.1326933,110.515599 C12.8041336,110.515599 7.65493464,105.364719 7.65493464,99.0344801 C7.65493464,99.0176791 7.64149433,99.0042388 7.62469331,99.0042388 L0.160454539,99.0042388 C0.143653513,99.0042388 0.130213206,99.0176791 0.130213206,99.0344801 L0.130213206,118.006719 C0.130213206,118.02352 0.143653513,118.03696 0.160454539,118.03696 L7.62301423,118.03696 Z M91.1964174,118.030239 C91.2132184,118.030239 91.2266613,118.016798 91.2266613,117.999997 L91.2266613,99.0277587 C91.2266613,99.0109576 91.2132184,98.9975173 91.1964174,98.9975173 L83.7338577,98.9975173 C83.7170566,98.9975173 83.7036163,99.0109576 83.7036163,99.0277587 L83.7036163,110.507199 L60.7464174,110.507199 L60.7464174,62.6893582 L80.2394572,62.6893582 C80.2562582,62.6893582 80.2696985,62.6759178 80.2696985,62.6591168 L80.2696985,55.4838357 C80.2696985,55.4670347 80.2562582,55.4535944 80.2394572,55.4535944 L60.7464174,55.4535944 L60.7464174,10.6866342 C60.7464174,9.16287292 61.9862582,7.9230321 63.5100194,7.9230321 L83.7036189,7.9230321 L83.7036189,19.4024724 C83.7036189,19.4192734 83.7170592,19.4327137 83.7338602,19.4327137 L91.1964199,19.4327137 C91.2132209,19.4327137 91.2266613,19.4192734 91.2266613,19.4024724 L91.2266613,0.430233643 C91.2266613,0.413432617 91.2132209,0.39999231 91.1964199,0.39999231 L49.7592209,0.39999231 C49.7424199,0.39999231 49.7289771,0.413432617 49.7289771,0.430233643 L49.7289771,7.89111426 C49.7289771,7.90791528 49.7424199,7.92135559 49.7592209,7.92135559 L53.2233801,7.92135559 L53.2233801,107.743594 C53.2233801,109.267356 51.9835393,110.507196 50.4597781,110.507196 L49.7592184,110.507196 C49.7424174,110.507196 49.7289771,110.522316 49.7289771,110.537435 L49.7289771,117.999995 C49.7289771,118.016796 49.7424174,118.030239 49.7592184,118.030239 L91.1964174,118.030239 Z M119.017346,118.030241 C119.034147,118.030241 119.047587,118.016801 119.047587,118 L119.047587,110.53744 C119.047587,110.520639 119.034147,110.507199 119.017346,110.507199 L115.553186,110.507199 L115.553186,86.0867189 L127.030948,86.0867189 C132.106229,86.0867189 136.879109,84.1093582 140.467589,80.5208781 C144.05607,76.9323979 146.03343,72.1595173 146.03343,67.0842362 L146.03343,19.4007959 C146.03343,14.3255148 144.05607,9.5543158 140.467589,5.96583569 C136.879109,2.37735559 132.106229,0.399994873 127.030948,0.399994873 L104.565987,0.399994873 C104.549186,0.399994873 104.535743,0.413435181 104.535743,0.430236206 L104.535743,7.89111938 C104.535743,7.90792041 104.549184,7.92136072 104.565985,7.92136072 L108.030144,7.92136072 L108.030144,107.743599 C108.030144,109.267361 106.791985,110.50552 105.269905,110.507199 L104.565985,110.507199 C104.549184,110.507199 104.535743,110.520639 104.535743,110.53744 L104.535743,118 C104.535743,118.016801 104.549184,118.030241 104.565985,118.030241 L119.017346,118.030241 Z M127.030948,78.5653556 L115.553186,78.5653556 L115.553186,10.6866367 C115.553186,9.16287549 116.793027,7.92303467 118.316788,7.92303467 C118.316788,7.92303467 118.316788,7.92135559 118.318467,7.92135559 L127.030948,7.92135559 C133.359507,7.92135559 138.508706,13.0722362 138.508706,19.402475 L138.512067,67.0842362 C138.512067,73.414475 133.361186,78.5653556 127.030948,78.5653556 Z M185.568982,118.030241 C185.585783,118.030241 185.599224,118.016801 185.599224,118 L185.599224,110.53744 C185.599224,110.522321 185.585783,110.507202 185.568982,110.507202 L182.104823,110.507202 L182.104823,10.6866418 C182.104823,9.16288062 183.344664,7.92303979 184.868425,7.92303979 L189.822746,7.92303979 L189.822746,19.4024801 C189.822746,19.4192811 189.836186,19.4327214 189.852987,19.4327214 L197.313868,19.4327214 C197.330669,19.4327214 197.344109,19.4192811 197.344109,19.4024801 L197.344109,0.430241333 C197.344109,0.413440308 197.330669,0.4 197.313868,0.4 L159.372746,0.4 C159.355945,0.4 159.342505,0.413440308 159.342505,0.430241333 L159.342505,19.400801 C159.342505,19.4176021 159.355945,19.4327214 159.372746,19.4327214 L166.835306,19.4327214 C166.850425,19.4327214 166.865545,19.4176021 166.865545,19.400801 L166.865545,7.92136072 L174.583465,7.92136072 L174.583465,107.743599 C174.583465,109.267361 173.343624,110.507202 171.819863,110.507202 L171.119303,110.507202 C171.102502,110.507202 171.089062,110.522321 171.089062,110.53744 L171.089062,118 C171.089062,118.016801 171.102502,118.030241 171.119303,118.030241 L185.568982,118.030241 Z M251.920709,118.030239 C251.93751,118.030239 251.950953,118.016798 251.950953,117.999997 L251.950953,99.0277587 C251.950953,99.0109576 251.93751,98.9975173 251.920709,98.9975173 L244.458149,98.9975173 C244.441348,98.9975173 244.427908,99.0109576 244.427908,99.0277587 L244.427908,110.507199 L221.470709,110.507199 L221.470709,62.6893582 L240.963749,62.6893582 C240.98055,62.6893582 240.99399,62.6759178 240.99399,62.6591168 L240.99399,55.4838357 C240.99399,55.4670347 240.98055,55.4535944 240.963749,55.4535944 L221.470709,55.4535944 L221.470709,10.6866342 C221.470709,9.16287292 222.71055,7.9230321 224.234311,7.9230321 L244.42791,7.9230321 L244.42791,19.4024724 C244.42791,19.4192734 244.441351,19.4327137 244.458152,19.4327137 L251.920711,19.4327137 C251.937512,19.4327137 251.950953,19.4192734 251.950953,19.4024724 L251.950953,0.430233643 C251.950953,0.413432617 251.937512,0.39999231 251.920711,0.39999231 L210.483512,0.39999231 C210.466711,0.39999231 210.453269,0.413432617 210.453269,0.430233643 L210.453269,7.89111426 C210.453269,7.90791528 210.466711,7.92135559 210.483512,7.92135559 L213.947672,7.92135559 L213.947672,107.743594 C213.947672,109.267356 212.707831,110.507196 211.18407,110.507196 L210.48351,110.507196 C210.466709,110.507196 210.453269,110.522316 210.453269,110.537435 L210.453269,117.999995 C210.453269,118.016796 210.466709,118.030239 210.48351,118.030239 L251.920709,118.030239 Z M279.741634,118.030246 C279.758436,118.030246 279.771876,118.016806 279.771876,118.000005 L279.771876,110.537445 C279.771876,110.520644 279.758436,110.507204 279.741634,110.507204 L276.277475,110.507204 L276.277475,41.8943235 L286.122276,118.003363 C286.123955,118.018483 286.137396,118.030246 286.152515,118.030246 L293.678916,118.030246 C293.694035,118.030246 293.705796,118.018483 293.707475,118.003363 L303.461555,42.6032837 L303.461555,110.507204 L299.997396,110.507204 C299.980595,110.507204 299.967154,110.520644 299.967154,110.537445 L299.967154,118.000005 C299.967154,118.016806 299.980595,118.030246 299.997396,118.030246 L314.448756,118.030246 C314.465557,118.030246 314.478998,118.016806 314.478998,118.000005 L314.478998,110.537445 C314.478998,110.520644 314.465557,110.507204 314.448756,110.507204 L310.984597,110.507204 L310.984597,10.6866444 C310.984597,9.16288318 312.222756,7.92304236 313.744836,7.92304236 L314.447075,7.92304236 C314.463876,7.92304236 314.477316,7.90960205 314.477316,7.89280103 L314.477316,0.430241333 C314.477316,0.413440308 314.463876,0.4 314.447075,0.4 L301.361555,0.4 C301.346436,0.4 301.332995,0.41176123 301.331316,0.426880615 L289.914035,88.6873607 L278.498436,0.426880615 C278.495075,0.41176123 278.483314,0.4 278.468194,0.4 L265.290274,0.4 C265.273473,0.4 265.260032,0.413440308 265.260032,0.430241333 L265.260032,7.89280103 C265.260032,7.90960205 265.273473,7.92304236 265.290274,7.92304236 L268.754433,7.92304236 L268.754433,107.743602 C268.754433,109.267363 267.516274,110.507204 265.992513,110.507204 L265.290274,110.507204 C265.273473,110.507204 265.260032,110.520644 265.260032,110.537445 L265.260032,118.000005 C265.260032,118.016806 265.273473,118.030246 265.290274,118.030246 L279.741634,118.030246 Z M350.289998,118.030241 C355.365279,118.030241 360.136478,116.05456 363.726637,112.464401 C367.315117,108.87592 369.292478,104.104721 369.292478,99.0294403 L369.292478,74.4560796 C369.292478,69.3807985 367.315117,64.6079178 363.726637,61.0194377 C363.069756,60.3625571 362.372558,59.7611168 361.641756,59.2151168 C362.372558,58.6691168 363.069756,58.0676765 363.726637,57.4107959 C367.315117,53.8223158 369.292478,49.0511168 369.292478,43.9741566 L369.292478,19.4007959 C369.292478,14.3255148 367.315117,9.5543158 363.726637,5.96583569 C360.138157,2.37735559 355.365276,0.399994873 350.289995,0.399994873 L327.825035,0.399994873 C327.808234,0.399994873 327.794791,0.413435181 327.794791,0.430236206 L327.794791,7.89111682 C327.794791,7.90791785 327.808234,7.92135815 327.825035,7.92135815 L331.289194,7.92135815 L331.289194,107.743597 C331.289194,109.267358 330.049353,110.507199 328.525592,110.507199 L328.523913,110.508878 L327.825032,110.508878 C327.808231,110.508878 327.794791,110.522318 327.794791,110.539119 L327.794791,118 C327.794791,118.016801 327.808231,118.030241 327.825032,118.030241 L350.289998,118.030241 Z M350.305107,55.4552786 L350.289988,55.4535995 L350.289988,55.4535995 L338.812231,55.4536021 L338.812231,10.6866418 C338.812231,9.16288062 340.050391,7.92303979 341.575831,7.92303979 L341.575831,7.92136072 L350.28999,7.92136072 C356.61855,7.92136072 361.767749,13.0722413 361.767749,19.4024801 L361.769428,43.9741592 C361.769428,50.2993582 356.628627,55.4468781 350.305107,55.4552786 Z M350.28999,110.508878 L338.812229,110.508878 L338.812229,62.9766393 L350.305107,62.9766393 L350.305107,62.9766393 C356.628627,62.9833582 361.769428,68.1308781 361.769428,74.456077 L361.767749,99.0294377 C361.767749,105.357997 356.61855,110.508878 350.28999,110.508878 Z M421.549,118.030239 C421.565801,118.030239 421.579244,118.016798 421.579244,117.999997 L421.579244,99.0277587 C421.579244,99.0109576 421.565801,98.9975173 421.549,98.9975173 L414.086441,98.9975173 C414.06964,98.9975173 414.056199,99.0109576 414.056199,99.0277587 L414.056199,110.507199 L391.099,110.507199 L391.099,62.6893582 L410.59204,62.6893582 C410.608841,62.6893582 410.622282,62.6759178 410.622282,62.6591168 L410.622282,55.4838357 C410.622282,55.4670347 410.608841,55.4535944 410.59204,55.4535944 L391.099,55.4535944 L391.099,10.6866342 C391.099,9.16287292 392.338841,7.9230321 393.862602,7.9230321 L414.056202,7.9230321 L414.056202,19.4024724 C414.056202,19.4192734 414.069642,19.4327137 414.086443,19.4327137 L421.549003,19.4327137 C421.565804,19.4327137 421.579244,19.4192734 421.579244,19.4024724 L421.579244,0.430233643 C421.579244,0.413432617 421.565804,0.39999231 421.549003,0.39999231 L380.111804,0.39999231 C380.095003,0.39999231 380.08156,0.413432617 380.08156,0.430233643 L380.08156,7.89111426 C380.08156,7.90791528 380.095003,7.92135559 380.111804,7.92135559 L383.575963,7.92135559 L383.575963,107.743594 C383.575963,109.267356 382.336122,110.507196 380.812361,110.507196 L380.111801,110.507196 C380.095,110.507196 380.08156,110.522316 380.08156,110.537435 L380.08156,117.999995 C380.08156,118.016796 380.095,118.030239 380.111801,118.030239 L421.549,118.030239 Z M449.369926,118.030241 C449.386727,118.030241 449.400167,118.015119 449.400167,118 L449.400167,110.53744 C449.400167,110.520639 449.386727,110.507199 449.369926,110.507199 L445.905767,110.507199 L445.905767,86.0850398 L457.383528,86.0850398 C457.407048,86.0850398 457.428889,86.0833607 457.452409,86.0833607 C463.75073,86.1203209 468.86465,91.2544005 468.86465,97.562801 L468.861289,106.811202 L468.862968,107.046401 C468.862968,113.102801 473.790409,118.030241 479.848488,118.030241 C479.865289,118.030241 479.87873,118.016801 479.87873,118 L479.87873,110.53744 C479.87873,110.522321 479.865289,110.507202 479.848488,110.507202 C477.938329,110.507202 476.386008,108.954881 476.386008,107.046401 L476.386008,97.562801 C476.386008,92.4875199 474.408647,87.7146393 470.820167,84.1261592 C470.163287,83.4692786 469.467767,82.8695173 468.736966,82.3235173 C469.467767,81.7775173 470.163287,81.176077 470.820167,80.5208781 C474.408647,76.9307189 476.386008,72.1595199 476.386008,67.0842388 L476.386008,19.4007985 C476.386008,14.3255173 474.408647,9.55431836 470.820167,5.96583826 C467.230008,2.37567908 462.458809,0.4 457.383528,0.4 L434.918568,0.4 C434.901767,0.4 434.888324,0.413440308 434.888324,0.430241333 L434.888324,7.89112195 C434.888324,7.90792297 434.901767,7.92136328 434.918568,7.92136328 L438.382727,7.92136328 L438.382727,107.743602 C438.382727,109.265682 437.144568,110.505522 435.622488,110.507202 L434.918565,110.507199 C434.901764,110.507199 434.888324,110.520639 434.888324,110.53744 L434.888324,118 C434.888324,118.015119 434.901764,118.030241 434.918565,118.030241 L449.369926,118.030241 Z M457.452404,78.562 C457.428884,78.562 457.407043,78.5603209 457.383523,78.5603209 L445.905767,78.5603209 L445.905767,10.6866418 C445.905767,9.16120154 447.143926,7.92136072 448.669366,7.92136072 L457.383526,7.92136072 C463.712085,7.92136072 468.861284,13.0722413 468.861284,19.400801 L468.862963,67.0842413 C468.862963,73.3909602 463.750724,78.5250398 457.452404,78.562 Z M540.503454,118.030239 C540.520255,118.030239 540.533695,118.016798 540.533695,117.999997 L540.533695,110.537438 C540.533695,110.520637 540.520255,110.507196 540.503454,110.507196 L537.039295,110.507196 L537.039295,0.430236206 C537.039295,0.413435181 537.025854,0.399994873 537.009053,0.399994873 L526.052093,0.399994873 C526.035292,0.399994873 526.021852,0.413435181 526.021852,0.430236206 L526.021852,7.8927959 C526.021852,7.90959692 526.035292,7.92303723 526.052093,7.92303723 L529.516252,7.92303723 L529.516252,107.743597 C529.516252,109.267358 528.278093,110.505517 526.754332,110.507196 L526.052093,110.507196 C526.035292,110.507196 526.021852,110.520637 526.021852,110.537438 L526.021852,117.999997 C526.021852,118.016798 526.035292,118.030239 526.052093,118.030239 L540.503454,118.030239 Z M598.742459,118.030241 C598.75926,118.030241 598.7727,118.016801 598.7727,118 L598.7727,110.53744 C598.7727,110.520639 598.75926,110.507199 598.742459,110.507199 L595.2783,110.507199 L595.2783,7.92303979 L598.742459,7.92303979 C598.75926,7.92303979 598.7727,7.90959949 598.7727,7.89279846 L598.7727,0.43023877 C598.7727,0.413437744 598.75926,0.399997437 598.742459,0.399997437 L584.291098,0.399997437 C584.274297,0.399997437 584.260857,0.413437744 584.260857,0.43023877 L584.260857,7.89279846 C584.260857,7.90959949 584.274297,7.92303979 584.291098,7.92303979 L587.755257,7.92303979 L587.755257,74.4174403 L564.796377,74.4174403 L564.796377,10.6866393 C564.796377,9.16287805 566.036218,7.92471887 567.558297,7.92303979 L568.262218,7.92303979 C568.279019,7.92303979 568.292459,7.90959949 568.292459,7.89279846 L568.292459,0.43023877 C568.292459,0.413437744 568.279019,0.399997437 568.262218,0.399997437 L553.810857,0.399997437 C553.794056,0.399997437 553.780616,0.413437744 553.780616,0.43023877 L553.780616,7.89279846 C553.780616,7.90959949 553.794056,7.92303979 553.810857,7.92303979 L557.275016,7.92303979 L557.275016,81.9102388 C557.275016,81.9270398 557.288456,81.9404801 557.305257,81.9404801 L587.755257,81.9404801 L587.755257,107.743599 C587.755257,109.267361 586.517098,110.50552 584.993337,110.507199 L584.291098,110.507199 C584.274297,110.507199 584.260857,110.520639 584.260857,110.53744 L584.260857,118 C584.260857,118.016801 584.274297,118.030241 584.291098,118.030241 L598.742459,118.030241 Z M657.994626,62.8338434 C658.011427,62.8338434 658.026546,62.818724 658.026546,62.801923 L658.026546,55.3410424 C658.026546,55.3242413 658.011427,55.310801 657.994626,55.310801 L644.944387,55.310801 C644.927586,55.310801 644.914146,55.3242413 644.914146,55.3410424 L644.914146,62.801923 C644.914146,62.818724 644.927586,62.8338434 644.944387,62.8338434 L657.994626,62.8338434 Z M718.609273,118.030239 C718.626074,118.030239 718.639514,118.016798 718.639514,117.999997 L718.639514,110.537438 C718.639514,110.520637 718.626074,110.507196 718.609273,110.507196 L715.145114,110.507196 L715.145114,0.430236206 C715.145114,0.413435181 715.131673,0.399994873 715.114872,0.399994873 L704.157912,0.399994873 C704.141111,0.399994873 704.127671,0.413435181 704.127671,0.430236206 L704.127671,7.8927959 C704.127671,7.90959692 704.141111,7.92303723 704.157912,7.92303723 L707.622071,7.92303723 L707.622071,107.743597 C707.622071,109.267358 706.383912,110.505517 704.860151,110.507196 L704.157912,110.507196 C704.141111,110.507196 704.127671,110.520637 704.127671,110.537438 L704.127671,117.999997 C704.127671,118.016798 704.141111,118.030239 704.157912,118.030239 L718.609273,118.030239 Z M750.887238,118.030236 C755.964199,118.030236 760.735398,116.05456 764.323878,112.464401 C767.912358,108.87592 769.889718,104.104721 769.889718,99.0294403 L769.889718,55.4922413 C769.889718,50.4169602 767.912358,45.6440796 764.323878,42.0555995 C760.735398,38.4671194 755.964199,36.4897587 750.887238,36.4897587 C746.687238,36.4897587 742.695559,37.8488781 739.40948,40.3503979 L739.407801,19.4024775 C739.407801,13.0722388 744.557,7.92135815 750.887238,7.92135815 C757.217477,7.92135815 762.364997,13.0722388 762.364997,19.4024775 C762.364997,19.4192786 762.378437,19.4327189 762.395238,19.4327189 L769.859477,19.4327189 C769.870678,19.4327189 769.880385,19.4267454 769.885612,19.417785 L769.889718,19.4022677 L769.889718,19.4022677 L769.889718,0.43023877 C769.889718,0.413437744 769.876278,0.399997437 769.859477,0.399997437 L762.396917,0.399997437 C762.380116,0.399997437 762.366676,0.413437744 762.366676,0.43023877 L762.366676,4.26231836 C759.080596,1.75911938 755.088917,0.401679077 750.887238,0.401679077 C745.811957,0.401679077 741.040758,2.37735815 737.452278,5.96583826 C733.862119,9.55599744 731.88644,14.3271964 731.88644,19.4024775 L731.88644,99.0294377 C731.88644,104.104719 733.862119,108.875918 737.452278,112.464398 C741.040758,116.054557 745.811957,118.030236 750.887238,118.030236 Z M750.887238,110.508875 C744.558679,110.508875 739.411159,105.357995 739.411159,99.0294352 L739.409477,70.4123158 C739.409477,70.4106367 739.411159,70.4089576 739.411159,70.4072786 L739.409477,55.4267163 C739.444758,49.1267163 744.580519,44.0111168 750.887238,44.0111168 C757.217477,44.0111168 762.364997,49.1619974 762.364997,55.4922362 L762.368358,99.0294352 C762.368358,105.357995 757.217477,110.508875 750.887238,110.508875 Z M785.666724,120.852637 C785.673442,120.852637 785.681843,120.850958 785.686883,120.844239 L789.601283,116.929838 C791.067923,115.463199 791.067923,113.077599 789.601283,111.61096 C788.134641,110.144321 785.749042,110.144321 784.282403,111.61096 C782.815763,113.077599 782.815763,115.463199 784.282403,116.929838 C784.332803,116.980239 784.384883,117.022239 784.435283,117.069279 L783.173604,118.330958 C783.168564,118.335997 783.165204,118.344398 783.165204,118.352798 C783.165204,118.359517 783.168564,118.367918 783.173604,118.372958 L785.644885,120.844239 C785.651604,120.850958 785.658323,120.852637 785.666724,120.852637 Z M874.807769,118.030244 C874.82457,118.030244 874.83801,118.016804 874.83801,118.000003 L874.83801,99.0294429 C874.83801,99.0126418 874.82457,98.9992015 874.807769,98.9992015 L867.346888,98.9992015 C867.330087,98.9992015 867.316647,99.0126418 867.316647,99.0294429 L867.316647,110.508883 L844.357766,110.508883 L844.359445,93.4283235 C844.359445,87.0930424 849.508644,81.9404827 855.837204,81.9404827 C860.910803,81.9404827 865.682002,79.9631219 869.272161,76.3746418 C872.862321,72.7878408 874.83801,68.0149602 874.83801,62.9396791 L874.83801,19.4024801 C874.83801,14.327199 872.862321,9.55431836 869.273841,5.96583826 C865.683681,2.37735815 860.912482,0.399997437 855.837201,0.399997437 C851.63553,0.399997437 847.643851,1.75911938 844.35609,4.26063928 L844.35609,0.43192041 C844.35609,0.415119385 844.342649,0.401679077 844.325848,0.401679077 L836.864968,0.401679077 C836.848167,0.401679077 836.834726,0.415119385 836.834726,0.43192041 L836.834726,19.4024801 C836.834726,19.4192811 836.848167,19.4327214 836.864968,19.4327214 L844.329206,19.4327214 C844.346007,19.4327214 844.359448,19.4192811 844.359448,19.4024801 C844.359448,13.0722413 849.508647,7.92136072 855.837206,7.92136072 C862.167445,7.92136072 867.316644,13.0722413 867.316644,19.4024801 L867.314965,62.9396791 C867.314965,69.2682388 862.165766,74.4191194 855.837206,74.4191194 C850.761925,74.4191194 845.990726,76.3964801 842.402246,79.9883209 C838.812087,83.5801617 836.834726,88.3530424 836.834726,93.4283235 L836.834726,118.000003 C836.834726,118.016804 836.848167,118.030244 836.864968,118.030244 L874.807769,118.030244 Z M907.084052,117.916 C917.562212,117.916 926.056291,109.42192 926.056291,98.9437612 L926.056291,19.3151219 C926.056291,15.9080822 925.159172,12.7127214 923.585013,9.95080103 C922.106612,7.3484801 920.028453,5.13088062 917.540373,3.48616174 C914.543254,1.50376123 910.949734,0.346241333 907.084055,0.346241333 C896.607575,0.346241333 888.113495,8.83864185 888.113495,19.3151219 L888.113495,98.9437612 C888.113495,102.350801 889.010615,105.546162 890.584774,108.308082 C892.061493,110.907042 894.136294,113.126323 896.624373,114.771042 C899.621493,116.75848 903.216692,117.916 907.084052,117.916 Z M907.084052,110.455125 C903.766052,110.455125 900.775652,109.050644 898.675652,106.802804 C896.752052,104.746483 895.576052,101.982883 895.576052,98.9437638 L895.576052,88.8940026 L895.574373,19.3151219 C895.574373,12.9596816 900.726933,7.80712195 907.084052,7.80712195 C910.402052,7.80712195 913.390771,9.21160205 915.490771,11.4560822 C917.416052,13.5124031 918.592052,16.2776842 918.592052,19.3151245 L918.592052,29.3632041 L918.595413,98.9437638 C918.595413,105.302565 913.442853,110.455125 907.084052,110.455125 Z M977.365296,118.030244 C977.382097,118.030244 977.395538,118.016804 977.395538,118.000003 L977.395538,99.0294429 C977.395538,99.0126418 977.382097,98.9992015 977.365296,98.9992015 L969.904416,98.9992015 C969.887615,98.9992015 969.874174,99.0126418 969.874174,99.0294429 L969.874174,110.508883 L946.915294,110.508883 L946.916973,93.4283235 C946.916973,87.0930424 952.066172,81.9404827 958.394732,81.9404827 C963.468331,81.9404827 968.23953,79.9631219 971.829689,76.3746418 C975.419848,72.7878408 977.395538,68.0149602 977.395538,62.9396791 L977.395538,19.4024801 C977.395538,14.327199 975.419848,9.55431836 971.831368,5.96583826 C968.241209,2.37735815 963.47001,0.399997437 958.394729,0.399997437 C954.193058,0.399997437 950.201378,1.75911938 946.913617,4.26063928 L946.913617,0.43192041 C946.913617,0.415119385 946.900177,0.401679077 946.883376,0.401679077 L939.422495,0.401679077 C939.405694,0.401679077 939.392254,0.415119385 939.392254,0.43192041 L939.392254,19.4024801 C939.392254,19.4192811 939.405694,19.4327214 939.422495,19.4327214 L946.886734,19.4327214 C946.903535,19.4327214 946.916975,19.4192811 946.916975,19.4024801 C946.916975,13.0722413 952.066174,7.92136072 958.394734,7.92136072 C964.724973,7.92136072 969.874172,13.0722413 969.874172,19.4024801 L969.872493,62.9396791 C969.872493,69.2682388 964.723294,74.4191194 958.394734,74.4191194 C953.319453,74.4191194 948.548254,76.3964801 944.959774,79.9883209 C941.369615,83.5801617 939.392254,88.3530424 939.392254,93.4283235 L939.392254,118.000003 C939.392254,118.016804 939.405694,118.030244 939.422495,118.030244 L977.365296,118.030244 Z M1028.64406,118.030244 C1028.66086,118.030244 1028.6743,118.016804 1028.6743,118.000003 L1028.6743,99.0294429 C1028.6743,99.0126418 1028.66086,98.9992015 1028.64406,98.9992015 L1021.18318,98.9992015 C1021.16638,98.9992015 1021.15294,99.0126418 1021.15294,99.0294429 L1021.15294,110.508883 L998.194058,110.508883 L998.195737,93.4283235 C998.195737,87.0930424 1003.34494,81.9404827 1009.6735,81.9404827 C1014.74709,81.9404827 1019.51829,79.9631219 1023.10845,76.3746418 C1026.69861,72.7878408 1028.6743,68.0149602 1028.6743,62.9396791 L1028.6743,19.4024801 C1028.6743,14.327199 1026.69861,9.55431836 1023.11013,5.96583826 C1019.51997,2.37735815 1014.74877,0.399997437 1009.67349,0.399997437 C1005.47182,0.399997437 1001.48014,1.75911938 998.192381,4.26063928 L998.192381,0.43192041 C998.192381,0.415119385 998.178941,0.401679077 998.16214,0.401679077 L990.701259,0.401679077 C990.684458,0.401679077 990.671018,0.415119385 990.671018,0.43192041 L990.671018,19.4024801 C990.671018,19.4192811 990.684458,19.4327214 990.701259,19.4327214 L998.165498,19.4327214 C998.182299,19.4327214 998.195739,19.4192811 998.195739,19.4024801 C998.195739,13.0722413 1003.34494,7.92136072 1009.6735,7.92136072 C1016.00374,7.92136072 1021.15294,13.0722413 1021.15294,19.4024801 L1021.15126,62.9396791 C1021.15126,69.2682388 1016.00206,74.4191194 1009.6735,74.4191194 C1004.59822,74.4191194 999.827018,76.3964801 996.238538,79.9883209 C992.648379,83.5801617 990.671018,88.3530424 990.671018,93.4283235 L990.671018,118.000003 C990.671018,118.016804 990.684458,118.030244 990.701259,118.030244 L1028.64406,118.030244 Z" id="path-1"></path>
        <filter x="-0.4%" y="-3.3%" width="101.6%" height="113.3%" filterUnits="objectBoundingBox" id="filter-2">
            <feOffset dx="7" dy="7" in="SourceAlpha" result="shadowOffsetOuter1"></feOffset>
            <feGaussianBlur stdDeviation="0.5" in="shadowOffsetOuter1" result="shadowBlurOuter1"></feGaussianBlur>
            <feColorMatrix values="0 0 0 0 0   0 0 0 0 0   0 0 0 0 0  0 0 0 0.5 0" type="matrix" in="shadowBlurOuter1"></feColorMatrix>
        </filter>
    </defs>
    <g id="Page-1" stroke="none" stroke-width="1" fill="none" fill-rule="evenodd">
        <g id="SEPTEMBER14-16,2022" fill-rule="nonzero">
            <use fill="black" fill-opacity="1" filter="url(#filter-2)" xlink:href="#path-1"></use>
            <use fill="#1750FF" xlink:href="#path-1"></use>
        </g>
    </g>
</svg>