<?xml version="1.0" encoding="UTF-8"?>
<svg width="399px" height="52px" viewBox="0 0 399 52" version="1.1" xmlns="http://www.w3.org/2000/svg" xmlns:xlink="http://www.w3.org/1999/xlink">
    <title>Slice 1</title>
    <g id="Page-1" stroke="none" stroke-width="1" fill="none" fill-rule="evenodd">
        <path d="M10.5337395,44 L13.6392083,33.8046875 L29.2544427,33.8046875 L32.3599114,44 L42.1450677,44 L26.9692864,0.9921875 L15.8657708,0.9921875 L0.748583293,44 L10.5337395,44 Z M27.0864739,26.1875 L15.9243645,26.1875 C18.9712395,16.3242188 20.8169427,10.1425781 21.4614739,7.64257812 C21.6177239,8.34570312 21.876513,9.30273438 22.2378411,10.5136719 C22.5991692,11.7246094 24.2153802,16.9492188 27.0864739,26.1875 L27.0864739,26.1875 Z M61.0235213,44 L61.0235213,8.7265625 L72.6543806,8.7265625 L72.6543806,1.16796875 L40.3106306,1.16796875 L40.3106306,8.7265625 L51.94149,8.7265625 L51.94149,44 L61.0235213,44 Z M106.8551,44 L106.8551,36.5 L89.482053,36.5 L89.482053,1.16796875 L80.4000218,1.16796875 L80.4000218,44 L106.8551,44 Z M119.844882,44 L122.95035,33.8046875 L138.565585,33.8046875 L141.671053,44 L151.45621,44 L136.280428,0.9921875 L125.176913,0.9921875 L110.059725,44 L119.844882,44 Z M136.397616,26.1875 L125.235507,26.1875 C128.282382,16.3242188 130.128085,10.1425781 130.772616,7.64257812 C130.928866,8.34570312 131.187655,9.30273438 131.548983,10.5136719 C131.910311,11.7246094 133.526522,16.9492188 136.397616,26.1875 L136.397616,26.1875 Z M166.115913,44 L166.115295,23.5941406 C166.103337,21.1283854 165.917997,17.1295573 165.559273,11.5976562 L165.559273,11.5976562 L165.822945,11.5976562 L184.455757,44 L195.998726,44 L195.998726,1.16796875 L187.824898,1.16796875 L187.824898,21.4414062 C187.824898,23.7460938 187.971382,27.6816406 188.264351,33.2480469 L188.264351,33.2480469 L188.059273,33.2480469 L169.455757,1.16796875 L158.000679,1.16796875 L158.000679,44 L166.115913,44 Z M224.457258,44 L224.457258,8.7265625 L236.088117,8.7265625 L236.088117,1.16796875 L203.744367,1.16796875 L203.744367,8.7265625 L215.375226,8.7265625 L215.375226,44 L224.457258,44 Z M244.038836,44 L247.144305,33.8046875 L262.759539,33.8046875 L265.865008,44 L275.650164,44 L260.474383,0.9921875 L249.370867,0.9921875 L234.25368,44 L244.038836,44 Z M260.591571,26.1875 L249.429461,26.1875 C252.476336,16.3242188 254.322039,10.1425781 254.966571,7.64257812 C255.122821,8.34570312 255.38161,9.30273438 255.742938,10.5136719 C256.104266,11.7246094 257.720477,16.9492188 260.591571,26.1875 L260.591571,26.1875 Z M285.095024,51.734375 C287.516899,46.3242188 289.235649,41.6464844 290.251274,37.7011719 L290.251274,37.7011719 L289.811821,37.0273438 L281.608696,37.0273438 C280.905571,41.6367188 279.919243,46.5390625 278.649712,51.734375 L278.649712,51.734375 L285.095024,51.734375 Z M335.508181,44.5859375 C338.047244,44.5859375 340.532595,44.4052734 342.964236,44.0439453 C345.395877,43.6826172 347.98865,43.0527344 350.742556,42.1542969 L350.742556,42.1542969 L350.742556,19.9472656 L333.750369,19.9472656 L333.750369,27.5058594 L341.865603,27.5058594 L341.865603,36.4414062 C339.912478,36.8320312 337.98865,37.0273438 336.094119,37.0273438 C332.461306,37.0273438 329.692752,35.8017578 327.788455,33.3505859 C325.884158,30.8994141 324.932009,27.3496094 324.932009,22.7011719 C324.932009,18.2480469 326.11365,14.703125 328.476931,12.0664063 C330.840213,9.4296875 333.984744,8.11132812 337.910525,8.11132812 C341.289431,8.11132812 344.541384,8.89257812 347.666384,10.4550781 L347.666384,10.4550781 L350.683963,3.18945312 C346.601931,1.43164062 342.36365,0.552734375 337.969119,0.552734375 C330.9574,0.552734375 325.474002,2.48632812 321.518924,6.35351563 C317.563845,10.2207031 315.586306,15.6113281 315.586306,22.5253906 C315.586306,29.6347656 317.290408,35.0888672 320.698611,38.8876953 C324.106814,42.6865234 329.043338,44.5859375 335.508181,44.5859375 Z M366.486244,44 L369.591713,33.8046875 L385.206947,33.8046875 L388.312416,44 L398.097572,44 L382.921791,0.9921875 L371.818276,0.9921875 L356.701088,44 L366.486244,44 Z M383.038979,26.1875 L371.876869,26.1875 C374.923744,16.3242188 376.769447,10.1425781 377.413979,7.64257812 C377.570229,8.34570312 377.829018,9.30273438 378.190346,10.5136719 C378.551674,11.7246094 380.167885,16.9492188 383.038979,26.1875 L383.038979,26.1875 Z" id="ATLANTA,GA" fill="#1750FF" fill-rule="nonzero"></path>
    </g>
</svg>