<?xml version="1.0" encoding="UTF-8"?>
<svg width="544px" height="524px" viewBox="0 0 544 524" version="1.1" xmlns="http://www.w3.org/2000/svg" xmlns:xlink="http://www.w3.org/1999/xlink">
    <!-- Generator: Sketch 59.1 (86144) - https://sketch.com -->
    <title>Group 2</title>
    <desc>Created with Sketch.</desc>
    <g id="design-v1" stroke="none" stroke-width="1" fill="none" fill-rule="evenodd">
        <g id="Artboard" transform="translate(-3296.000000, -1476.000000)">
            <g id="Group-2" transform="translate(3296.000000, 1476.000000)">
                <g id="speech-bubble" fill-rule="nonzero">
                    <g id="Group">
                        <path d="M353.855467,519.944826 C351.963468,519.944826 350.30243,518.662948 349.819024,516.82958 C348.736731,512.710891 347.504044,508.555884 346.150507,504.461406 C344.555266,502.825768 343.248726,500.80005 342.259085,498.427298 C334.764944,480.472934 326.238193,462.071997 316.195426,442.173967 C314.569301,439.365403 312.913634,436.521867 311.231111,433.632597 C300.604228,415.386346 288.559353,394.705469 276.389598,369.193001 C275.965275,368.301201 275.207938,367.901707 274.64665,367.901707 C274.302894,367.901707 274.096104,368.036217 273.909455,368.377872 L238.285092,433.559961 L209.997764,375.551278 C209.930624,375.414078 209.597611,375.341443 209.319652,375.341443 C208.697938,375.341443 208.249444,375.630639 208.172905,375.792051 C196.7672,399.711923 178.873108,419.747153 156.42694,433.733479 L152.092396,436.43309 L143.315885,410.098767 C141.085502,409.005203 139.33584,407.027909 138.51002,404.550239 L124.802765,363.423877 L57.2977525,411.1049 L59.3052317,401.159248 C60.7836495,393.837881 62.6649059,386.544762 64.9261734,379.363285 L57.0184511,384.946785 C55.4970639,386.021519 53.7702289,386.590495 52.0259377,386.590495 C49.5363949,386.590495 47.0951928,385.42295 45.3267313,383.387817 C43.4038482,381.175132 42.4880617,378.191705 42.8747868,375.403317 C46.1606072,351.780711 53.2075977,329.008207 63.8385091,307.646711 L20.2956816,292.114868 L45.6557161,277.34973 L10.8773144,264.945239 C7.26116631,263.655291 4.59840296,260.256229 4.24927615,256.48592 C3.93103363,253.026328 5.5867004,249.885525 8.67915828,248.08444 L72.3075199,211.041794 L36.4830805,162.930339 C36.4830805,162.930339 46.0276705,163.184563 46.6896686,163.202049 L22.3421018,130.502724 C20.4125048,127.912066 20.1721444,124.39329 21.710988,121.319742 C23.3102573,118.12648 26.4873113,116.064445 29.8026732,116.064445 L98.8384721,117.895123 L79.8889429,43.656491 C79.1866609,40.8990407 79.8312027,37.9667277 81.6600901,35.6074263 C83.5104622,33.2198779 86.2913915,31.7954194 89.1005196,31.7954194 C91.4651824,31.7954194 93.6901944,32.8042427 95.3660031,34.6362658 C118.569508,60.0182594 145.512699,81.1806815 175.514777,97.5989441 L187.931606,11.6391304 C188.550635,7.35499423 192.369545,4.24512834 197.011589,4.24512834 C200.453174,4.24512834 203.438208,5.92381027 204.994508,8.73237427 L252.610034,94.7298507 L311.059234,16.0093528 C312.679988,13.8262593 315.035251,12.6237419 317.6913,12.6237419 C322.60056,12.6237419 327.128467,16.8527291 327.378226,21.6722142 L331.841678,107.531145 L420.084823,43.4170636 C421.594125,42.320809 423.327674,41.7397267 425.097479,41.7397267 C427.678331,41.7397267 430.192044,42.9704911 431.996761,45.115922 C433.880703,47.3568547 434.723979,50.3254854 434.254001,53.0573788 L419.831035,136.665962 L514.490056,128.472972 C514.741159,128.45145 514.98689,128.442034 515.232622,128.442034 C518.800429,128.442034 522.031195,130.732736 523.462615,134.277068 C524.894035,137.822746 524.15684,141.724874 521.582702,144.218685 L486.64585,178.058653 L515.716028,175.543321 L475.732952,214.272719 L535.105994,247.862498 C538.699315,249.894941 540.474491,253.819936 539.627187,257.861955 C538.808081,261.769464 535.761279,264.617035 531.777205,265.265372 L529.913405,266.026698 C529.044616,266.707317 528.053633,267.22787 526.957912,267.574905 L502.300159,275.387233 L531.736921,292.039542 L469.205623,313.095702 C470.338942,315.223646 471.493746,317.389253 472.659293,319.575037 C474.724512,323.444883 476.823301,327.377949 478.887178,331.263936 C479.350442,331.908238 479.722397,332.609034 479.996327,333.354218 C492.742141,357.416671 498.066325,368.544664 498.970027,373.011734 L500.338335,379.78161 L470.819663,370.193754 L488.622445,399.913688 L364.822077,358.71738 L366.199785,493.740978 C366.734218,499.710521 364.768365,503.268305 363.011989,505.20659 C361.667851,506.691578 359.989356,507.727304 358.130927,508.246511 C358.105414,511.246079 358.069159,513.762757 358.019475,515.873215 C357.960392,518.157191 356.132848,519.944826 353.855467,519.944826 Z" id="Path" fill="#211915"></path>
                        <path d="M197.008903,8.28042145 C198.790793,8.28042145 200.567311,9.06057811 201.46967,10.6908365 C218.351294,41.1801661 235.231575,71.6681506 252.1132,102.15748 C272.839247,74.2440127 293.563952,46.3305452 314.289999,18.4170777 C315.209814,17.1795878 316.435786,16.6603801 317.689957,16.6603801 C320.386291,16.6603801 323.207504,19.0640697 323.353869,21.8820494 C324.970594,52.9753278 326.585977,84.0672612 328.202703,115.16054 C359.618745,92.3355768 391.033444,69.5092688 422.449486,46.6843059 C423.32096,46.0507649 424.224662,45.7763649 425.096136,45.7763649 C428.164423,45.7763649 430.832558,49.1834974 430.282012,52.371379 C425.178046,81.9594931 420.072738,111.548952 414.968773,141.137066 C448.258014,138.255867 481.545913,135.374668 514.833812,132.493469 C514.966749,132.481363 515.099685,132.475982 515.229936,132.475982 C519.430201,132.475982 521.832462,138.358095 518.777602,141.31731 C504.415062,155.231 490.051179,169.143346 475.688639,183.055691 C485.379594,182.217695 495.069206,181.378354 504.76016,180.540358 C492.857622,192.070536 480.955083,203.599368 469.052544,215.129546 C490.409706,227.211213 511.766867,239.294226 533.122686,251.375894 C537.586138,253.900642 536.248713,260.779472 530.729824,261.333652 C529.728099,261.743907 528.797541,262.123224 527.794473,262.533479 C527.261384,263.039236 526.589986,263.458906 525.737311,263.727926 C514.625678,267.248046 503.514046,270.768167 492.402414,274.289633 C492.393015,274.377064 492.398386,274.328641 492.388986,274.416072 C502.219591,279.978051 512.050197,285.538685 521.880802,291.100664 C502.390127,297.663396 482.900794,304.226127 463.410118,310.790204 C467.233056,317.989167 471.422578,325.804185 475.476478,333.441649 C475.845746,333.903018 476.114305,334.419535 476.287526,334.971025 C485.638753,352.616017 494.035253,368.956264 495.019522,373.816102 L468.477828,365.194026 C466.971211,367.091959 466.93227,367.141727 465.424311,369.038315 L479.569318,392.65285 L360.730579,353.108323 L362.167371,493.952158 C362.848168,500.925145 359.37167,504.598606 355.294944,504.598606 C354.908218,504.598606 354.516122,504.564979 354.12134,504.499069 C354.101198,508.925786 354.058229,512.745863 353.988404,515.780404 C353.987061,515.86649 353.922607,515.912223 353.855467,515.912223 C353.795041,515.912223 353.733272,515.875905 353.714473,515.80058 C352.487158,511.133091 351.130935,506.627014 349.657888,502.241995 C348.233182,500.974913 346.945442,499.198039 345.975943,496.872365 C337.854716,477.415527 329.164144,458.921779 319.73772,440.253168 C307.711645,419.471408 294.040644,396.840139 280.023203,367.455135 C278.914054,365.129461 276.734697,363.869104 274.64665,363.869104 C272.958756,363.869104 271.331288,364.692304 270.375218,366.442276 C259.745649,385.889699 249.11608,405.338467 238.486512,424.785889 C230.196093,407.785199 221.905674,390.783164 213.615255,373.782475 C212.792121,372.094377 211.072,371.30884 209.316966,371.30884 C207.371256,371.30884 205.383919,372.27731 204.535272,374.055529 C193.415583,397.372798 176.084122,416.732789 154.295923,430.30886 C151.698957,422.516709 149.101991,414.724558 146.505024,406.932407 C144.642567,406.62169 143.011071,405.319635 142.328931,403.275087 C137.349845,388.336432 132.37076,373.397777 127.391674,358.457776 C127.066718,358.390522 126.735047,358.354204 126.403377,358.354204 C125.522503,358.354204 124.634915,358.605737 123.821181,359.180094 L63.2503647,401.962271 C65.5384881,390.628478 68.7571688,379.562359 72.8432953,368.832515 C66.7940019,373.10589 60.7433656,377.379266 54.6940722,381.651296 C53.7997704,382.282147 52.8906979,382.556547 52.0219093,382.556547 C48.9643641,382.556547 46.4170811,379.15345 46.8602036,375.962878 C50.2950744,351.256123 57.9960062,327.371223 69.5118198,305.390982 C56.2825992,300.672379 43.0520358,295.953776 29.8228152,291.235174 C38.2770552,286.313461 46.7312953,281.391749 55.1841925,276.470036 C40.8632792,271.3627 26.5437087,266.255364 12.2227954,261.146683 C8.21723666,259.71819 6.42594755,254.064744 10.6987226,251.576313 C33.2106881,238.471026 55.7213107,225.364394 78.2332761,212.259107 C67.0464474,197.235711 55.8596186,182.212315 44.6727899,167.188919 C47.5262302,167.264244 50.9973564,167.348985 54.8619216,167.436417 C45.0971132,154.321714 35.330962,141.207012 25.5661537,128.092309 C23.2350608,124.960921 26.0911867,120.101083 29.7999877,120.101083 C29.8375859,120.101083 29.8751842,120.101083 29.9127825,120.102429 C54.6282752,120.758836 79.343768,121.416589 104.060604,122.072997 C97.3036569,95.601474 90.5467103,69.1299512 83.7897637,42.6584285 C82.914261,39.2270842 85.9624067,35.8307126 89.0991768,35.8320576 C90.2486097,35.8320576 91.4087849,36.2880458 92.393054,37.3641239 C117.146145,64.4409406 146.24855,86.8879311 178.67706,103.86979 C183.089486,73.3199306 187.503255,42.7687265 191.91568,12.2188675 C192.286292,9.64435051 194.652297,8.28042145 197.008903,8.28042145 L197.008903,8.28042145 Z M197.008903,0.209835241 C190.345952,0.209835241 184.849891,4.77375174 183.942161,11.0620835 L179.33503,42.9556951 L172.364579,91.2151104 C144.783561,75.4357692 119.923046,55.5256331 98.3349238,31.9124429 C95.8870077,29.2356985 92.6079013,27.7601263 89.1005196,27.7601263 C85.0560197,27.7601263 81.0853737,29.7683572 78.4776649,33.1324466 C75.8793558,36.48443 74.971626,40.6838251 75.9854366,44.6572437 L86.6123197,86.2880175 L93.6149978,113.721285 L66.7174625,113.007038 L30.1289725,112.034533 C30.0202061,112.031842 29.9114397,112.030497 29.8026732,112.030497 C24.9753237,112.030497 20.3856489,114.966846 18.1096106,119.511931 C15.881913,123.960169 16.2659525,129.095752 19.111336,132.917174 L36.3380586,156.05151 L38.4959309,158.950195 L28.2893428,158.678486 L38.2179722,172.012439 L66.3763925,209.827171 L45.6637729,221.885972 L6.65422277,244.596601 C2.235083,247.168428 -0.222232644,251.866854 0.238346189,256.858512 C0.7351805,262.245628 4.3808701,266.911772 9.52511941,268.746485 L31.005818,276.408162 L36.1218686,278.233459 L25.7796581,284.255462 L10.7604912,292.999942 L27.1251392,298.836321 L49.9687751,306.983578 L58.2484517,309.936067 C48.52527,330.498576 42.0207689,352.290503 38.8853416,374.846447 C38.330767,378.830626 39.57151,382.908962 42.2879852,386.03497 C44.8218402,388.951141 48.3721913,390.624443 52.0272805,390.624443 C54.0777291,390.624443 56.0972934,390.10389 57.9463227,389.108518 C56.9821956,392.842509 56.1174354,396.596677 55.3587559,400.35757 L51.3424548,420.24753 L67.8977797,408.55325 L122.698604,369.846719 L127.222482,383.417409 L134.69111,405.825392 C135.664637,408.745599 137.545893,411.178881 139.977696,412.81452 L142.762654,421.171612 L146.658103,432.860511 L149.890212,442.55732 L158.555271,437.158098 C179.952716,423.825489 197.329832,405.152843 209.104805,382.910308 L220.169439,405.599416 L231.25153,428.326186 L238.083673,442.335379 L245.557672,428.659771 L260.293509,401.699977 L274.7957,375.165235 C286.33837,398.898139 297.683648,418.376499 307.758642,435.6758 C309.418338,438.524717 311.051177,441.329246 312.655817,444.101492 C322.635473,463.878464 331.105827,482.161032 338.546256,499.986266 C339.596322,502.500254 340.956574,504.704869 342.604184,506.563794 C343.826128,510.312581 344.940648,514.103067 345.927603,517.855889 C346.876959,521.464786 350.138609,523.984154 353.860838,523.984154 C358.347118,523.984154 361.943124,520.464034 362.047862,515.970062 C362.081432,514.507941 362.10963,512.83464 362.132458,510.964954 C363.559849,510.194213 364.863704,509.173284 365.997023,507.922343 C369.206304,504.37801 370.700836,499.286816 370.226829,493.552664 L368.908204,364.334508 L477.035463,400.314527 L497.672886,407.18125 L486.483372,388.501879 L479.808336,377.357744 L492.539379,381.492575 L505.661176,385.755189 L502.921873,372.212746 C501.910749,367.217053 496.865866,356.589436 483.674244,331.684952 C483.322431,330.789117 482.872595,329.941705 482.330106,329.150788 C480.317255,325.361648 478.274863,321.532154 476.262013,317.7605 C475.841718,316.972273 475.421423,316.185391 475.003814,315.403889 L480.738893,313.472329 L524.454941,298.75158 L541.593039,292.981111 L525.850106,284.075219 L512.350983,276.439099 L528.174484,271.42592 C529.534736,270.995489 530.786222,270.374054 531.91417,269.572375 L532.612423,269.287215 L532.925295,269.15943 C538.261564,268.084697 542.457799,264.023847 543.575005,258.69457 C544.771436,252.985976 542.166413,247.222232 537.091989,244.351793 L501.092986,223.987014 L482.417387,213.421272 L496.061532,200.205687 L510.369017,186.347145 L526.67861,170.548973 L504.075335,172.504745 L497.608432,173.064305 L515.828823,155.415279 L524.387801,147.124096 C528.148971,143.481572 529.254092,137.846957 527.203643,132.769214 C525.154537,127.692815 520.458782,124.412122 515.239336,124.410777 C514.876781,124.410777 514.510198,124.426918 514.147643,124.457855 L424.695983,132.200237 L435.200671,71.3063193 L438.228675,53.7501041 C438.909472,49.8022424 437.764068,45.7091101 435.083848,42.5225736 C432.513738,39.4638214 428.874762,37.709814 425.10285,37.709814 C422.479027,37.709814 419.927716,38.5558805 417.725532,40.1552017 L335.48334,99.9084768 L333.224758,56.4456799 L331.406613,21.4664142 C331.044058,14.4893924 324.765147,8.59517431 317.696671,8.59382921 C313.793165,8.59382921 310.197159,10.4191268 307.832496,13.6043181 L282.961239,47.1012862 L253.108211,87.3076016 L237.988334,60.0007731 L208.522031,6.78198261 C206.271506,2.72516794 201.863109,0.209835241 197.008903,0.209835241 L197.008903,0.209835241 Z" id="Shape" fill="#ECEDEF"></path>
                    </g>
                    <path d="M446.353711,315.925718 C471.235807,307.54622 496.117904,299.165379 521,290.785881 C495.502886,276.358699 470.004432,261.931518 444.507318,247.505679 C441.706909,245.920259 440.661781,241.729168 443.149991,239.316806 C463.405384,219.693047 483.659437,200.069288 503.91483,180.446871 C473.330084,183.094159 442.746678,185.741446 412.161932,188.388734 C408.609836,188.696153 406.431145,185.044721 406.965768,181.938319 C411.715743,154.400888 416.464378,126.863456 421.214353,99.3260245 C390.73412,121.476252 360.253887,143.625138 329.773654,165.774023 C326.423883,168.209206 322.006206,165.118913 321.814599,161.428551 C320.285763,132.017076 318.758268,102.604258 317.229433,73.1927831 C297.818182,99.3407913 278.406931,125.487457 258.99702,151.635465 C256.993857,154.333766 252.239863,153.539043 250.725766,150.803154 C235.076978,122.535436 219.428189,94.2677179 203.779401,66 C199.766376,93.7830978 195.75469,121.566196 191.741665,149.350636 C191.2392,152.824866 186.971592,154.123003 184.196642,152.751031 C154.232274,137.941255 126.753435,118.526916 102.787836,95.2906557 C108.028217,115.824588 121.12984,168.692483 121.12984,168.692483 C121.12984,168.692483 66.0100343,167.68297 44.8180454,167.119146 C63.6826137,192.457664 82.547182,217.797525 101.41175,243.136043 C103.075916,245.371202 101.977192,249.006524 99.6953278,250.335538 C76.4639985,263.863286 53.2313293,277.391034 30,290.918782 C51.5242862,298.597528 73.0499123,306.274931 94.5741984,313.953677 C97.3357494,314.939026 100.116059,318.488433 97.968186,321.512946 C80.8883755,345.564066 69.1628384,372.653123 63.3543361,401.425598 L123.794918,358.728013 C126.68644,356.684822 130.538676,358.699822 131.548967,361.731047 C139.10069,384.392744 146.652413,407.05444 154.204135,429.716137 C175.945487,416.16691 193.239683,396.845199 204.335463,373.574035 C205.944693,370.199146 211.662081,369.749429 213.394583,373.302863 C221.667176,390.269937 229.93977,407.238354 238.212363,424.205429 C248.819077,404.79646 259.425791,385.386148 270.032504,365.977179 C272.168318,362.069341 277.657922,362.792916 279.659745,366.989377 C310.678621,432.029158 340.030651,463.945622 353.441793,516 C354.303354,483.738529 351.650336,349.828991 351.650336,349.828991 L478.776811,392.139954 L464.662218,368.572111 C457.559364,353.613324 450.45651,338.655879 443.353657,323.698435 C441.870378,320.567869 442.87129,317.097667 446.353711,315.925718 Z" id="Path" fill="#4125DD"></path>
                    <g id="Group" transform="translate(9.000000, 7.000000)">
                        <path d="M466.699422,348.331213 L339.512778,305.929336 C339.512778,305.929336 342.167052,440.130867 341.305083,472.462685 C327.886253,420.294801 298.521671,388.308742 267.488114,323.128485 C265.485343,318.922873 259.9918,318.199067 257.856316,322.11408 C247.244582,341.565371 236.632849,361.018007 226.021115,380.469298 C217.744606,363.465227 209.468097,346.45981 201.191588,329.455738 C199.458266,325.894556 193.736831,326.346599 192.12818,329.727502 C181.027148,353.049409 163.724767,372.413251 141.973126,385.992023 C134.417828,363.280912 126.862531,340.569801 119.307234,317.85869 C118.296465,314.820855 114.442406,312.801461 111.549515,314.849107 L51.0803268,357.639795 C56.8915783,328.804581 68.6226651,301.656456 85.7105596,277.552891 C87.8594491,274.521783 85.0778235,270.964638 82.3149656,269.97714 C60.7804919,262.28165 39.2446777,254.587506 17.710204,246.892017 C40.9525287,233.334771 64.196194,219.777525 87.4385188,206.220279 C89.7228031,204.888368 90.8207073,201.245119 89.1557536,199.005085 C70.2822567,173.611316 51.4087597,148.216201 32.5352628,122.822432 C53.7359414,123.38614 108.883176,124.3992 108.883176,124.3992 C108.883176,124.3992 95.7753522,71.4160247 90.5324907,50.8373175 C114.508092,74.1242449 142.001277,93.5809175 171.979827,108.422987 C174.756091,109.79795 179.025718,108.496982 179.528422,105.015177 C183.543346,77.1714973 187.556931,49.3278176 191.571855,21.4827926 C207.22805,49.8121491 222.884245,78.1415056 238.54044,106.470862 C240.055253,109.212717 244.812838,110.009173 246.815609,107.304989 C266.236047,81.1013092 285.656485,54.8962845 305.075583,28.6912598 C306.605142,58.1668675 308.13336,87.6438205 309.662919,117.119428 C309.854617,120.817837 314.273045,123.913523 317.625741,121.474376 C348.120401,99.277194 378.61506,77.0786671 409.109719,54.8814855 C404.357496,82.4789633 399.606614,110.076441 394.854391,137.673919 C394.318174,140.785749 396.499237,144.446488 400.053015,144.138399 C430.652236,141.485339 461.250117,138.832278 491.849339,136.179218 C471.584359,155.845768 451.319379,175.512317 431.055739,195.177521 C428.565012,197.595143 429.610635,201.796718 432.413709,203.384249 C457.922891,217.84289 483.433414,232.301531 508.942596,246.760171 C484.048722,255.157941 459.154849,263.557056 434.260976,271.954827 C430.776907,273.130676 429.776862,276.6071 431.262183,279.740455 C438.368398,294.730515 445.474614,309.72192 452.580829,324.71198 L466.699422,348.331213 Z" id="Path" fill="#FFFFFF"></path>
                        <path d="M130.055703,117.941446 C122.678698,97.0290887 115.301693,76.1180763 107.924688,55.2057185 C106.691389,51.7091142 103.092033,51.0283593 100.479316,52.1773013 C98.3585774,50.0260622 96.2391798,47.8761685 94.1197823,45.7249294 C90.1812686,41.7291946 84.6609148,46.3209263 85.5309269,51.0202872 C89.5217217,72.5716934 93.5138571,94.1217543 97.5046519,115.673161 C91.2724701,116.488452 91.6210112,126.446846 98.186988,126.09436 C107.173984,125.611374 116.162322,125.128388 125.149318,124.645402 C128.335787,124.47454 131.220635,121.244318 130.055703,117.941446 Z" id="Path" fill="#C2C3C8"></path>
                        <path d="M346.003684,342.051048 C345.266386,341.629948 344.503617,341.243829 343.69527,340.930359 C337.501964,338.530227 341.972673,369.573185 338.463133,367.900896 C330.214775,363.971084 317.329481,351.00849 311.24744,344.350277 C297.721367,329.544532 287.313396,312.011732 280.47797,293.156438 C278.906854,288.820326 273.249765,288.085756 270.846173,292.142032 C262.675566,305.929336 254.506301,319.717984 246.337035,333.505288 C233.584455,322.866139 223.042429,310.141674 214.960299,295.481229 C213.328859,292.521425 208.878258,292.191811 206.685131,294.647103 C190.185734,313.113586 173.684997,331.581415 157.185601,350.047899 C147.071208,330.460726 136.956816,310.873553 126.842423,291.28638 C125.508583,288.701933 121.969551,288.249891 119.653094,289.562967 C112.329711,293.713419 105.006327,297.865216 97.6842846,302.015668 C104.869592,286.587019 112.053559,271.15837 119.238866,255.729721 C120.733571,252.518334 119.163796,249.203354 115.843272,248.15397 C95.3812327,241.689489 74.9178524,235.226355 54.4558127,228.761874 C63.6934906,222.571849 72.9325091,216.381823 82.170187,210.193143 C90.7188261,204.465923 105.67928,198.037768 107.199455,186.399013 C108.742419,174.584015 96.3330178,163.058271 89.942652,154.489639 C81.0374286,142.548177 72.1322052,130.60806 63.2269818,118.666598 C63.2336846,115.992012 61.5070659,113.379313 58.0833205,113.595917 C49.2866811,114.152898 40.4887011,114.711224 31.6920616,115.268206 C27.9506077,115.50499 24.9973927,119.834375 27.3527257,123.259675 C44.7811179,148.602321 62.2095101,173.943621 79.6392429,199.286267 C76.9005147,201.121345 74.1617865,202.956423 71.4243988,204.790156 C60.8716488,211.861396 16.9420732,240.029309 6.73116146,244.795938 C3.87178445,246.13054 2.92268041,251.96808 5.90002515,253.100878 C32.4427654,263.208607 49.1043673,266.161684 76.9782661,274.484113 C64.5836108,297.649958 50.9677213,327.440381 44.3320362,352.901419 C43.3038402,356.84872 47.7209275,364.034316 50.8698617,361.850789 C81.1862288,340.82542 98.6132805,325.613375 115.942473,321.043169 L137.489011,389.329874 C138.312104,391.947955 141.233146,393.830121 143.965172,392.909891 C153.439404,389.72222 161.376282,383.804977 168.236908,376.415836 C179.432907,364.357342 187.762672,348.378938 195.230195,333.946567 C202.277427,349.272969 216.02603,374.015581 223.073262,389.341982 C224.807924,393.115732 230.404688,392.219719 232.136669,389.070219 C239.956053,374.855089 259.344318,335.049767 260.132557,334.998643 C261.233143,334.927339 321.993229,425.276689 339.042247,476.931988 C340.923028,482.630956 349.13251,481.334024 349.290694,475.357911 C350.242479,439.560432 349.046715,341.130818 346.003684,342.051048 Z" id="Path" fill="#38C6DB"></path>
                        <path d="M474.957164,347.961237 C469.355037,344.665093 465.72887,339.891737 463.838705,333.942531 C468.451511,332.862203 469.503837,325.076574 463.842726,323.712374 C423.709567,314.041888 384.459825,301.116964 346.46215,284.936256 C343.075939,283.494024 338.483241,285.436732 338.771458,289.677323 C339.309015,297.609597 339.845232,305.54187 340.38279,313.475489 C340.759482,319.031848 347.936746,319.841758 350.175452,316.163529 C390.541866,330.005993 430.90962,343.848456 471.276034,357.689574 C477.091307,359.68475 479.874273,350.855118 474.957164,347.961237 Z" id="Path" fill="#C2C3C8"></path>
                        <path d="M516.755277,241.842861 L432.136217,252.983831 C429.128039,253.379368 427.241896,255.253462 427.024728,258.343766 C426.488511,265.985441 428.673596,273.259831 433.38024,279.29783 C435.907163,282.538815 440.27599,281.715452 442.285463,279.362408 C467.128396,271.477222 491.969988,263.592036 516.81158,255.70685 C519.444405,254.871378 520.487347,252.681124 520.382785,250.529885 C523.176475,247.327915 521.932452,241.160761 516.755277,241.842861 Z" id="Path" fill="#C2C3C8"></path>
                        <path d="M486.14399,365.814235 C484.174733,356.063027 452.418624,300.094487 442.934286,280.08756 C469.680789,271.064195 496.427291,262.04083 523.172453,253.017465 C527.495703,251.559089 528.239704,245.650245 524.183222,243.351015 C497.301325,228.114754 470.418087,212.877147 443.53619,197.640885 C465.645756,176.185 487.755322,154.727769 509.863548,133.271884 C513.00712,130.220595 510.36223,124.061513 505.926375,124.446288 C472.692988,127.32806 439.460941,130.209832 406.228894,133.091605 C411.324295,103.497605 416.419697,73.9022597 421.51644,44.3082598 C422.221565,40.2129679 417.627526,35.7584635 413.697055,38.6200555 C382.333725,61.4495587 350.971734,84.2804074 319.608404,107.109911 C317.994391,76.0104471 316.381718,44.9123288 314.767705,13.8128652 C314.553218,9.68393922 308.610593,6.44564501 305.719043,10.3472043 C285.027771,38.2662244 264.337839,66.1852445 243.646567,94.1042646 C226.793267,63.60887 209.941308,33.1148208 193.088009,2.61942618 C190.996762,-1.16508632 184.201553,-0.37266618 183.550049,4.14641576 C179.145027,34.7023518 174.738664,65.2596332 170.333641,95.8155692 C137.959542,78.8289873 108.905965,56.378877 84.1944061,29.2966741 C80.5293631,25.2807588 74.4111274,29.9034339 75.6055507,34.5920318 C82.3511602,61.0688204 89.0967698,87.5456089 95.8423793,114.022397 C71.1683552,113.365859 46.4943312,112.707976 21.8189666,112.051437 C18.0627667,111.95188 15.1283193,116.878608 17.4796307,120.042907 C37.327702,146.748408 57.1771138,173.455254 77.0251851,200.1621 C52.2291717,214.624776 27.4331583,229.087453 2.63714487,243.55013 C-1.62846116,246.039055 0.158481906,251.69228 4.15866053,253.122403 C27.0993632,261.319714 50.0400659,269.517025 72.9794281,277.714335 C54.9451107,304.775012 43.2180455,335.672671 38.7379526,367.961438 C38.1695626,372.058075 42.5209634,376.505852 46.5573367,373.649642 C68.221843,358.319205 89.8850087,342.988767 111.549515,327.65833 C119.048509,350.19858 126.546163,372.737484 134.045158,395.276389 C135.152446,398.603477 138.761186,399.986512 141.802877,398.285971 C164.710066,385.480784 183.666676,366.559567 196.585484,343.785224 C204.828479,360.722027 213.072815,377.65883 221.315811,394.595634 C223.1175,398.298079 228.623107,397.543329 230.379218,394.32387 C240.488249,375.794154 250.597279,357.263093 260.704969,338.733377 C292.032105,395.326167 316.530518,438.924074 337.347802,488.894976 C342.164371,500.4557 354.754745,498.706725 353.513403,485.974188 L351.844428,322.107353 L486.14399,365.814235 Z M466.699422,348.331213 L339.512778,305.929336 C339.512778,305.929336 342.167052,440.130867 341.305083,472.462685 C327.886253,420.294801 298.521671,388.308742 267.488114,323.128485 C265.485343,318.922873 259.9918,318.199067 257.856316,322.11408 C247.244582,341.565371 236.632849,361.018007 226.021115,380.469298 C217.744606,363.465227 209.468097,346.45981 201.191588,329.455738 C199.458266,325.894556 193.736831,326.346599 192.12818,329.727502 C181.027148,353.049409 163.724767,372.413251 141.973126,385.992023 C134.417828,363.280912 126.862531,340.569801 119.307234,317.85869 C118.296465,314.820855 114.442406,312.801461 111.549515,314.849107 L51.0803268,357.639795 C56.8915783,328.804581 68.6226651,301.656456 85.7105596,277.552891 C87.8594491,274.521783 85.0778235,270.964638 82.3149656,269.97714 C60.7804919,262.28165 39.2446777,254.587506 17.710204,246.892017 C40.9525287,233.334771 64.196194,219.777525 87.4385188,206.220279 C89.7228031,204.888368 90.8207073,201.245119 89.1557536,199.005085 C70.2822567,173.611316 51.4087597,148.216201 32.5352628,122.822432 C53.7359414,123.38614 108.883176,124.3992 108.883176,124.3992 C108.883176,124.3992 95.7753522,71.4160247 90.5324907,50.8373175 C114.508092,74.1242449 142.001277,93.5809175 171.979827,108.422987 C174.756091,109.79795 179.025718,108.496982 179.528422,105.015177 C183.543346,77.1714973 187.556931,49.3278176 191.571855,21.4827926 C207.22805,49.8121491 222.884245,78.1415056 238.54044,106.470862 C240.055253,109.212717 244.812838,110.009173 246.815609,107.304989 C266.236047,81.1013092 285.656485,54.8962845 305.075583,28.6912598 C306.605142,58.1668675 308.13336,87.6438205 309.662919,117.119428 C309.854617,120.817837 314.273045,123.913523 317.625741,121.474376 C348.120401,99.277194 378.61506,77.0786671 409.109719,54.8814855 C404.357496,82.4789633 399.606614,110.076441 394.854391,137.673919 C394.318174,140.785749 396.499237,144.446488 400.053015,144.138399 C430.652236,141.485339 461.250117,138.832278 491.849339,136.179218 C471.584359,155.845768 451.319379,175.512317 431.055739,195.177521 C428.565012,197.595143 429.610635,201.796718 432.413709,203.384249 C457.922891,217.84289 483.433414,232.301531 508.942596,246.760171 C484.048722,255.157941 459.154849,263.557056 434.260976,271.954827 C430.776907,273.130676 429.776862,276.6071 431.262183,279.740455 C438.368398,294.730515 445.474614,309.72192 452.580829,324.71198 L466.699422,348.331213 Z" id="Shape" fill="#C418A3"></path>
                    </g>
                </g>
                <g id="location" transform="translate(159.000000, 151.000000)" fill="#38C6DB" font-family="Helvetica" font-weight="normal">
                    <text id="Atlanta" font-size="47" letter-spacing="10.9666651">
                        <tspan x="0" y="60">Atlanta</tspan>
                    </text>
                    <text id="GA" font-size="62" letter-spacing="14.4666646">
                        <tspan x="67" y="126">GA</tspan>
                    </text>
                </g>
            </g>
        </g>
    </g>
</svg>