<?xml version="1.0" encoding="UTF-8"?>
<svg width="1180px" height="38px" viewBox="0 0 1180 38" version="1.1" xmlns="http://www.w3.org/2000/svg" xmlns:xlink="http://www.w3.org/1999/xlink">
    <!-- Generator: Sketch 59.1 (86144) - https://sketch.com -->
    <title>AUGUST12-142020 2</title>
    <desc>Created with Sketch.</desc>
    <g id="meta-image-msapp" stroke="none" stroke-width="1" fill="none" fill-rule="evenodd">
        <g id="AUGUST12-142020-2" transform="translate(0.165648, 0.031250)" fill="#C418A3" fill-rule="nonzero">
            <path d="M30.9375,2.8125 L49.5,37.96875 L39.375,37.96875 L35.859375,30.9375 L13.359375,30.9375 L9.84375,37.96875 L0,37.96875 L18.28125,2.8125 C19.2187547,0.937490625 21.3281086,0 24.609375,0 C27.8906414,0 30,0.937490625 30.9375,2.8125 Z M24.609375,8.4375 L16.875,23.90625 L32.34375,23.90625 L24.609375,8.4375 Z M120.862498,0 L120.862498,30.9375 C120.862498,35.6250234 118.050026,37.96875 112.424998,37.96875 L80.0812476,37.96875 C74.4562195,37.96875 71.6437476,35.6250234 71.6437476,30.9375 L71.6437476,0 L80.0812476,0 L80.0812476,29.53125 C80.0812476,30.4687547 80.5499929,30.9375 81.4874976,30.9375 L111.018748,30.9375 C111.956252,30.9375 112.424998,30.4687547 112.424998,29.53125 L112.424998,0 L120.862498,0 Z M195.318745,0 L195.318745,7.03125 L155.943745,7.03125 C155.006241,7.03125 154.537495,7.5 154.537495,8.4375 L154.537495,29.53125 C154.537495,30.4687547 155.006241,30.9375 155.943745,30.9375 L186.881245,30.9375 L186.881245,21.09375 L170.70937,21.09375 L170.70937,14.0625 L195.318745,14.0625 L195.318745,30.9375 C195.318745,35.6250234 192.506273,37.96875 186.881245,37.96875 L154.537495,37.96875 C148.912467,37.96875 146.099995,35.6250234 146.099995,30.9375 L146.099995,7.03125 C146.099995,2.34372656 148.912467,0 154.537495,0 L195.318745,0 Z M269.774993,0 L269.774993,30.9375 C269.774993,35.6250234 266.962521,37.96875 261.337493,37.96875 L228.993743,37.96875 C223.368715,37.96875 220.556243,35.6250234 220.556243,30.9375 L220.556243,0 L228.993743,0 L228.993743,29.53125 C228.993743,30.4687547 229.462488,30.9375 230.399993,30.9375 L259.931243,30.9375 C260.868747,30.9375 261.337493,30.4687547 261.337493,29.53125 L261.337493,0 L269.774993,0 Z M344.23124,0 L344.23124,7.03125 L304.85624,7.03125 C303.918736,7.5 303.44999,8.20312031 303.44999,9.140625 C303.44999,10.0781297 303.918736,10.7812477 304.85624,11.25 L334.38749,19.6875 L335.174666,19.9194356 C341.212411,21.754615 344.23124,24.0210324 344.23124,26.71875 L344.23124,30.9375 C344.23124,35.6250234 341.418769,37.96875 335.79374,37.96875 L295.01249,37.96875 L295.01249,30.9375 L334.38749,30.9375 C335.324995,30.4687477 335.79374,29.7656297 335.79374,28.828125 C335.79374,27.8906203 335.324995,27.1875023 334.38749,26.71875 L304.85624,18.28125 C298.293708,16.4062406 295.01249,14.0625141 295.01249,11.25 L295.01249,7.03125 C295.01249,2.34372656 297.824962,0 303.44999,0 L344.23124,0 Z M366.656238,7.03125 L366.656238,0 L415.874988,0 L415.874988,7.03125 L395.484363,7.03125 L395.484363,37.96875 L387.046863,37.96875 L387.046863,7.03125 L366.656238,7.03125 Z M486.881233,0 L493.912483,0 C499.537511,0 502.349983,2.34372656 502.349983,7.03125 L502.349983,37.96875 L493.912483,37.96875 L493.912483,8.4375 C493.912483,7.5 493.443738,7.03125 492.506233,7.03125 L486.881233,7.03125 L486.881233,0 Z M527.587481,0 L568.368731,0 C573.993759,0 576.806231,2.34372656 576.806231,7.03125 L576.806231,14.0625 C576.806231,18.7500234 573.993759,21.09375 568.368731,21.09375 L537.431231,21.09375 C536.493726,21.09375 536.024981,21.5624953 536.024981,22.5 L536.024981,30.9375 L576.806231,30.9375 L576.806231,37.96875 L527.587481,37.96875 L527.587481,21.09375 C527.587481,16.4062266 530.399953,14.0625 536.024981,14.0625 L566.962481,14.0625 C567.899985,14.0625 568.368731,13.5937547 568.368731,12.65625 L568.368731,8.4375 C568.368731,7.5 567.899985,7.03125 566.962481,7.03125 L527.587481,7.03125 L527.587481,0 Z M650.624976,15.46875 L666.093726,15.46875 L666.093726,21.09375 L650.624976,21.09375 L650.624976,15.46875 Z M738.506221,0 L745.537471,0 C751.162499,0 753.974971,2.34372656 753.974971,7.03125 L753.974971,37.96875 L745.537471,37.96875 L745.537471,8.4375 C745.537471,7.5 745.068726,7.03125 744.131221,7.03125 L738.506221,7.03125 L738.506221,0 Z M819.993719,37.96875 L819.993719,30.9375 L787.649969,30.9375 C782.024941,30.9375 779.212469,28.5937734 779.212469,23.90625 C779.212469,21.0937359 782.024941,18.2812641 787.649969,15.46875 L814.368719,1.40625 C816.243728,0.468745313 818.118709,0 819.993719,0 L828.431219,0 L828.431219,37.96875 L819.993719,37.96875 Z M819.993719,23.90625 L819.993719,7.03125 L787.649969,23.90625 L819.993719,23.90625 Z M906.468714,0 L947.249964,0 C952.874992,0 955.687464,2.34372656 955.687464,7.03125 L955.687464,14.0625 C955.687464,18.7500234 952.874992,21.09375 947.249964,21.09375 L916.312464,21.09375 C915.374959,21.09375 914.906214,21.5624953 914.906214,22.5 L914.906214,30.9375 L955.687464,30.9375 L955.687464,37.96875 L906.468714,37.96875 L906.468714,21.09375 C906.468714,16.4062266 909.281186,14.0625 914.906214,14.0625 L945.843714,14.0625 C946.781219,14.0625 947.249964,13.5937547 947.249964,12.65625 L947.249964,8.4375 C947.249964,7.5 946.781219,7.03125 945.843714,7.03125 L906.468714,7.03125 L906.468714,0 Z M989.362462,0 L1021.70621,0 C1027.33124,0 1030.14371,2.34372656 1030.14371,7.03125 L1030.14371,30.9375 C1030.14371,35.6250234 1027.33124,37.96875 1021.70621,37.96875 L989.362462,37.96875 C983.737433,37.96875 980.924962,35.6250234 980.924962,30.9375 L980.924962,7.03125 C980.924962,2.34372656 983.737433,0 989.362462,0 Z M1020.29996,7.03125 L990.768712,7.03125 C989.831207,7.03125 989.362462,7.49999531 989.362462,8.4375 L989.362462,29.53125 C989.362462,30.4687547 989.831207,30.9375 990.768712,30.9375 L1020.29996,30.9375 C1021.23747,30.9375 1021.70621,30.4687547 1021.70621,29.53125 L1021.70621,8.4375 C1021.70621,7.49999531 1021.23747,7.03125 1020.29996,7.03125 Z M1055.38121,0 L1096.16246,0 C1101.78749,0 1104.59996,2.34372656 1104.59996,7.03125 L1104.59996,14.0625 C1104.59996,18.7500234 1101.78749,21.09375 1096.16246,21.09375 L1065.22496,21.09375 C1064.28745,21.09375 1063.81871,21.5624953 1063.81871,22.5 L1063.81871,30.9375 L1104.59996,30.9375 L1104.59996,37.96875 L1055.38121,37.96875 L1055.38121,21.09375 C1055.38121,16.4062266 1058.19368,14.0625 1063.81871,14.0625 L1094.75621,14.0625 C1095.69371,14.0625 1096.16246,13.5937547 1096.16246,12.65625 L1096.16246,8.4375 C1096.16246,7.5 1095.69371,7.03125 1094.75621,7.03125 L1055.38121,7.03125 L1055.38121,0 Z M1170.61871,0 C1176.24373,0 1179.05621,2.34372656 1179.05621,7.03125 L1179.05621,30.9375 C1179.05621,35.6250234 1176.24373,37.96875 1170.61871,37.96875 L1138.27496,37.96875 C1132.64993,37.96875 1129.83746,35.6250234 1129.83746,30.9375 L1129.83746,7.03125 C1129.83746,2.34372656 1132.64993,0 1138.27496,0 L1170.61871,0 Z M1169.21246,7.03125 L1139.68121,7.03125 C1138.7437,7.03125 1138.27496,7.49999531 1138.27496,8.4375 L1138.27496,8.4375 L1138.27496,29.53125 C1138.27496,30.4687547 1138.7437,30.9375 1139.68121,30.9375 L1139.68121,30.9375 L1169.21246,30.9375 C1170.14996,30.9375 1170.61871,30.4687547 1170.61871,29.53125 L1170.61871,29.53125 L1170.61871,8.4375 C1170.61871,7.49999531 1170.14996,7.03125 1169.21246,7.03125 L1169.21246,7.03125 Z" id="AUGUST12-142020"></path>
        </g>
    </g>
</svg>