<?xml version="1.0" encoding="UTF-8"?>
<svg width="432px" height="113px" viewBox="0 0 432 113" version="1.1" xmlns="http://www.w3.org/2000/svg" xmlns:xlink="http://www.w3.org/1999/xlink">
    <title>Group 2</title>
    <g id="Page-1" stroke="none" stroke-width="1" fill="none" fill-rule="evenodd">
        <g id="Home-(1)" transform="translate(-468.000000, -578.812500)" fill="#FFFFFF" fill-rule="nonzero">
            <g id="Group-2" transform="translate(468.279116, 579.682143)">
                <g id="Shape" transform="translate(138.411449, 79.517679)">
                    <path d="M15.3958333,28 L10.9583333,28 L10.2083333,22.9166667 L4.8125,22.9166667 L4.04166667,28 L0,28 L4.47916667,0 L10.9166667,0 L15.3958333,28 Z M5.35416667,19.125 L9.60416667,19.125 L7.47916667,4.95833333 L5.35416667,19.125 Z"></path>
                </g>
                <g id="Path" transform="translate(154.566431, 79.517679)">
                    <polygon points="0 0 13.6041667 0 13.6041667 4 9 4 9 28 4.60416667 28 4.60416667 4 0 4"></polygon>
                </g>
                <g id="Path" transform="translate(170.098085, 79.517679)">
                    <polygon points="0 0 4.39583333 0 4.39583333 24 11.6458333 24 11.6458333 28 0 28"></polygon>
                </g>
                <g id="Shape" transform="translate(182.491400, 79.517679)">
                    <path d="M15.3958333,28 L10.9583333,28 L10.2083333,22.9166667 L4.8125,22.9166667 L4.04166667,28 L0,28 L4.47916667,0 L10.9166667,0 L15.3958333,28 Z M5.35416667,19.125 L9.60416667,19.125 L7.47916667,4.95833333 L5.35416667,19.125 Z"></path>
                </g>
                <g id="Path" transform="translate(199.896381, 79.517679)">
                    <polygon points="3.95833333 7.72916667 3.95833333 28 0 28 0 0 5.52083333 0 10.0416667 16.75 10.0416667 0 13.9583333 0 13.9583333 28 9.4375 28"></polygon>
                </g>
                <g id="Path" transform="translate(215.726367, 79.517679)">
                    <polygon points="0 0 13.6041667 0 13.6041667 4 9 4 9 28 4.60416667 28 4.60416667 4 0 4"></polygon>
                </g>
                <g id="Shape" transform="translate(230.091355, 79.517679)">
                    <path d="M15.3958333,28 L10.9583333,28 L10.2083333,22.9166667 L4.8125,22.9166667 L4.04166667,28 L0,28 L4.47916667,0 L10.9166667,0 L15.3958333,28 Z M5.35416667,19.125 L9.60416667,19.125 L7.47916667,4.95833333 L5.35416667,19.125 Z"></path>
                </g>
                <g id="Path" transform="translate(247.538003, 103.267679)">
                    <polygon points="0 4.25 0 0 4.22916667 0 4.22916667 3.8125 2.3125 8.25 0.520833333 8.25 1.66666667 4.25"></polygon>
                </g>
                <g id="Path" transform="translate(260.823819, 79.205179)">
                    <path d="M6.95833333,12.7083333 L13.1041667,12.7083333 L13.1041667,21.5833333 C13.1041667,23.8645827 12.5468747,25.6041667 11.4375,26.8125 C10.3385413,28.0208333 8.70833333,28.625 6.54166667,28.625 C4.385416,28.625 2.755208,28.0208333 1.64583333,26.8125 C0.546874667,25.6041667 0,23.8645827 0,21.5833333 L0,7.04166667 C0,4.76562533 0.546874667,3.02083333 1.64583333,1.8125 C2.755208,0.604166667 4.385416,0 6.54166667,0 C8.70833333,0 10.3385413,0.604166667 11.4375,1.8125 C12.5468747,3.02083333 13.1041667,4.76562533 13.1041667,7.04166667 L13.1041667,9.75 L8.95833333,9.75 L8.95833333,6.75 C8.95833333,5.73958267 8.75,5.03124933 8.33333333,4.625 C7.91666667,4.20833333 7.35937467,4 6.66666667,4 C5.96874933,4 5.41666667,4.20833333 5,4.625 C4.59374933,5.03124933 4.39583333,5.73958267 4.39583333,6.75 L4.39583333,21.875 C4.39583333,22.8906253 4.59374933,23.5989587 5,24 C5.41666667,24.3906253 5.96874933,24.5833333 6.66666667,24.5833333 C7.35937467,24.5833333 7.91666667,24.3906253 8.33333333,24 C8.75,23.5989587 8.95833333,22.8906253 8.95833333,21.875 L8.95833333,16.7083333 L6.95833333,16.7083333 L6.95833333,12.7083333 Z"></path>
                </g>
                <g id="Shape" transform="translate(275.611308, 79.517679)">
                    <path d="M15.3958333,28 L10.9583333,28 L10.2083333,22.9166667 L4.8125,22.9166667 L4.04166667,28 L0,28 L4.47916667,0 L10.9166667,0 L15.3958333,28 Z M5.35416667,19.125 L9.60416667,19.125 L7.47916667,4.95833333 L5.35416667,19.125 Z"></path>
                </g>
                <g id="Shape" transform="translate(-0.000000, 0.000000)">
                    <path d="M0,14.0833333 C0,9.76562533 1.04687467,6.34375067 3.14583333,3.8125 C5.255208,1.27083333 8.46875067,0 12.7916667,0 C17.1093747,0 20.3333333,1.27083333 22.4583333,3.8125 C24.5937507,6.34375067 25.6666667,9.76562533 25.6666667,14.0833333 L25.6666667,43.0416667 C25.6666667,47.307292 24.5937507,50.7239587 22.4583333,53.2916667 C20.3333333,55.8489587 17.1093747,57.125 12.7916667,57.125 C8.46875067,57.125 5.255208,55.8489587 3.14583333,53.2916667 C1.04687467,50.7239587 0,47.307292 0,43.0416667 L0,14.0833333 Z M6.14583333,43.3541667 C6.14583333,45.927084 6.692708,47.9166667 7.79166667,49.3333333 C8.88541733,50.7395827 10.552084,51.4375 12.7916667,51.4375 C15.0833333,51.4375 16.7604173,50.7395827 17.8333333,49.3333333 C18.9010413,47.9166667 19.4375,45.927084 19.4375,43.3541667 L19.4375,13.7708333 C19.4375,11.2031253 18.9010413,9.21875067 17.8333333,7.8125 C16.7604173,6.39583333 15.0833333,5.6875 12.7916667,5.6875 C10.552084,5.6875 8.88541733,6.39583333 7.79166667,7.8125 C6.692708,9.21875067 6.14583333,11.2031253 6.14583333,13.7708333 L6.14583333,43.3541667 Z"></path>
                </g>
                <g id="Path" transform="translate(31.119961, 0.000000)">
                    <path d="M12.5416667,0 C16.8593747,0 20.0468747,1.28645867 22.1041667,3.85416667 C24.1562493,6.41145867 25.1875,9.822916 25.1875,14.0833333 L25.1875,19.125 L19.2708333,19.125 L19.2708333,13.7708333 C19.2708333,11.2031253 18.75,9.21875067 17.7083333,7.8125 C16.6666667,6.39583333 15,5.6875 12.7083333,5.6875 C10.4687507,5.6875 8.817708,6.39583333 7.75,7.8125 C6.677084,9.21875067 6.14583333,11.2031253 6.14583333,13.7708333 L6.14583333,43.3541667 C6.14583333,45.927084 6.677084,47.9166667 7.75,49.3333333 C8.817708,50.7395827 10.4687507,51.4375 12.7083333,51.4375 C15,51.4375 16.6666667,50.7395827 17.7083333,49.3333333 C18.75,47.9166667 19.2708333,45.927084 19.2708333,43.3541667 L19.2708333,36.0833333 L25.1875,36.0833333 L25.1875,43.0416667 C25.1875,47.307292 24.1562493,50.7239587 22.1041667,53.2916667 C20.0468747,55.8489587 16.8593747,57.125 12.5416667,57.125 C8.27604133,57.125 5.11458267,55.8489587 3.0625,53.2916667 C1.02083333,50.7239587 0,47.307292 0,43.0416667 L0,14.0833333 C0,11.947916 0.25,10.0156253 0.75,8.29166667 C1.26041733,6.557292 2.03124933,5.07812533 3.0625,3.85416667 C4.10416667,2.619792 5.40624933,1.66666667 6.97916667,1 C8.5625,0.333333333 10.4166667,0 12.5416667,0 Z"></path>
                </g>
                <g id="Path" transform="translate(59.832437, 0.562500)">
                    <polygon points="10.3125 56 10.3125 5.6875 0 5.6875 0 0 26.875 0 26.875 5.6875 16.5625 5.6875 16.5625 56"></polygon>
                </g>
                <g id="Shape" transform="translate(90.559912, 0.000000)">
                    <path d="M0,14.0833333 C0,9.76562533 1.04687467,6.34375067 3.14583333,3.8125 C5.255208,1.27083333 8.46875067,0 12.7916667,0 C17.1093747,0 20.3333333,1.27083333 22.4583333,3.8125 C24.5937507,6.34375067 25.6666667,9.76562533 25.6666667,14.0833333 L25.6666667,43.0416667 C25.6666667,47.307292 24.5937507,50.7239587 22.4583333,53.2916667 C20.3333333,55.8489587 17.1093747,57.125 12.7916667,57.125 C8.46875067,57.125 5.255208,55.8489587 3.14583333,53.2916667 C1.04687467,50.7239587 0,47.307292 0,43.0416667 L0,14.0833333 Z M6.14583333,43.3541667 C6.14583333,45.927084 6.692708,47.9166667 7.79166667,49.3333333 C8.88541733,50.7395827 10.552084,51.4375 12.7916667,51.4375 C15.0833333,51.4375 16.7604173,50.7395827 17.8333333,49.3333333 C18.9010413,47.9166667 19.4375,45.927084 19.4375,43.3541667 L19.4375,13.7708333 C19.4375,11.2031253 18.9010413,9.21875067 17.8333333,7.8125 C16.7604173,6.39583333 15.0833333,5.6875 12.7916667,5.6875 C10.552084,5.6875 8.88541733,6.39583333 7.79166667,7.8125 C6.692708,9.21875067 6.14583333,11.2031253 6.14583333,13.7708333 L6.14583333,43.3541667 Z"></path>
                </g>
                <g id="Shape" transform="translate(122.159040, 0.562500)">
                    <path d="M12.5416667,0 C16.9166667,0 20.0312507,1.03125067 21.8958333,3.08333333 C23.7708333,5.14062533 24.7083333,8.244792 24.7083333,12.3958333 L24.7083333,15.0416667 C24.7083333,18.0312507 24.2291667,20.4479173 23.2708333,22.2916667 C22.3125,24.125 20.6041667,25.4166667 18.1458333,26.1666667 C20.864584,26.9062507 22.7968747,28.3125 23.9375,30.3958333 C25.0885413,32.4791667 25.6666667,35.0729173 25.6666667,38.1666667 L25.6666667,42.875 C25.6666667,47.0989587 24.625,50.3437493 22.5416667,52.6041667 C20.4687493,54.869792 17.25,56 12.875,56 L0,56 L0,0 L12.5416667,0 Z M11.0416667,23.75 C13.5416667,23.75 15.4166667,23.25 16.6666667,22.25 C17.9166667,21.239584 18.5416667,19.260416 18.5416667,16.3125 L18.5416667,13.0416667 C18.5416667,10.5312507 18.0729173,8.67708267 17.1458333,7.47916667 C16.2135413,6.28645867 14.630208,5.6875 12.3958333,5.6875 L6.22916667,5.6875 L6.22916667,23.75 L11.0416667,23.75 Z M12.875,50.3125 C17.3020827,50.3125 19.5208333,47.7864587 19.5208333,42.7291667 L19.5208333,37.75 C19.5208333,34.614584 18.885416,32.4479173 17.625,31.25 C16.375,30.0416667 14.385416,29.4375 11.6666667,29.4375 L6.22916667,29.4375 L6.22916667,50.3125 L12.875,50.3125 Z"></path>
                </g>
                <g id="Path" transform="translate(153.519007, 0.562500)">
                    <polygon points="19.9166667 24.7916667 19.9166667 30.3958333 6.22916667 30.3958333 6.22916667 50.3125 23.0416667 50.3125 23.0416667 56 0 56 0 0 23.0416667 0 23.0416667 5.6875 6.22916667 5.6875 6.22916667 24.7916667"></polygon>
                </g>
                <g id="Shape" transform="translate(182.318976, 0.562500)">
                    <path d="M12.4791667,0 C16.8958333,0 20.0729173,1.09895867 22.0208333,3.29166667 C23.9791667,5.47395867 24.9583333,8.64062533 24.9583333,12.7916667 L24.9583333,17.3541667 C24.9583333,20.4531253 24.3958333,22.9583333 23.2708333,24.875 C22.1458333,26.7916667 20.385416,28.125 18,28.875 C20.5520827,29.625 22.364584,31 23.4375,33 C24.505208,35 25.0416667,37.5208333 25.0416667,40.5625 L25.0416667,49.2708333 C25.0416667,50.510416 25.0885413,51.7031253 25.1875,52.8541667 C25.2968747,53.994792 25.614584,55.0416667 26.1458333,56 L19.8333333,56 C19.4583333,55.1979173 19.1875,54.3281253 19.0208333,53.3958333 C18.864584,52.4687493 18.7916667,51.0729173 18.7916667,49.2083333 L18.7916667,40.3958333 C18.7916667,37.260416 18.0833333,35.0937493 16.6666667,33.8958333 C15.25,32.6875 13.2343747,32.0833333 10.625,32.0833333 L6.22916667,32.0833333 L6.22916667,56 L0,56 L0,0 L12.4791667,0 Z M10.875,26.3958333 C13.375,26.3958333 15.317708,25.875 16.7083333,24.8333333 C18.0937493,23.7916667 18.7916667,21.760416 18.7916667,18.7291667 L18.7916667,13.3541667 C18.7916667,10.8020827 18.2968747,8.885416 17.3125,7.60416667 C16.3229173,6.32812533 14.6562507,5.6875 12.3125,5.6875 L6.22916667,5.6875 L6.22916667,26.3958333 L10.875,26.3958333 Z"></path>
                </g>
                <g id="Path" transform="translate(226.238939, 0.000000)">
                    <path d="M12.5416667,0 C16.9166667,0 20.114584,1.28645867 22.1458333,3.85416667 C24.1718747,6.41145867 25.1875,9.84895867 25.1875,14.1666667 C25.1875,16.9895827 24.7187493,19.5364587 23.7916667,21.8125 C22.8593747,24.0781253 21.6875,26.182292 20.2708333,28.125 C18.8541667,30.072916 17.3333333,31.8958333 15.7083333,33.6041667 C14.0833333,35.3125 12.5625,37.0208333 11.1458333,38.7291667 C9.739584,40.4375 8.55208267,42.2187507 7.58333333,44.0625 C6.625,45.8958333 6.14583333,47.875 6.14583333,50 L6.14583333,50.875 L24.5416667,50.875 L24.5416667,56.5625 L0,56.5625 L0,51.7708333 C0,48.7864587 0.463541333,46.1458333 1.39583333,43.8541667 C2.32291733,41.552084 3.5,39.4531253 4.91666667,37.5625 C6.33333333,35.677084 7.85416667,33.8906253 9.47916667,32.2083333 C11.1041667,30.5312493 12.614584,28.807292 14.0208333,27.0416667 C15.4375,25.2812493 16.6093747,23.3854173 17.5416667,21.3541667 C18.4843747,19.3281253 18.9583333,17.0104173 18.9583333,14.3958333 C18.9583333,11.5208333 18.4479173,9.34375067 17.4375,7.85416667 C16.4218747,6.35416667 14.739584,5.60416667 12.3958333,5.60416667 C10.1041667,5.60416667 8.4375,6.35416667 7.39583333,7.85416667 C6.35416667,9.34375067 5.83333333,11.3333333 5.83333333,13.8333333 L5.83333333,18.8125 L0,18.8125 L0,14.25 C0,9.932292 1.005208,6.47916667 3.02083333,3.89583333 C5.04687467,1.302084 8.21874933,0 12.5416667,0 Z"></path>
                </g>
                <g id="Path" transform="translate(256.782260, 0.562500)">
                    <polygon points="19.0416667 5.60416667 0 5.60416667 0 0 25.375 0 25.375 5.4375 10.9583333 56 4.72916667 56"></polygon>
                </g>
                <g id="Path" transform="translate(288.554717, 48.812500)">
                    <polygon points="2.3125 7.75 0 7.75 0 0 6 0 6 7.1875 2.875 14.7916667 0.3125 14.7916667"></polygon>
                </g>
                <g id="Path" transform="translate(313.358863, 0.000000)">
                    <path d="M12.5416667,0 C16.9166667,0 20.114584,1.28645867 22.1458333,3.85416667 C24.1718747,6.41145867 25.1875,9.84895867 25.1875,14.1666667 C25.1875,16.9895827 24.7187493,19.5364587 23.7916667,21.8125 C22.8593747,24.0781253 21.6875,26.182292 20.2708333,28.125 C18.8541667,30.072916 17.3333333,31.8958333 15.7083333,33.6041667 C14.0833333,35.3125 12.5625,37.0208333 11.1458333,38.7291667 C9.739584,40.4375 8.55208267,42.2187507 7.58333333,44.0625 C6.625,45.8958333 6.14583333,47.875 6.14583333,50 L6.14583333,50.875 L24.5416667,50.875 L24.5416667,56.5625 L0,56.5625 L0,51.7708333 C0,48.7864587 0.463541333,46.1458333 1.39583333,43.8541667 C2.32291733,41.552084 3.5,39.4531253 4.91666667,37.5625 C6.33333333,35.677084 7.85416667,33.8906253 9.47916667,32.2083333 C11.1041667,30.5312493 12.614584,28.807292 14.0208333,27.0416667 C15.4375,25.2812493 16.6093747,23.3854173 17.5416667,21.3541667 C18.4843747,19.3281253 18.9583333,17.0104173 18.9583333,14.3958333 C18.9583333,11.5208333 18.4479173,9.34375067 17.4375,7.85416667 C16.4218747,6.35416667 14.739584,5.60416667 12.3958333,5.60416667 C10.1041667,5.60416667 8.4375,6.35416667 7.39583333,7.85416667 C6.35416667,9.34375067 5.83333333,11.3333333 5.83333333,13.8333333 L5.83333333,18.8125 L0,18.8125 L0,14.25 C0,9.932292 1.005208,6.47916667 3.02083333,3.89583333 C5.04687467,1.302084 8.21874933,0 12.5416667,0 Z"></path>
                </g>
                <g id="Shape" transform="translate(343.839683, 0.000000)">
                    <path d="M0,14.0833333 C0,9.76562533 1.04687467,6.34375067 3.14583333,3.8125 C5.255208,1.27083333 8.46875067,0 12.7916667,0 C17.1093747,0 20.3333333,1.27083333 22.4583333,3.8125 C24.5937507,6.34375067 25.6666667,9.76562533 25.6666667,14.0833333 L25.6666667,42.9583333 C25.6666667,47.2812493 24.5937507,50.7239587 22.4583333,53.2916667 C20.3333333,55.8489587 17.1093747,57.125 12.7916667,57.125 C8.46875067,57.125 5.255208,55.8489587 3.14583333,53.2916667 C1.04687467,50.7239587 0,47.2812493 0,42.9583333 L0,14.0833333 Z M6.14583333,43.3541667 C6.14583333,45.927084 6.692708,47.9166667 7.79166667,49.3333333 C8.88541733,50.7395827 10.552084,51.4375 12.7916667,51.4375 C15.0833333,51.4375 16.7604173,50.7395827 17.8333333,49.3333333 C18.9010413,47.9166667 19.4375,45.927084 19.4375,43.3541667 L19.4375,13.7708333 C19.4375,11.2031253 18.9010413,9.20312533 17.8333333,7.77083333 C16.7604173,6.32812533 15.0833333,5.60416667 12.7916667,5.60416667 C10.552084,5.60416667 8.88541733,6.32812533 7.79166667,7.77083333 C6.692708,9.20312533 6.14583333,11.2031253 6.14583333,13.7708333 L6.14583333,43.3541667 Z"></path>
                </g>
                <g id="Path" transform="translate(375.438811, 0.000000)">
                    <path d="M12.5416667,0 C16.9166667,0 20.114584,1.28645867 22.1458333,3.85416667 C24.1718747,6.41145867 25.1875,9.84895867 25.1875,14.1666667 C25.1875,16.9895827 24.7187493,19.5364587 23.7916667,21.8125 C22.8593747,24.0781253 21.6875,26.182292 20.2708333,28.125 C18.8541667,30.072916 17.3333333,31.8958333 15.7083333,33.6041667 C14.0833333,35.3125 12.5625,37.0208333 11.1458333,38.7291667 C9.739584,40.4375 8.55208267,42.2187507 7.58333333,44.0625 C6.625,45.8958333 6.14583333,47.875 6.14583333,50 L6.14583333,50.875 L24.5416667,50.875 L24.5416667,56.5625 L0,56.5625 L0,51.7708333 C0,48.7864587 0.463541333,46.1458333 1.39583333,43.8541667 C2.32291733,41.552084 3.5,39.4531253 4.91666667,37.5625 C6.33333333,35.677084 7.85416667,33.8906253 9.47916667,32.2083333 C11.1041667,30.5312493 12.614584,28.807292 14.0208333,27.0416667 C15.4375,25.2812493 16.6093747,23.3854173 17.5416667,21.3541667 C18.4843747,19.3281253 18.9583333,17.0104173 18.9583333,14.3958333 C18.9583333,11.5208333 18.4479173,9.34375067 17.4375,7.85416667 C16.4218747,6.35416667 14.739584,5.60416667 12.3958333,5.60416667 C10.1041667,5.60416667 8.4375,6.35416667 7.39583333,7.85416667 C6.35416667,9.34375067 5.83333333,11.3333333 5.83333333,13.8333333 L5.83333333,18.8125 L0,18.8125 L0,14.25 C0,9.932292 1.005208,6.47916667 3.02083333,3.89583333 C5.04687467,1.302084 8.21874933,0 12.5416667,0 Z"></path>
                </g>
                <g id="Path" transform="translate(406.065465, 0.000000)">
                    <path d="M12.5625,0 C16.880208,0 20.067708,1.27083333 22.125,3.8125 C24.1770827,6.34375067 25.2083333,9.76562533 25.2083333,14.0833333 L25.2083333,15.5208333 C25.2083333,18.3958333 24.630208,20.8281253 23.4791667,22.8125 C22.3385413,24.7864587 20.6458333,26.197916 18.3958333,27.0416667 C20.7968747,27.947916 22.5312507,29.3958333 23.6041667,31.3958333 C24.6718747,33.3958333 25.2083333,35.8125 25.2083333,38.6458333 L25.2083333,42.9583333 C25.2083333,47.2812493 24.1770827,50.7239587 22.125,53.2916667 C20.067708,55.8489587 16.880208,57.125 12.5625,57.125 C8.29687467,57.125 5.135416,55.8333333 3.08333333,53.25 C1.02604133,50.6562493 0,47.2239587 0,42.9583333 L0,39.125 L5.85416667,39.125 L5.85416667,43.3541667 C5.85416667,45.927084 6.380208,47.9166667 7.4375,49.3333333 C8.505208,50.7395827 10.1562507,51.4375 12.3958333,51.4375 C14.6979173,51.4375 16.364584,50.7239587 17.3958333,49.2916667 C18.4375,47.8489587 18.9583333,45.6875 18.9583333,42.8125 L18.9583333,38.4791667 C18.9583333,33.0937507 16.6093747,30.322916 11.9166667,30.1666667 L8.5625,30.1666667 L8.5625,24.5625 L12.25,24.5625 C14.3333333,24.4531253 15.9687493,23.7604173 17.1666667,22.4791667 C18.3593747,21.2031253 18.9583333,19.3333333 18.9583333,16.875 L18.9583333,14.3125 C18.9583333,11.4375 18.4375,9.27083333 17.3958333,7.8125 C16.364584,6.34375067 14.6979173,5.60416667 12.3958333,5.60416667 C10.1562507,5.60416667 8.505208,6.32812533 7.4375,7.77083333 C6.380208,9.20312533 5.85416667,11.2031253 5.85416667,13.7708333 L5.85416667,16.6458333 L0,16.6458333 L0,14.0833333 C0,9.76562533 1.010416,6.34375067 3.04166667,3.8125 C5.067708,1.27083333 8.239584,0 12.5625,0 Z"></path>
                </g>
            </g>
        </g>
    </g>
</svg>