<?xml version="1.0" encoding="UTF-8"?>
<svg width="1494px" height="140px" viewBox="0 0 1494 140" version="1.1" xmlns="http://www.w3.org/2000/svg" xmlns:xlink="http://www.w3.org/1999/xlink">
    <!-- Generator: Sketch 59.1 (86144) - https://sketch.com -->
    <title>REFACTR.TECH</title>
    <desc>Created with Sketch.</desc>
    <defs>
        <path d="M1248.46931,179 C1273.26005,179 1285.65523,191.222735 1285.65523,215.668571 L1285.65523,223.751429 C1285.65523,230.32289 1284.83545,235.152842 1283.19585,238.241429 C1281.55625,241.330015 1279.0313,243.85999 1275.62094,245.831429 C1279.42481,247.27715 1282.60558,249.938552 1285.16336,253.815714 C1287.72113,257.692877 1289,262.785683 1289,269.094286 L1289,317 L1252.01083,317 L1252.01083,270.671429 C1252.01083,268.69999 1251.58454,267.024293 1250.73195,265.644286 C1249.87936,264.264279 1248.20699,263.574286 1245.7148,263.574286 L1223.2852,263.574286 L1223.2852,232.425714 L1244.14079,232.425714 C1246.76415,232.425714 1248.5021,231.735721 1249.35469,230.355714 C1250.20728,228.975707 1250.63357,227.30001 1250.63357,225.328571 L1250.63357,221.188571 C1250.63357,216.194261 1248.27259,213.697143 1243.55054,213.697143 L1220.13718,213.697143 C1218.16967,213.697143 1217.18592,214.814275 1217.18592,217.048571 L1217.18592,317 L1180,317 L1180,191.222857 C1180,183.074245 1184.06614,179 1192.19856,179 L1248.46931,179 Z M1416,179 L1416,215.077143 L1366.17505,215.077143 C1364.20568,215.077143 1363.22101,216.194275 1363.22101,218.428571 L1363.22101,277.374286 C1363.22101,279.608583 1364.20568,280.725714 1366.17505,280.725714 L1416,280.725714 L1416,317 L1338.21007,317 C1330.06998,317 1326,312.860041 1326,304.58 L1326,191.222857 C1326,183.074245 1330.06998,179 1338.21007,179 L1416,179 Z M1415,231 L1415,264 L1369,264 L1369,231 L1415,231 Z M1543,179 L1543,215.077143 L1493.17505,215.077143 C1491.20568,215.077143 1490.22101,216.194275 1490.22101,218.428571 L1490.22101,317 L1453,317 L1453,191.222857 C1453,183.074245 1457.06998,179 1465.21007,179 L1543,179 Z M1544,231 L1544,264 L1498,264 L1498,231 L1544,231 Z M1638,179 C1641.41416,179 1643.64646,180.4457 1644.69697,183.337143 L1690,317 L1608.45455,317 L1617.71212,280.725714 L1639.37879,280.725714 L1624.21212,229.074286 L1623.42424,229.074286 L1599.59091,317 L1560,317 L1602.15152,183.337143 C1603.07071,180.4457 1605.1717,179 1608.45455,179 L1638,179 Z M1800,179 L1800,215.077143 L1769.26767,215.077143 C1760.73086,215.077143 1754.59103,216.917124 1750.84797,220.597143 C1747.10491,224.277161 1745.2334,230.914238 1745.2334,240.508571 L1745.2334,255.294286 C1745.2334,264.888619 1747.10491,271.525696 1750.84797,275.205714 C1754.59103,278.885733 1760.73086,280.725714 1769.26767,280.725714 L1800,280.725714 L1800,317 L1768.67666,317 C1757.90716,317 1748.68098,315.652871 1740.99786,312.958571 C1733.31474,310.264272 1727.04356,306.354311 1722.18415,301.228571 C1717.32474,296.102832 1713.74591,289.82718 1711.44754,282.401429 C1709.14917,274.975677 1708,266.531476 1708,257.068571 L1708,238.931429 C1708,229.468524 1709.14917,221.024323 1711.44754,213.598571 C1713.74591,206.17282 1717.32474,199.897168 1722.18415,194.771429 C1727.04356,189.645689 1733.31474,185.735728 1740.99786,183.041429 C1748.68098,180.347129 1757.90716,179 1768.67666,179 L1800,179 Z M1936,179 L1936,215 L1830,215 L1830,179 L1936,179 Z M1901,222 L1901,317 L1864,317 L1864,222 L1901,222 Z M2034.46931,179 C2059.26005,179 2071.65523,191.222735 2071.65523,215.668571 L2071.65523,223.751429 C2071.65523,230.32289 2070.83545,235.152842 2069.19585,238.241429 C2067.55625,241.330015 2065.0313,243.85999 2061.62094,245.831429 C2065.42481,247.27715 2068.60558,249.938552 2071.16336,253.815714 C2073.72113,257.692877 2075,262.785683 2075,269.094286 L2075,317 L2038.01083,317 L2038.01083,270.671429 C2038.01083,268.69999 2037.58454,267.024293 2036.73195,265.644286 C2035.87936,264.264279 2034.20699,263.574286 2031.7148,263.574286 L2009.2852,263.574286 L2009.2852,232.425714 L2030.14079,232.425714 C2032.76415,232.425714 2034.5021,231.735721 2035.35469,230.355714 C2036.20728,228.975707 2036.63357,227.30001 2036.63357,225.328571 L2036.63357,221.188571 C2036.63357,216.194261 2034.27259,213.697143 2029.55054,213.697143 L2006.13718,213.697143 C2004.16967,213.697143 2003.18592,214.814275 2003.18592,217.048571 L2003.18592,317 L1966,317 L1966,191.222857 C1966,183.074245 1970.06614,179 1978.19856,179 L2034.46931,179 Z M2146,281 L2146,317 L2113,317 L2113,281 L2146,281 Z M2264,179 L2264,215 L2158,215 L2158,179 L2264,179 Z M2229,222 L2229,317 L2192,317 L2192,222 L2229,222 Z M2384,179 L2384,215.077143 L2334.17505,215.077143 C2332.20568,215.077143 2331.22101,216.194275 2331.22101,218.428571 L2331.22101,277.374286 C2331.22101,279.608583 2332.20568,280.725714 2334.17505,280.725714 L2384,280.725714 L2384,317 L2306.21007,317 C2298.06998,317 2294,312.860041 2294,304.58 L2294,191.222857 C2294,183.074245 2298.06998,179 2306.21007,179 L2384,179 Z M2383,231 L2383,264 L2337,264 L2337,231 L2383,231 Z M2511,179 L2511,215.077143 L2480.26767,215.077143 C2471.73086,215.077143 2465.59103,216.917124 2461.84797,220.597143 C2458.10491,224.277161 2456.2334,230.914238 2456.2334,240.508571 L2456.2334,255.294286 C2456.2334,264.888619 2458.10491,271.525696 2461.84797,275.205714 C2465.59103,278.885733 2471.73086,280.725714 2480.26767,280.725714 L2511,280.725714 L2511,317 L2479.67666,317 C2468.90716,317 2459.68098,315.652871 2451.99786,312.958571 C2444.31474,310.264272 2438.04356,306.354311 2433.18415,301.228571 C2428.32474,296.102832 2424.74591,289.82718 2422.44754,282.401429 C2420.14917,274.975677 2419,266.531476 2419,257.068571 L2419,238.931429 C2419,229.468524 2420.14917,221.024323 2422.44754,213.598571 C2424.74591,206.17282 2428.32474,199.897168 2433.18415,194.771429 C2438.04356,189.645689 2444.31474,185.735728 2451.99786,183.041429 C2459.68098,180.347129 2468.90716,179 2479.67666,179 L2511,179 Z M2662,179 L2662,317 L2624.94118,317 L2624.94118,263.574286 L2592,263.574286 L2592,230.848571 L2624.94118,230.848571 L2624.94118,179 L2662,179 Z M2585,179 L2585,317 L2548,317 L2548,179 L2585,179 Z" id="path-1"></path>
        <filter x="-1.2%" y="-4.3%" width="101.6%" height="110.1%" filterUnits="objectBoundingBox" id="filter-2">
            <feOffset dx="-12" dy="2" in="SourceAlpha" result="shadowOffsetOuter1"></feOffset>
            <feColorMatrix values="0 0 0 0 0.254901961   0 0 0 0 0.141176471   0 0 0 0 0.866666667  0 0 0 1 0" type="matrix" in="shadowOffsetOuter1"></feColorMatrix>
        </filter>
    </defs>
    <g id="design-v1" stroke="none" stroke-width="1" fill="none" fill-rule="evenodd">
        <g id="Artboard" transform="translate(-1168.000000, -179.000000)">
            <g id="REFACTR.TECH">
                <use fill="black" fill-opacity="1" filter="url(#filter-2)" xlink:href="#path-1"></use>
                <use fill="#C418A3" fill-rule="evenodd" xlink:href="#path-1"></use>
            </g>
        </g>
    </g>
</svg>