<?xml version="1.0" encoding="UTF-8"?>
<svg width="1376px" height="38px" viewBox="0 0 1376 38" version="1.1" xmlns="http://www.w3.org/2000/svg" xmlns:xlink="http://www.w3.org/1999/xlink">
    <!-- Generator: Sketch 59.1 (86144) - https://sketch.com -->
    <title>Slice 1</title>
    <desc>Created with Sketch.</desc>
    <g id="Page-1" stroke="none" stroke-width="1" fill="none" fill-rule="evenodd">
        <path d="M49.21875,0 L49.21875,7.03125 L9.84375,7.03125 C8.90624531,7.5 8.4375,8.20312031 8.4375,9.140625 C8.4375,10.0781297 8.90624531,10.7812477 9.84375,11.25 L39.375,19.6875 L40.1621757,19.9194356 C46.1999209,21.754615 49.21875,24.0210324 49.21875,26.71875 L49.21875,30.9375 C49.21875,35.6250234 46.4062781,37.96875 40.78125,37.96875 L0,37.96875 L0,30.9375 L39.375,30.9375 C40.3125047,30.4687477 40.78125,29.7656297 40.78125,28.828125 C40.78125,27.8906203 40.3125047,27.1875023 39.375,26.71875 L9.84375,18.28125 C3.28121719,16.4062406 0,14.0625141 0,11.25 L0,7.03125 C0,2.34372656 2.81247187,0 8.4375,0 L49.21875,0 Z M123.674998,0 L123.674998,7.03125 L84.2999976,7.03125 C83.3624929,7.03125 82.8937476,7.5 82.8937476,8.4375 L82.8937476,14.0625 L123.674998,14.0625 L123.674998,21.09375 L82.8937476,21.09375 L82.8937476,29.53125 C82.8937476,30.4687547 83.3624929,30.9375 84.2999976,30.9375 L123.674998,30.9375 L123.674998,37.96875 L82.8937476,37.96875 C77.2687195,37.96875 74.4562476,35.6250234 74.4562476,30.9375 L74.4562476,7.03125 C74.4562476,2.34372656 77.2687195,0 82.8937476,0 L123.674998,0 Z M148.912495,0 L189.693745,0 C195.318773,0 198.131245,2.34372656 198.131245,7.03125 L198.131245,14.0625 C198.131245,18.7500234 195.318773,21.09375 189.693745,21.09375 L157.349995,21.09375 L157.349995,37.96875 L148.912495,37.96875 L148.912495,14.0625 L188.287495,14.0625 C189.225,14.0625 189.693745,13.5937547 189.693745,12.65625 L189.693745,8.4375 C189.693745,7.5 189.225,7.03125 188.287495,7.03125 L148.912495,7.03125 L148.912495,0 Z M220.556243,7.03125 L220.556243,0 L269.774993,0 L269.774993,7.03125 L249.384368,7.03125 L249.384368,37.96875 L240.946868,37.96875 L240.946868,7.03125 L220.556243,7.03125 Z M341.41874,0 L341.41874,7.03125 L302.04374,7.03125 C301.106236,7.03125 300.63749,7.5 300.63749,8.4375 L300.63749,14.0625 L341.41874,14.0625 L341.41874,21.09375 L300.63749,21.09375 L300.63749,29.53125 C300.63749,30.4687547 301.106236,30.9375 302.04374,30.9375 L341.41874,30.9375 L341.41874,37.96875 L300.63749,37.96875 C295.012462,37.96875 292.19999,35.6250234 292.19999,30.9375 L292.19999,7.03125 C292.19999,2.34372656 295.012462,0 300.63749,0 L341.41874,0 Z M398.999988,37.96875 L391.968738,37.96875 L373.687488,7.03125 L373.687488,37.96875 L365.249988,37.96875 L365.249988,7.03125 C365.249988,2.34372656 368.06246,0 373.687488,0 C376.500002,0 378.843729,1.40623594 380.718738,4.21875 L395.484363,29.53125 L410.249988,4.21875 C412.124997,1.40623594 414.468724,0 417.281238,0 C422.812516,0 425.624988,2.34372656 425.718738,7.03125 L425.718738,37.96875 L417.281238,37.96875 L417.281238,7.03125 L398.999988,37.96875 Z M449.549986,0 L490.331236,0 C495.956264,0 498.768736,2.34372656 498.768736,7.03125 L498.768736,14.0625 C498.768736,15.468757 498.065618,16.6406203 496.659361,17.578125 C498.065618,18.5156297 498.768736,19.687493 498.768736,21.09375 L498.768736,30.9375 C498.768736,35.6250234 495.956264,37.96875 490.331236,37.96875 L449.549986,37.96875 L449.549986,14.0625 L488.924986,14.0625 C489.86249,14.0625 490.331236,13.5937547 490.331236,12.65625 L490.331236,8.4375 C490.331236,7.5 489.86249,7.03125 488.924986,7.03125 L449.549986,7.03125 L449.549986,0 Z M488.924986,21.09375 L457.987486,21.09375 L457.987486,30.9375 L488.924986,30.9375 C489.86249,30.9375 490.331236,30.4687547 490.331236,29.53125 L490.331236,22.5 C490.331236,21.5624953 489.86249,21.09375 488.924986,21.09375 Z M573.224983,0 L573.224983,7.03125 L533.849983,7.03125 C532.912479,7.03125 532.443733,7.5 532.443733,8.4375 L532.443733,14.0625 L573.224983,14.0625 L573.224983,21.09375 L532.443733,21.09375 L532.443733,29.53125 C532.443733,30.4687547 532.912479,30.9375 533.849983,30.9375 L573.224983,30.9375 L573.224983,37.96875 L532.443733,37.96875 C526.818705,37.96875 524.006233,35.6250234 524.006233,30.9375 L524.006233,7.03125 C524.006233,2.34372656 526.818705,0 532.443733,0 L573.224983,0 Z M598.462481,0 L639.243731,0 C644.868759,0 647.681231,2.34372656 647.681231,7.03125 L647.681231,14.0625 C647.681231,16.4062617 646.978113,17.8124977 645.571856,18.28125 C646.978113,19.2187547 647.681231,20.6249906 647.681231,22.5 L649.790606,37.96875 L641.353106,37.96875 L639.243731,22.5 C639.243731,21.5624953 638.774985,21.09375 637.837481,21.09375 L606.899981,21.09375 L606.899981,37.96875 L598.462481,37.96875 L598.462481,14.0625 L637.837481,14.0625 C638.774985,14.0625 639.243731,13.5937547 639.243731,12.65625 L639.243731,8.4375 C639.243731,7.5 638.774985,7.03125 637.837481,7.03125 L598.462481,7.03125 L598.462481,0 Z M721.499976,0 L728.531226,0 C734.156254,0 736.968726,2.34372656 736.968726,7.03125 L736.968726,37.96875 L728.531226,37.96875 L728.531226,8.4375 C728.531226,7.5 728.062481,7.03125 727.124976,7.03125 L721.499976,7.03125 L721.499976,0 Z M762.206224,37.96875 L762.206224,30.9375 L801.581224,30.9375 C802.518728,30.9375 802.987474,30.4687547 802.987474,29.53125 L802.987474,22.5 C802.987474,21.5624953 802.518728,21.09375 801.581224,21.09375 L762.206224,21.09375 L762.206224,0 L811.424974,0 L811.424974,7.03125 L770.643724,7.03125 L770.643724,14.0625 L802.987474,14.0625 C808.612502,14.0625 811.424974,16.4062266 811.424974,21.09375 L811.424974,30.9375 C811.424974,35.6250234 808.612502,37.96875 802.987474,37.96875 L762.206224,37.96875 Z M885.243719,15.46875 L900.712469,15.46875 L900.712469,21.09375 L885.243719,21.09375 L885.243719,15.46875 Z M973.124964,0 L980.156214,0 C985.781242,0 988.593714,2.34372656 988.593714,7.03125 L988.593714,37.96875 L980.156214,37.96875 L980.156214,8.4375 C980.156214,7.5 979.687469,7.03125 978.749964,7.03125 L973.124964,7.03125 L973.124964,0 Z M1013.83121,0 L1063.04996,0 L1063.04996,7.03125 L1035.62809,37.96875 L1023.67496,37.96875 L1051.09684,7.03125 L1013.83121,7.03125 L1013.83121,0 Z M1141.08746,0 L1181.86871,0 C1187.49373,0 1190.30621,2.34372656 1190.30621,7.03125 L1190.30621,14.0625 C1190.30621,18.7500234 1187.49373,21.09375 1181.86871,21.09375 L1150.93121,21.09375 C1149.9937,21.09375 1149.52496,21.5624953 1149.52496,22.5 L1149.52496,30.9375 L1190.30621,30.9375 L1190.30621,37.96875 L1141.08746,37.96875 L1141.08746,21.09375 C1141.08746,16.4062266 1143.89993,14.0625 1149.52496,14.0625 L1180.46246,14.0625 C1181.39996,14.0625 1181.86871,13.5937547 1181.86871,12.65625 L1181.86871,8.4375 C1181.86871,7.5 1181.39996,7.03125 1180.46246,7.03125 L1141.08746,7.03125 L1141.08746,0 Z M1223.9812,0 L1256.32495,0 C1261.94998,0 1264.76245,2.34372656 1264.76245,7.03125 L1264.76245,30.9375 C1264.76245,35.6250234 1261.94998,37.96875 1256.32495,37.96875 L1223.9812,37.96875 C1218.35618,37.96875 1215.5437,35.6250234 1215.5437,30.9375 L1215.5437,7.03125 C1215.5437,2.34372656 1218.35618,0 1223.9812,0 Z M1254.9187,7.03125 L1225.38745,7.03125 C1224.44995,7.03125 1223.9812,7.49999531 1223.9812,8.4375 L1223.9812,29.53125 C1223.9812,30.4687547 1224.44995,30.9375 1225.38745,30.9375 L1254.9187,30.9375 C1255.85621,30.9375 1256.32495,30.4687547 1256.32495,29.53125 L1256.32495,8.4375 C1256.32495,7.49999531 1255.85621,7.03125 1254.9187,7.03125 Z M1289.99995,0 L1330.7812,0 C1336.40623,0 1339.2187,2.34372656 1339.2187,7.03125 L1339.2187,14.0625 C1339.2187,18.7500234 1336.40623,21.09375 1330.7812,21.09375 L1299.8437,21.09375 C1298.9062,21.09375 1298.43745,21.5624953 1298.43745,22.5 L1298.43745,30.9375 L1339.2187,30.9375 L1339.2187,37.96875 L1289.99995,37.96875 L1289.99995,21.09375 C1289.99995,16.4062266 1292.81242,14.0625 1298.43745,14.0625 L1329.37495,14.0625 C1330.31246,14.0625 1330.7812,13.5937547 1330.7812,12.65625 L1330.7812,8.4375 C1330.7812,7.5 1330.31246,7.03125 1329.37495,7.03125 L1289.99995,7.03125 L1289.99995,0 Z M1360.23745,0 L1367.2687,0 C1372.89373,0 1375.7062,2.34372656 1375.7062,7.03125 L1375.7062,37.96875 L1367.2687,37.96875 L1367.2687,8.4375 C1367.2687,7.5 1366.79995,7.03125 1365.86245,7.03125 L1360.23745,7.03125 L1360.23745,0 Z" id="September15-172021" fill="#C418A3" fill-rule="nonzero"></path>
    </g>
</svg>