<svg width="642" height="295" viewBox="0 0 642 295" fill="none" xmlns="http://www.w3.org/2000/svg">
<mask id="path-1-outside-1" maskUnits="userSpaceOnUse" x="0.299988" y="-0.176025" width="642" height="296" fill="black">
<rect fill="white" x="0.299988" y="-0.176025" width="642" height="296"/>
<path d="M104.34 7.82397C106.284 7.89597 107.256 8.86797 107.256 10.74C107.256 13.476 103.548 21.144 96.132 33.744C88.068 47.496 83.136 57.576 81.336 63.984C80.184 68.16 79.608 73.596 79.608 80.292C79.608 90.948 79.464 97.212 79.176 99.084C75.36 100.308 72.912 101.064 71.832 101.352C69.024 102.144 66.504 102.612 64.272 102.756C64.128 99.156 62.94 94.26 60.708 88.068C58.26 81.516 56.892 76.656 56.604 73.488C56.388 73.272 56.244 73.056 56.172 72.84C56.244 72.264 56.136 71.4 55.848 70.248C54.552 72.408 53.904 74.964 53.904 77.916C53.904 79.644 54.3 82.668 55.092 86.988C55.812 90.804 56.064 93.792 55.848 95.952C48.288 99.624 42.744 101.64 39.216 102C39.216 88.896 36.372 76.548 30.684 64.956C27.804 59.052 20.676 47.856 9.29999 31.368C12.036 28.344 14.484 26.184 16.644 24.888C19.452 23.232 22.584 22.404 26.04 22.404C27.84 26.652 30.144 31.044 32.952 35.58L41.268 49.08C42.78 46.344 43.572 42.312 43.644 36.984C43.788 31.368 44.148 27.732 44.724 26.076C46.164 25.068 48.684 23.916 52.284 22.62C55.956 21.324 58.548 20.676 60.06 20.676C60.42 20.676 60.672 20.748 60.816 20.892C62.472 34.284 65.172 45.012 68.916 53.076C71.508 49.548 74.748 43.428 78.636 34.716C82.452 26.292 85.62 20.496 88.14 17.328C92.172 12.288 97.572 9.11998 104.34 7.82397Z"/>
<path d="M179.77 69.924C178.978 80.076 173.974 88.032 164.758 93.792C157.198 98.472 147.838 101.208 136.678 102C128.47 101.64 121.486 98.112 115.726 91.416C110.11 84.936 107.302 77.52 107.302 69.168C107.302 66.576 107.662 63.984 108.382 61.392C111.55 49.944 116.698 40.836 123.826 34.068C131.89 26.508 141.502 22.872 152.662 23.16C162.094 23.448 169.258 28.236 174.154 37.524C178.042 45.012 179.986 53.94 179.986 64.308C179.986 66.252 179.914 68.124 179.77 69.924ZM146.182 91.524C146.974 91.668 147.73 91.74 148.45 91.74C153.85 91.74 157.882 88.644 160.546 82.452C162.49 77.916 163.462 72.552 163.462 66.36C163.462 58.8 162.058 51.96 159.25 45.84C155.578 37.704 150.394 34.032 143.698 34.824C136.498 35.616 131.35 39.396 128.254 46.164C126.166 50.628 124.87 57.432 124.366 66.576C123.502 80.76 130.774 89.076 146.182 91.524ZM146.182 58.908C145.75 61.5 144.166 63.768 141.43 65.712C136.75 69.024 134.23 70.86 133.87 71.22C133.15 70.428 132.79 69.492 132.79 68.412C132.79 66.036 134.338 63.732 137.434 61.5C139.954 59.7 142.366 58.8 144.67 58.8C145.174 58.8 145.678 58.836 146.182 58.908Z"/>
<path d="M239.931 64.2C236.979 68.592 234.783 74.676 233.343 82.452C232.191 88.644 231.723 94.224 231.939 99.192C229.923 101.424 226.863 102.54 222.759 102.54C221.175 102.54 219.123 102.36 216.603 102C216.603 92.712 218.115 82.344 221.139 70.896C218.259 69.384 215.379 68.412 212.499 67.98C210.627 67.692 207.567 67.548 203.319 67.548C203.103 68.988 202.995 70.392 202.995 71.76C202.995 78.528 206.451 86.016 213.363 94.224C209.979 96.456 207.495 97.968 205.911 98.76C203.319 99.984 200.619 100.704 197.811 100.92C197.019 98.04 194.823 91.776 191.223 82.128C188.415 74.784 186.723 67.332 186.147 59.772C185.787 55.092 185.787 47.424 186.147 36.768C183.339 35.544 181.899 34.896 181.827 34.824C180.747 34.104 180.135 32.808 179.991 30.936C184.023 27.624 187.659 25.968 190.899 25.968C192.987 25.968 196.371 26.976 201.051 28.992C206.955 31.512 212.139 33.276 216.603 34.284C227.187 36.588 232.479 40.008 232.479 44.544C232.479 48.72 229.923 51.996 224.811 54.372C220.923 56.244 217.107 58.044 213.363 59.772C216.243 60.636 220.671 61.392 226.647 62.04C232.623 62.616 237.051 63.336 239.931 64.2ZM210.555 44.328C208.899 43.968 206.379 43.464 202.995 42.816V56.208C211.275 55.128 215.415 52.932 215.415 49.62C215.415 46.884 213.795 45.12 210.555 44.328Z"/>
<path d="M301.154 59.232C298.346 67.152 296.942 75.288 296.942 83.64C296.942 85.584 297.014 88.464 297.158 92.28C297.302 96.024 297.374 98.868 297.374 100.812C291.398 101.82 285.53 102.216 279.77 102C279.986 99.84 280.094 97.5 280.094 94.98C280.094 93.972 280.058 92.496 279.986 90.552C279.914 88.536 279.878 87.024 279.878 86.016C279.878 79.608 280.994 73.992 283.226 69.168C282.002 68.952 280.742 68.844 279.446 68.844C277.934 68.844 275.774 69.096 272.966 69.6C270.158 70.032 268.106 70.284 266.81 70.356C266.954 73.38 268.142 77.916 270.374 83.964C272.678 90.012 273.83 94.188 273.83 96.492C273.83 97.212 273.758 97.86 273.614 98.436C272.894 101.172 268.79 102.54 261.302 102.54C259.07 102.54 257.018 102.36 255.146 102C255.146 91.128 253.958 81.48 251.582 73.056C249.422 65.496 245.534 56.388 239.918 45.732C244.238 42.06 247.514 40.224 249.746 40.224C250.754 40.224 251.762 40.512 252.77 41.088C255.578 42.672 257.666 45.444 259.034 49.404C260.978 54.948 262.418 58.404 263.354 59.772L274.262 45.624C277.286 42.672 283.01 41.052 291.434 40.764C290.426 45.156 288.266 49.188 284.954 52.86C282.722 55.164 279.41 58.656 275.018 63.336C278.186 63.624 282.542 63.048 288.086 61.608C294.062 60.024 298.418 59.232 301.154 59.232Z"/>
<path d="M367.747 23.916C367.891 25.068 367.963 26.22 367.963 27.372C367.963 31.116 366.991 36.624 365.047 43.896C363.175 51.168 362.239 56.712 362.239 60.528C359.647 60.744 355.579 61.5 350.035 62.796C354.859 68.268 357.271 73.632 357.271 78.888C357.271 84.648 354.607 89.724 349.279 94.116C344.815 97.86 339.487 100.38 333.295 101.676C332.287 101.892 331.135 102 329.839 102C325.735 102 322.135 100.74 319.039 98.22C315.727 95.556 313.819 92.244 313.315 88.284C313.099 86.628 312.991 85.296 312.991 84.288C312.991 80.976 314.179 78.672 316.555 77.376C318.139 76.512 322.243 75.324 328.867 73.812C327.715 76.044 327.139 78.384 327.139 80.832C327.139 86.592 329.947 91.668 335.563 96.06C340.747 89.508 343.339 84.252 343.339 80.292C343.339 78.42 342.979 76.656 342.259 75C338.371 66 329.479 61.5 315.583 61.5C313.855 61.5 311.983 61.536 309.967 61.608C309.607 59.88 308.491 54.732 306.619 46.164C305.395 40.548 303.559 35.724 301.111 31.692C304.207 29.388 307.699 27.984 311.587 27.48C314.107 27.12 317.923 27.084 323.035 27.372C328.147 27.588 331.963 27.516 334.483 27.156C342.331 26.148 347.839 25.464 351.007 25.104C356.047 24.528 361.627 24.132 367.747 23.916ZM346.363 60.528C346.219 52.176 346.003 47.028 345.715 45.084C344.563 38.028 341.791 34.5 337.399 34.5C336.031 34.5 334.663 34.644 333.295 34.932C331.063 35.436 329.263 36.732 327.895 38.82C326.527 40.836 325.843 43.032 325.843 45.408C325.843 46.56 326.023 47.712 326.383 48.864C327.391 51.96 330.235 54.264 334.915 55.776C341.107 57.792 344.923 59.376 346.363 60.528ZM321.631 32.772L316.123 33.312L316.339 36.336L321.631 32.772Z"/>
<path d="M439.495 28.992C439.207 34.824 437.767 43.32 435.175 54.48C432.727 64.992 431.503 72.768 431.503 77.808C431.503 84.648 433.087 90.732 436.255 96.06C434.743 98.004 432.475 99.444 429.451 100.38C428.875 100.596 426.175 101.208 421.351 102.216C418.111 96.024 416.491 88.752 416.491 80.4C416.491 76.728 416.491 74.892 416.491 74.892L416.599 68.736C408.319 68.736 402.271 69.528 398.455 71.112C396.871 71.76 396.079 72.948 396.079 74.676C396.079 76.188 396.835 78.708 398.347 82.236C400.003 85.98 400.903 88.608 401.047 90.12C400.615 90.336 397.951 91.488 393.055 93.576C389.959 94.872 387.187 95.772 384.739 96.276C384.739 85.476 383.371 75.756 380.635 67.116C378.187 59.34 373.975 50.412 367.999 40.332C371.527 37.596 373.471 36.084 373.831 35.796C376.567 33.924 378.727 32.988 380.311 32.988C384.127 32.988 387.655 37.272 390.895 45.84L397.267 62.904C403.459 61.536 410.299 60.672 417.787 60.312C417.787 49.008 419.839 39.72 423.943 32.448C425.599 30.792 427.867 29.748 430.747 29.316C432.187 29.1 435.103 28.992 439.495 28.992Z"/>
<path d="M511.996 69.924C511.204 80.076 506.2 88.032 496.984 93.792C489.424 98.472 480.064 101.208 468.904 102C460.696 101.64 453.712 98.112 447.952 91.416C442.336 84.936 439.528 77.52 439.528 69.168C439.528 66.576 439.888 63.984 440.608 61.392C443.776 49.944 448.924 40.836 456.052 34.068C464.116 26.508 473.728 22.872 484.888 23.16C494.32 23.448 501.484 28.236 506.38 37.524C510.268 45.012 512.212 53.94 512.212 64.308C512.212 66.252 512.14 68.124 511.996 69.924ZM478.408 91.524C479.2 91.668 479.956 91.74 480.676 91.74C486.076 91.74 490.108 88.644 492.772 82.452C494.716 77.916 495.688 72.552 495.688 66.36C495.688 58.8 494.284 51.96 491.476 45.84C487.804 37.704 482.62 34.032 475.924 34.824C468.724 35.616 463.576 39.396 460.48 46.164C458.392 50.628 457.096 57.432 456.592 66.576C455.728 80.76 463 89.076 478.408 91.524ZM478.408 58.908C477.976 61.5 476.392 63.768 473.656 65.712C468.976 69.024 466.456 70.86 466.096 71.22C465.376 70.428 465.016 69.492 465.016 68.412C465.016 66.036 466.564 63.732 469.66 61.5C472.18 59.7 474.592 58.8 476.896 58.8C477.4 58.8 477.904 58.836 478.408 58.908Z"/>
<path d="M567.621 44.76C567.621 49.368 565.209 53.688 560.385 57.72L546.777 66.792C541.953 70.032 539.541 73.164 539.541 76.188C539.541 77.916 540.153 79.608 541.377 81.264C542.673 82.848 544.545 85.188 546.993 88.284C549.513 91.38 550.773 93.828 550.773 95.628C550.773 96.132 550.665 96.6 550.449 97.032C550.017 97.896 547.965 99.012 544.293 100.38C540.693 101.676 538.245 102.324 536.949 102.324C536.445 102.324 536.013 102.216 535.653 102C529.461 98.04 524.925 90.228 522.045 78.564C520.245 71.148 519.021 63.336 518.373 55.128C518.373 55.128 517.869 47.856 516.861 33.312C516.501 32.736 515.781 32.052 514.701 31.26C513.333 30.252 512.505 29.604 512.217 29.316C512.865 28.884 514.269 27.696 516.429 25.752C518.661 23.736 521.109 22.728 523.773 22.728C526.221 22.728 529.137 23.916 532.521 26.292C536.625 29.172 539.829 31.044 542.133 31.908C543.789 32.484 547.425 33.276 553.041 34.284C557.721 35.148 561.105 36.156 563.193 37.308C566.145 38.964 567.621 41.448 567.621 44.76ZM550.665 45.3C545.913 42.06 540.693 40.008 535.005 39.144C535.797 45.12 536.193 52.932 536.193 62.58C543.825 59.988 548.649 54.228 550.665 45.3Z"/>
<path d="M634.245 23.916C634.389 25.068 634.461 26.22 634.461 27.372C634.461 31.116 633.489 36.624 631.545 43.896C629.673 51.168 628.737 56.712 628.737 60.528C626.145 60.744 622.077 61.5 616.533 62.796C621.357 68.268 623.769 73.632 623.769 78.888C623.769 84.648 621.105 89.724 615.777 94.116C611.313 97.86 605.985 100.38 599.793 101.676C598.785 101.892 597.633 102 596.337 102C592.233 102 588.633 100.74 585.537 98.22C582.225 95.556 580.317 92.244 579.813 88.284C579.597 86.628 579.489 85.296 579.489 84.288C579.489 80.976 580.677 78.672 583.053 77.376C584.637 76.512 588.741 75.324 595.365 73.812C594.213 76.044 593.637 78.384 593.637 80.832C593.637 86.592 596.445 91.668 602.061 96.06C607.245 89.508 609.837 84.252 609.837 80.292C609.837 78.42 609.477 76.656 608.757 75C604.869 66 595.977 61.5 582.081 61.5C580.353 61.5 578.481 61.536 576.465 61.608C576.105 59.88 574.989 54.732 573.117 46.164C571.893 40.548 570.057 35.724 567.609 31.692C570.705 29.388 574.197 27.984 578.085 27.48C580.605 27.12 584.421 27.084 589.533 27.372C594.645 27.588 598.461 27.516 600.981 27.156C608.829 26.148 614.337 25.464 617.505 25.104C622.545 24.528 628.125 24.132 634.245 23.916ZM612.861 60.528C612.717 52.176 612.501 47.028 612.213 45.084C611.061 38.028 608.289 34.5 603.897 34.5C602.529 34.5 601.161 34.644 599.793 34.932C597.561 35.436 595.761 36.732 594.393 38.82C593.025 40.836 592.341 43.032 592.341 45.408C592.341 46.56 592.521 47.712 592.881 48.864C593.889 51.96 596.733 54.264 601.413 55.776C607.605 57.792 611.421 59.376 612.861 60.528ZM588.129 32.772L582.621 33.312L582.837 36.336L588.129 32.772Z"/>
<path d="M69.996 272.384C65.028 275.84 59.736 277.712 54.12 278C53.616 275.624 51.924 271.88 49.044 266.768C46.452 262.16 45.012 258.344 44.724 255.32C41.7 255.824 38.424 256.976 34.896 258.776L27.012 262.772C26.076 264.212 25.536 266.336 25.392 269.144C25.464 271.448 25.392 274.616 25.176 278.648C23.592 280.376 21.216 281.492 18.048 281.996C16.608 282.212 13.692 282.32 9.29999 282.32C9.29999 275.12 10.2 267.776 12 260.288C13.224 255.464 15.024 248.192 17.4 238.472C18.912 231.92 19.668 226.052 19.668 220.868C19.668 217.34 19.308 213.344 18.588 208.88L28.308 204.452C35.436 201.284 41.34 198.944 46.02 197.432C46.02 206.072 46.992 213.884 48.936 220.868C50.664 226.916 53.724 234.152 58.116 242.576C61.284 241.568 63.264 241.064 64.056 241.064C65.208 241.064 66.252 241.352 67.188 241.928C66.612 243.008 65.676 243.908 64.38 244.628C63.084 245.348 61.824 246.032 60.6 246.68C60.24 246.896 59.952 247.076 59.736 247.22C61.464 249.884 63.228 254.06 65.028 259.748C66.9 265.724 68.556 269.936 69.996 272.384ZM41.916 248.732C38.676 240.38 36.192 232.928 34.464 226.376C34.464 229.832 33.708 234.62 32.196 240.74C30.612 247.292 29.712 252.044 29.496 254.996C32.16 253.916 36.3 251.828 41.916 248.732Z"/>
<path d="M112.95 273.464C107.91 276.344 102.258 277.856 95.9936 278C83.2496 278.288 75.4016 274.256 72.4496 265.904C70.7936 261.224 69.9656 255.68 69.9656 249.272C69.9656 240.848 71.4056 230.624 74.2856 218.6C79.4696 214.496 85.6976 212.444 92.9696 212.444C92.7536 215.828 91.6376 221.156 89.6216 228.428C87.7496 235.268 86.8136 240.596 86.8136 244.412C86.8136 247.148 87.2096 249.848 88.0016 252.512C89.7296 258.272 91.2056 262.232 92.4296 264.392C94.7336 268.424 97.6856 270.26 101.286 269.9C104.094 269.612 106.074 266.444 107.226 260.396C107.442 259.244 107.946 253.916 108.738 244.412C108.882 242.684 108.954 241.388 108.954 240.524C108.954 237.572 108.342 233.108 107.118 227.132C105.894 221.372 105.318 217.088 105.39 214.28C109.494 212.264 112.95 211.256 115.758 211.256C117.414 211.256 118.71 211.652 119.646 212.444C124.11 222.596 126.342 233.468 126.342 245.06C126.342 251.756 125.478 257.192 123.75 261.368C121.662 266.48 118.062 270.512 112.95 273.464Z"/>
<path d="M188.623 281.132C183.439 285.596 178.939 287.828 175.123 287.828C170.947 287.828 168.715 284.804 168.427 278.756C168.283 275.876 167.959 273.752 167.455 272.384C165.511 272.744 161.695 273.86 156.007 275.732C151.399 277.244 147.871 278 145.423 278C141.751 278 138.727 276.56 136.351 273.68C132.607 269.144 130.015 264.32 128.575 259.208C127.495 255.464 126.775 249.92 126.415 242.576C125.695 229.112 129.439 219.968 137.647 215.144C142.255 212.48 148.051 211.004 155.035 210.716C155.827 210.716 157.051 211.148 158.707 212.012C160.435 212.876 161.695 213.308 162.487 213.308C164.143 212.156 168.283 210.716 174.907 208.988C175.123 213.02 175.807 218.528 176.959 225.512L179.335 240.092C178.975 240.956 178.039 241.64 176.527 242.144C174.367 242.864 172.999 243.404 172.423 243.764C176.887 245.06 181.855 245.708 187.327 245.708C187.399 248.3 187.111 252.08 186.463 257.048C185.815 262.016 185.491 265.688 185.491 268.064C185.491 272.816 186.535 277.172 188.623 281.132ZM160.327 243.224C159.535 231.992 155.071 224.72 146.935 221.408C144.775 229.688 143.839 237.788 144.127 245.708C148.303 244.052 153.703 243.224 160.327 243.224ZM161.515 253.808C159.715 253.808 157.015 253.592 153.415 253.16C149.887 252.728 147.223 252.512 145.423 252.512C146.647 260.504 150.463 266.408 156.871 270.224C159.103 268.496 160.507 266.012 161.083 262.772C161.371 261.116 161.515 258.128 161.515 253.808Z"/>
<path d="M231.644 273.464C226.604 276.344 220.952 277.856 214.688 278C201.944 278.288 194.096 274.256 191.144 265.904C189.488 261.224 188.66 255.68 188.66 249.272C188.66 240.848 190.1 230.624 192.98 218.6C198.164 214.496 204.392 212.444 211.664 212.444C211.448 215.828 210.332 221.156 208.316 228.428C206.444 235.268 205.508 240.596 205.508 244.412C205.508 247.148 205.904 249.848 206.696 252.512C208.424 258.272 209.9 262.232 211.124 264.392C213.428 268.424 216.38 270.26 219.98 269.9C222.788 269.612 224.768 266.444 225.92 260.396C226.136 259.244 226.64 253.916 227.432 244.412C227.576 242.684 227.648 241.388 227.648 240.524C227.648 237.572 227.036 233.108 225.812 227.132C224.588 221.372 224.012 217.088 224.084 214.28C228.188 212.264 231.644 211.256 234.452 211.256C236.108 211.256 237.404 211.652 238.34 212.444C242.804 222.596 245.036 233.468 245.036 245.06C245.036 251.756 244.172 257.192 242.444 261.368C240.356 266.48 236.756 270.512 231.644 273.464Z"/>
<path d="M311.638 199.916C311.782 201.068 311.854 202.22 311.854 203.372C311.854 207.116 310.882 212.624 308.938 219.896C307.066 227.168 306.13 232.712 306.13 236.528C303.538 236.744 299.47 237.5 293.926 238.796C298.75 244.268 301.162 249.632 301.162 254.888C301.162 260.648 298.498 265.724 293.17 270.116C288.706 273.86 283.378 276.38 277.186 277.676C276.178 277.892 275.026 278 273.73 278C269.626 278 266.026 276.74 262.93 274.22C259.618 271.556 257.71 268.244 257.206 264.284C256.99 262.628 256.882 261.296 256.882 260.288C256.882 256.976 258.07 254.672 260.446 253.376C262.03 252.512 266.134 251.324 272.758 249.812C271.606 252.044 271.03 254.384 271.03 256.832C271.03 262.592 273.838 267.668 279.454 272.06C284.638 265.508 287.23 260.252 287.23 256.292C287.23 254.42 286.87 252.656 286.15 251C282.262 242 273.37 237.5 259.474 237.5C257.746 237.5 255.874 237.536 253.858 237.608C253.498 235.88 252.382 230.732 250.51 222.164C249.286 216.548 247.45 211.724 245.002 207.692C248.098 205.388 251.59 203.984 255.478 203.48C257.998 203.12 261.814 203.084 266.926 203.372C272.038 203.588 275.854 203.516 278.374 203.156C286.222 202.148 291.73 201.464 294.898 201.104C299.938 200.528 305.518 200.132 311.638 199.916ZM290.254 236.528C290.11 228.176 289.894 223.028 289.606 221.084C288.454 214.028 285.682 210.5 281.29 210.5C279.922 210.5 278.554 210.644 277.186 210.932C274.954 211.436 273.154 212.732 271.786 214.82C270.418 216.836 269.734 219.032 269.734 221.408C269.734 222.56 269.914 223.712 270.274 224.864C271.282 227.96 274.126 230.264 278.806 231.776C284.998 233.792 288.814 235.376 290.254 236.528ZM265.522 208.772L260.014 209.312L260.23 212.336L265.522 208.772Z"/>
<path d="M379.066 202.184C376.258 205.208 372.19 207.26 366.862 208.34C359.806 209.78 355.162 211.04 352.93 212.12C350.266 213.416 348.934 215.396 348.934 218.06C348.934 220.364 349.978 223.784 352.066 228.32C354.586 233.864 356.098 237.572 356.602 239.444C357.466 242.612 359.842 247.508 363.73 254.132C367.114 259.82 368.806 264.212 368.806 267.308C368.806 270.548 367.726 273.248 365.566 275.408C363.478 277.496 360.778 278.54 357.466 278.54C356.386 278.54 354.802 278.432 352.714 278.216C350.626 278.072 349.042 278 347.962 278C347.386 275.48 346.558 270.224 345.478 262.232C344.686 256.4 343.426 251.288 341.698 246.896C341.338 246.032 339.358 242.108 335.758 235.124C333.454 230.66 332.302 226.988 332.302 224.108C332.302 221.66 332.95 219.32 334.246 217.088C332.086 217.088 328.954 217.556 324.85 218.492C320.818 219.428 317.794 219.896 315.778 219.896C314.482 219.896 313.186 219.788 311.89 219.572C317.506 213.956 323.95 209.96 331.222 207.584C335.686 206.144 342.814 204.848 352.606 203.696C362.974 202.472 370.966 201.14 376.582 199.7L379.066 202.184Z"/>
<path d="M471.348 197.972C471.78 200.708 471.996 203.408 471.996 206.072C471.996 209.168 471.528 213.776 470.592 219.896C469.728 225.944 469.296 230.516 469.296 233.612C469.296 238.796 470.628 246.068 473.292 255.428C475.812 255.284 479.772 254.384 485.172 252.728C490.356 251.144 494.28 250.352 496.944 250.352C500.472 250.352 503.388 251.504 505.692 253.808C502.812 255.968 497.7 257.372 490.356 258.02C483.516 258.596 478.368 259.532 474.912 260.828C471.24 262.124 466.776 264.68 461.52 268.496C457.128 271.736 453.996 273.824 452.124 274.76C448.452 276.632 444.276 277.712 439.596 278C443.052 273.176 449.424 268.1 458.712 262.772C456.336 255.212 455.148 246.356 455.148 236.204C455.148 230.948 455.472 225.404 456.12 219.572C453.24 222.02 450.072 224.072 446.616 225.728C444.096 226.952 440.496 228.284 435.816 229.724C437.4 227.78 439.884 225.368 443.268 222.488C446.94 219.392 449.46 217.052 450.828 215.468C453.42 212.516 455.508 209.024 457.092 204.992C459.252 203.264 464.004 200.924 471.348 197.972Z"/>
<path d="M551.749 192.68C552.181 194.84 552.397 197 552.397 199.16C552.397 205.136 550.705 211.58 547.321 218.492C545.377 222.452 542.101 228.896 537.493 237.824C542.245 236.6 547.429 235.736 553.045 235.232C560.533 234.584 565.429 234.08 567.733 233.72L570.865 197.756C577.633 196.892 583.141 196.46 587.389 196.46C588.109 199.412 588.469 203.048 588.469 207.368C588.469 215.072 587.461 223.856 585.445 233.72C585.877 234.44 587.209 235.52 589.441 236.96C591.385 238.256 592.501 239.48 592.789 240.632L584.797 240.956C584.797 247.148 585.481 253.088 586.849 258.776C587.641 262.088 589.405 267.812 592.141 275.948C586.093 279.044 581.521 280.592 578.425 280.592C576.697 280.592 575.221 280.196 573.997 279.404C571.405 277.748 569.713 272.384 568.921 263.312C568.489 258.488 568.273 250.208 568.273 238.472C561.577 238.76 551.677 241.46 538.573 246.572C526.405 251.324 517.261 253.484 511.141 253.052C512.149 251.324 515.281 246.428 520.537 238.364C524.137 232.82 526.801 228.068 528.529 224.108C530.545 219.428 532.057 214.172 533.065 208.34L535.333 195.272C542.245 193.544 547.717 192.68 551.749 192.68Z"/>
</mask>
<path d="M104.34 7.82397C106.284 7.89597 107.256 8.86797 107.256 10.74C107.256 13.476 103.548 21.144 96.132 33.744C88.068 47.496 83.136 57.576 81.336 63.984C80.184 68.16 79.608 73.596 79.608 80.292C79.608 90.948 79.464 97.212 79.176 99.084C75.36 100.308 72.912 101.064 71.832 101.352C69.024 102.144 66.504 102.612 64.272 102.756C64.128 99.156 62.94 94.26 60.708 88.068C58.26 81.516 56.892 76.656 56.604 73.488C56.388 73.272 56.244 73.056 56.172 72.84C56.244 72.264 56.136 71.4 55.848 70.248C54.552 72.408 53.904 74.964 53.904 77.916C53.904 79.644 54.3 82.668 55.092 86.988C55.812 90.804 56.064 93.792 55.848 95.952C48.288 99.624 42.744 101.64 39.216 102C39.216 88.896 36.372 76.548 30.684 64.956C27.804 59.052 20.676 47.856 9.29999 31.368C12.036 28.344 14.484 26.184 16.644 24.888C19.452 23.232 22.584 22.404 26.04 22.404C27.84 26.652 30.144 31.044 32.952 35.58L41.268 49.08C42.78 46.344 43.572 42.312 43.644 36.984C43.788 31.368 44.148 27.732 44.724 26.076C46.164 25.068 48.684 23.916 52.284 22.62C55.956 21.324 58.548 20.676 60.06 20.676C60.42 20.676 60.672 20.748 60.816 20.892C62.472 34.284 65.172 45.012 68.916 53.076C71.508 49.548 74.748 43.428 78.636 34.716C82.452 26.292 85.62 20.496 88.14 17.328C92.172 12.288 97.572 9.11998 104.34 7.82397Z" fill="white"/>
<path d="M179.77 69.924C178.978 80.076 173.974 88.032 164.758 93.792C157.198 98.472 147.838 101.208 136.678 102C128.47 101.64 121.486 98.112 115.726 91.416C110.11 84.936 107.302 77.52 107.302 69.168C107.302 66.576 107.662 63.984 108.382 61.392C111.55 49.944 116.698 40.836 123.826 34.068C131.89 26.508 141.502 22.872 152.662 23.16C162.094 23.448 169.258 28.236 174.154 37.524C178.042 45.012 179.986 53.94 179.986 64.308C179.986 66.252 179.914 68.124 179.77 69.924ZM146.182 91.524C146.974 91.668 147.73 91.74 148.45 91.74C153.85 91.74 157.882 88.644 160.546 82.452C162.49 77.916 163.462 72.552 163.462 66.36C163.462 58.8 162.058 51.96 159.25 45.84C155.578 37.704 150.394 34.032 143.698 34.824C136.498 35.616 131.35 39.396 128.254 46.164C126.166 50.628 124.87 57.432 124.366 66.576C123.502 80.76 130.774 89.076 146.182 91.524ZM146.182 58.908C145.75 61.5 144.166 63.768 141.43 65.712C136.75 69.024 134.23 70.86 133.87 71.22C133.15 70.428 132.79 69.492 132.79 68.412C132.79 66.036 134.338 63.732 137.434 61.5C139.954 59.7 142.366 58.8 144.67 58.8C145.174 58.8 145.678 58.836 146.182 58.908Z" fill="white"/>
<path d="M239.931 64.2C236.979 68.592 234.783 74.676 233.343 82.452C232.191 88.644 231.723 94.224 231.939 99.192C229.923 101.424 226.863 102.54 222.759 102.54C221.175 102.54 219.123 102.36 216.603 102C216.603 92.712 218.115 82.344 221.139 70.896C218.259 69.384 215.379 68.412 212.499 67.98C210.627 67.692 207.567 67.548 203.319 67.548C203.103 68.988 202.995 70.392 202.995 71.76C202.995 78.528 206.451 86.016 213.363 94.224C209.979 96.456 207.495 97.968 205.911 98.76C203.319 99.984 200.619 100.704 197.811 100.92C197.019 98.04 194.823 91.776 191.223 82.128C188.415 74.784 186.723 67.332 186.147 59.772C185.787 55.092 185.787 47.424 186.147 36.768C183.339 35.544 181.899 34.896 181.827 34.824C180.747 34.104 180.135 32.808 179.991 30.936C184.023 27.624 187.659 25.968 190.899 25.968C192.987 25.968 196.371 26.976 201.051 28.992C206.955 31.512 212.139 33.276 216.603 34.284C227.187 36.588 232.479 40.008 232.479 44.544C232.479 48.72 229.923 51.996 224.811 54.372C220.923 56.244 217.107 58.044 213.363 59.772C216.243 60.636 220.671 61.392 226.647 62.04C232.623 62.616 237.051 63.336 239.931 64.2ZM210.555 44.328C208.899 43.968 206.379 43.464 202.995 42.816V56.208C211.275 55.128 215.415 52.932 215.415 49.62C215.415 46.884 213.795 45.12 210.555 44.328Z" fill="white"/>
<path d="M301.154 59.232C298.346 67.152 296.942 75.288 296.942 83.64C296.942 85.584 297.014 88.464 297.158 92.28C297.302 96.024 297.374 98.868 297.374 100.812C291.398 101.82 285.53 102.216 279.77 102C279.986 99.84 280.094 97.5 280.094 94.98C280.094 93.972 280.058 92.496 279.986 90.552C279.914 88.536 279.878 87.024 279.878 86.016C279.878 79.608 280.994 73.992 283.226 69.168C282.002 68.952 280.742 68.844 279.446 68.844C277.934 68.844 275.774 69.096 272.966 69.6C270.158 70.032 268.106 70.284 266.81 70.356C266.954 73.38 268.142 77.916 270.374 83.964C272.678 90.012 273.83 94.188 273.83 96.492C273.83 97.212 273.758 97.86 273.614 98.436C272.894 101.172 268.79 102.54 261.302 102.54C259.07 102.54 257.018 102.36 255.146 102C255.146 91.128 253.958 81.48 251.582 73.056C249.422 65.496 245.534 56.388 239.918 45.732C244.238 42.06 247.514 40.224 249.746 40.224C250.754 40.224 251.762 40.512 252.77 41.088C255.578 42.672 257.666 45.444 259.034 49.404C260.978 54.948 262.418 58.404 263.354 59.772L274.262 45.624C277.286 42.672 283.01 41.052 291.434 40.764C290.426 45.156 288.266 49.188 284.954 52.86C282.722 55.164 279.41 58.656 275.018 63.336C278.186 63.624 282.542 63.048 288.086 61.608C294.062 60.024 298.418 59.232 301.154 59.232Z" fill="white"/>
<path d="M367.747 23.916C367.891 25.068 367.963 26.22 367.963 27.372C367.963 31.116 366.991 36.624 365.047 43.896C363.175 51.168 362.239 56.712 362.239 60.528C359.647 60.744 355.579 61.5 350.035 62.796C354.859 68.268 357.271 73.632 357.271 78.888C357.271 84.648 354.607 89.724 349.279 94.116C344.815 97.86 339.487 100.38 333.295 101.676C332.287 101.892 331.135 102 329.839 102C325.735 102 322.135 100.74 319.039 98.22C315.727 95.556 313.819 92.244 313.315 88.284C313.099 86.628 312.991 85.296 312.991 84.288C312.991 80.976 314.179 78.672 316.555 77.376C318.139 76.512 322.243 75.324 328.867 73.812C327.715 76.044 327.139 78.384 327.139 80.832C327.139 86.592 329.947 91.668 335.563 96.06C340.747 89.508 343.339 84.252 343.339 80.292C343.339 78.42 342.979 76.656 342.259 75C338.371 66 329.479 61.5 315.583 61.5C313.855 61.5 311.983 61.536 309.967 61.608C309.607 59.88 308.491 54.732 306.619 46.164C305.395 40.548 303.559 35.724 301.111 31.692C304.207 29.388 307.699 27.984 311.587 27.48C314.107 27.12 317.923 27.084 323.035 27.372C328.147 27.588 331.963 27.516 334.483 27.156C342.331 26.148 347.839 25.464 351.007 25.104C356.047 24.528 361.627 24.132 367.747 23.916ZM346.363 60.528C346.219 52.176 346.003 47.028 345.715 45.084C344.563 38.028 341.791 34.5 337.399 34.5C336.031 34.5 334.663 34.644 333.295 34.932C331.063 35.436 329.263 36.732 327.895 38.82C326.527 40.836 325.843 43.032 325.843 45.408C325.843 46.56 326.023 47.712 326.383 48.864C327.391 51.96 330.235 54.264 334.915 55.776C341.107 57.792 344.923 59.376 346.363 60.528ZM321.631 32.772L316.123 33.312L316.339 36.336L321.631 32.772Z" fill="white"/>
<path d="M439.495 28.992C439.207 34.824 437.767 43.32 435.175 54.48C432.727 64.992 431.503 72.768 431.503 77.808C431.503 84.648 433.087 90.732 436.255 96.06C434.743 98.004 432.475 99.444 429.451 100.38C428.875 100.596 426.175 101.208 421.351 102.216C418.111 96.024 416.491 88.752 416.491 80.4C416.491 76.728 416.491 74.892 416.491 74.892L416.599 68.736C408.319 68.736 402.271 69.528 398.455 71.112C396.871 71.76 396.079 72.948 396.079 74.676C396.079 76.188 396.835 78.708 398.347 82.236C400.003 85.98 400.903 88.608 401.047 90.12C400.615 90.336 397.951 91.488 393.055 93.576C389.959 94.872 387.187 95.772 384.739 96.276C384.739 85.476 383.371 75.756 380.635 67.116C378.187 59.34 373.975 50.412 367.999 40.332C371.527 37.596 373.471 36.084 373.831 35.796C376.567 33.924 378.727 32.988 380.311 32.988C384.127 32.988 387.655 37.272 390.895 45.84L397.267 62.904C403.459 61.536 410.299 60.672 417.787 60.312C417.787 49.008 419.839 39.72 423.943 32.448C425.599 30.792 427.867 29.748 430.747 29.316C432.187 29.1 435.103 28.992 439.495 28.992Z" fill="white"/>
<path d="M511.996 69.924C511.204 80.076 506.2 88.032 496.984 93.792C489.424 98.472 480.064 101.208 468.904 102C460.696 101.64 453.712 98.112 447.952 91.416C442.336 84.936 439.528 77.52 439.528 69.168C439.528 66.576 439.888 63.984 440.608 61.392C443.776 49.944 448.924 40.836 456.052 34.068C464.116 26.508 473.728 22.872 484.888 23.16C494.32 23.448 501.484 28.236 506.38 37.524C510.268 45.012 512.212 53.94 512.212 64.308C512.212 66.252 512.14 68.124 511.996 69.924ZM478.408 91.524C479.2 91.668 479.956 91.74 480.676 91.74C486.076 91.74 490.108 88.644 492.772 82.452C494.716 77.916 495.688 72.552 495.688 66.36C495.688 58.8 494.284 51.96 491.476 45.84C487.804 37.704 482.62 34.032 475.924 34.824C468.724 35.616 463.576 39.396 460.48 46.164C458.392 50.628 457.096 57.432 456.592 66.576C455.728 80.76 463 89.076 478.408 91.524ZM478.408 58.908C477.976 61.5 476.392 63.768 473.656 65.712C468.976 69.024 466.456 70.86 466.096 71.22C465.376 70.428 465.016 69.492 465.016 68.412C465.016 66.036 466.564 63.732 469.66 61.5C472.18 59.7 474.592 58.8 476.896 58.8C477.4 58.8 477.904 58.836 478.408 58.908Z" fill="white"/>
<path d="M567.621 44.76C567.621 49.368 565.209 53.688 560.385 57.72L546.777 66.792C541.953 70.032 539.541 73.164 539.541 76.188C539.541 77.916 540.153 79.608 541.377 81.264C542.673 82.848 544.545 85.188 546.993 88.284C549.513 91.38 550.773 93.828 550.773 95.628C550.773 96.132 550.665 96.6 550.449 97.032C550.017 97.896 547.965 99.012 544.293 100.38C540.693 101.676 538.245 102.324 536.949 102.324C536.445 102.324 536.013 102.216 535.653 102C529.461 98.04 524.925 90.228 522.045 78.564C520.245 71.148 519.021 63.336 518.373 55.128C518.373 55.128 517.869 47.856 516.861 33.312C516.501 32.736 515.781 32.052 514.701 31.26C513.333 30.252 512.505 29.604 512.217 29.316C512.865 28.884 514.269 27.696 516.429 25.752C518.661 23.736 521.109 22.728 523.773 22.728C526.221 22.728 529.137 23.916 532.521 26.292C536.625 29.172 539.829 31.044 542.133 31.908C543.789 32.484 547.425 33.276 553.041 34.284C557.721 35.148 561.105 36.156 563.193 37.308C566.145 38.964 567.621 41.448 567.621 44.76ZM550.665 45.3C545.913 42.06 540.693 40.008 535.005 39.144C535.797 45.12 536.193 52.932 536.193 62.58C543.825 59.988 548.649 54.228 550.665 45.3Z" fill="white"/>
<path d="M634.245 23.916C634.389 25.068 634.461 26.22 634.461 27.372C634.461 31.116 633.489 36.624 631.545 43.896C629.673 51.168 628.737 56.712 628.737 60.528C626.145 60.744 622.077 61.5 616.533 62.796C621.357 68.268 623.769 73.632 623.769 78.888C623.769 84.648 621.105 89.724 615.777 94.116C611.313 97.86 605.985 100.38 599.793 101.676C598.785 101.892 597.633 102 596.337 102C592.233 102 588.633 100.74 585.537 98.22C582.225 95.556 580.317 92.244 579.813 88.284C579.597 86.628 579.489 85.296 579.489 84.288C579.489 80.976 580.677 78.672 583.053 77.376C584.637 76.512 588.741 75.324 595.365 73.812C594.213 76.044 593.637 78.384 593.637 80.832C593.637 86.592 596.445 91.668 602.061 96.06C607.245 89.508 609.837 84.252 609.837 80.292C609.837 78.42 609.477 76.656 608.757 75C604.869 66 595.977 61.5 582.081 61.5C580.353 61.5 578.481 61.536 576.465 61.608C576.105 59.88 574.989 54.732 573.117 46.164C571.893 40.548 570.057 35.724 567.609 31.692C570.705 29.388 574.197 27.984 578.085 27.48C580.605 27.12 584.421 27.084 589.533 27.372C594.645 27.588 598.461 27.516 600.981 27.156C608.829 26.148 614.337 25.464 617.505 25.104C622.545 24.528 628.125 24.132 634.245 23.916ZM612.861 60.528C612.717 52.176 612.501 47.028 612.213 45.084C611.061 38.028 608.289 34.5 603.897 34.5C602.529 34.5 601.161 34.644 599.793 34.932C597.561 35.436 595.761 36.732 594.393 38.82C593.025 40.836 592.341 43.032 592.341 45.408C592.341 46.56 592.521 47.712 592.881 48.864C593.889 51.96 596.733 54.264 601.413 55.776C607.605 57.792 611.421 59.376 612.861 60.528ZM588.129 32.772L582.621 33.312L582.837 36.336L588.129 32.772Z" fill="white"/>
<path d="M69.996 272.384C65.028 275.84 59.736 277.712 54.12 278C53.616 275.624 51.924 271.88 49.044 266.768C46.452 262.16 45.012 258.344 44.724 255.32C41.7 255.824 38.424 256.976 34.896 258.776L27.012 262.772C26.076 264.212 25.536 266.336 25.392 269.144C25.464 271.448 25.392 274.616 25.176 278.648C23.592 280.376 21.216 281.492 18.048 281.996C16.608 282.212 13.692 282.32 9.29999 282.32C9.29999 275.12 10.2 267.776 12 260.288C13.224 255.464 15.024 248.192 17.4 238.472C18.912 231.92 19.668 226.052 19.668 220.868C19.668 217.34 19.308 213.344 18.588 208.88L28.308 204.452C35.436 201.284 41.34 198.944 46.02 197.432C46.02 206.072 46.992 213.884 48.936 220.868C50.664 226.916 53.724 234.152 58.116 242.576C61.284 241.568 63.264 241.064 64.056 241.064C65.208 241.064 66.252 241.352 67.188 241.928C66.612 243.008 65.676 243.908 64.38 244.628C63.084 245.348 61.824 246.032 60.6 246.68C60.24 246.896 59.952 247.076 59.736 247.22C61.464 249.884 63.228 254.06 65.028 259.748C66.9 265.724 68.556 269.936 69.996 272.384ZM41.916 248.732C38.676 240.38 36.192 232.928 34.464 226.376C34.464 229.832 33.708 234.62 32.196 240.74C30.612 247.292 29.712 252.044 29.496 254.996C32.16 253.916 36.3 251.828 41.916 248.732Z" fill="white"/>
<path d="M112.95 273.464C107.91 276.344 102.258 277.856 95.9936 278C83.2496 278.288 75.4016 274.256 72.4496 265.904C70.7936 261.224 69.9656 255.68 69.9656 249.272C69.9656 240.848 71.4056 230.624 74.2856 218.6C79.4696 214.496 85.6976 212.444 92.9696 212.444C92.7536 215.828 91.6376 221.156 89.6216 228.428C87.7496 235.268 86.8136 240.596 86.8136 244.412C86.8136 247.148 87.2096 249.848 88.0016 252.512C89.7296 258.272 91.2056 262.232 92.4296 264.392C94.7336 268.424 97.6856 270.26 101.286 269.9C104.094 269.612 106.074 266.444 107.226 260.396C107.442 259.244 107.946 253.916 108.738 244.412C108.882 242.684 108.954 241.388 108.954 240.524C108.954 237.572 108.342 233.108 107.118 227.132C105.894 221.372 105.318 217.088 105.39 214.28C109.494 212.264 112.95 211.256 115.758 211.256C117.414 211.256 118.71 211.652 119.646 212.444C124.11 222.596 126.342 233.468 126.342 245.06C126.342 251.756 125.478 257.192 123.75 261.368C121.662 266.48 118.062 270.512 112.95 273.464Z" fill="white"/>
<path d="M188.623 281.132C183.439 285.596 178.939 287.828 175.123 287.828C170.947 287.828 168.715 284.804 168.427 278.756C168.283 275.876 167.959 273.752 167.455 272.384C165.511 272.744 161.695 273.86 156.007 275.732C151.399 277.244 147.871 278 145.423 278C141.751 278 138.727 276.56 136.351 273.68C132.607 269.144 130.015 264.32 128.575 259.208C127.495 255.464 126.775 249.92 126.415 242.576C125.695 229.112 129.439 219.968 137.647 215.144C142.255 212.48 148.051 211.004 155.035 210.716C155.827 210.716 157.051 211.148 158.707 212.012C160.435 212.876 161.695 213.308 162.487 213.308C164.143 212.156 168.283 210.716 174.907 208.988C175.123 213.02 175.807 218.528 176.959 225.512L179.335 240.092C178.975 240.956 178.039 241.64 176.527 242.144C174.367 242.864 172.999 243.404 172.423 243.764C176.887 245.06 181.855 245.708 187.327 245.708C187.399 248.3 187.111 252.08 186.463 257.048C185.815 262.016 185.491 265.688 185.491 268.064C185.491 272.816 186.535 277.172 188.623 281.132ZM160.327 243.224C159.535 231.992 155.071 224.72 146.935 221.408C144.775 229.688 143.839 237.788 144.127 245.708C148.303 244.052 153.703 243.224 160.327 243.224ZM161.515 253.808C159.715 253.808 157.015 253.592 153.415 253.16C149.887 252.728 147.223 252.512 145.423 252.512C146.647 260.504 150.463 266.408 156.871 270.224C159.103 268.496 160.507 266.012 161.083 262.772C161.371 261.116 161.515 258.128 161.515 253.808Z" fill="white"/>
<path d="M231.644 273.464C226.604 276.344 220.952 277.856 214.688 278C201.944 278.288 194.096 274.256 191.144 265.904C189.488 261.224 188.66 255.68 188.66 249.272C188.66 240.848 190.1 230.624 192.98 218.6C198.164 214.496 204.392 212.444 211.664 212.444C211.448 215.828 210.332 221.156 208.316 228.428C206.444 235.268 205.508 240.596 205.508 244.412C205.508 247.148 205.904 249.848 206.696 252.512C208.424 258.272 209.9 262.232 211.124 264.392C213.428 268.424 216.38 270.26 219.98 269.9C222.788 269.612 224.768 266.444 225.92 260.396C226.136 259.244 226.64 253.916 227.432 244.412C227.576 242.684 227.648 241.388 227.648 240.524C227.648 237.572 227.036 233.108 225.812 227.132C224.588 221.372 224.012 217.088 224.084 214.28C228.188 212.264 231.644 211.256 234.452 211.256C236.108 211.256 237.404 211.652 238.34 212.444C242.804 222.596 245.036 233.468 245.036 245.06C245.036 251.756 244.172 257.192 242.444 261.368C240.356 266.48 236.756 270.512 231.644 273.464Z" fill="white"/>
<path d="M311.638 199.916C311.782 201.068 311.854 202.22 311.854 203.372C311.854 207.116 310.882 212.624 308.938 219.896C307.066 227.168 306.13 232.712 306.13 236.528C303.538 236.744 299.47 237.5 293.926 238.796C298.75 244.268 301.162 249.632 301.162 254.888C301.162 260.648 298.498 265.724 293.17 270.116C288.706 273.86 283.378 276.38 277.186 277.676C276.178 277.892 275.026 278 273.73 278C269.626 278 266.026 276.74 262.93 274.22C259.618 271.556 257.71 268.244 257.206 264.284C256.99 262.628 256.882 261.296 256.882 260.288C256.882 256.976 258.07 254.672 260.446 253.376C262.03 252.512 266.134 251.324 272.758 249.812C271.606 252.044 271.03 254.384 271.03 256.832C271.03 262.592 273.838 267.668 279.454 272.06C284.638 265.508 287.23 260.252 287.23 256.292C287.23 254.42 286.87 252.656 286.15 251C282.262 242 273.37 237.5 259.474 237.5C257.746 237.5 255.874 237.536 253.858 237.608C253.498 235.88 252.382 230.732 250.51 222.164C249.286 216.548 247.45 211.724 245.002 207.692C248.098 205.388 251.59 203.984 255.478 203.48C257.998 203.12 261.814 203.084 266.926 203.372C272.038 203.588 275.854 203.516 278.374 203.156C286.222 202.148 291.73 201.464 294.898 201.104C299.938 200.528 305.518 200.132 311.638 199.916ZM290.254 236.528C290.11 228.176 289.894 223.028 289.606 221.084C288.454 214.028 285.682 210.5 281.29 210.5C279.922 210.5 278.554 210.644 277.186 210.932C274.954 211.436 273.154 212.732 271.786 214.82C270.418 216.836 269.734 219.032 269.734 221.408C269.734 222.56 269.914 223.712 270.274 224.864C271.282 227.96 274.126 230.264 278.806 231.776C284.998 233.792 288.814 235.376 290.254 236.528ZM265.522 208.772L260.014 209.312L260.23 212.336L265.522 208.772Z" fill="white"/>
<path d="M379.066 202.184C376.258 205.208 372.19 207.26 366.862 208.34C359.806 209.78 355.162 211.04 352.93 212.12C350.266 213.416 348.934 215.396 348.934 218.06C348.934 220.364 349.978 223.784 352.066 228.32C354.586 233.864 356.098 237.572 356.602 239.444C357.466 242.612 359.842 247.508 363.73 254.132C367.114 259.82 368.806 264.212 368.806 267.308C368.806 270.548 367.726 273.248 365.566 275.408C363.478 277.496 360.778 278.54 357.466 278.54C356.386 278.54 354.802 278.432 352.714 278.216C350.626 278.072 349.042 278 347.962 278C347.386 275.48 346.558 270.224 345.478 262.232C344.686 256.4 343.426 251.288 341.698 246.896C341.338 246.032 339.358 242.108 335.758 235.124C333.454 230.66 332.302 226.988 332.302 224.108C332.302 221.66 332.95 219.32 334.246 217.088C332.086 217.088 328.954 217.556 324.85 218.492C320.818 219.428 317.794 219.896 315.778 219.896C314.482 219.896 313.186 219.788 311.89 219.572C317.506 213.956 323.95 209.96 331.222 207.584C335.686 206.144 342.814 204.848 352.606 203.696C362.974 202.472 370.966 201.14 376.582 199.7L379.066 202.184Z" fill="white"/>
<path d="M471.348 197.972C471.78 200.708 471.996 203.408 471.996 206.072C471.996 209.168 471.528 213.776 470.592 219.896C469.728 225.944 469.296 230.516 469.296 233.612C469.296 238.796 470.628 246.068 473.292 255.428C475.812 255.284 479.772 254.384 485.172 252.728C490.356 251.144 494.28 250.352 496.944 250.352C500.472 250.352 503.388 251.504 505.692 253.808C502.812 255.968 497.7 257.372 490.356 258.02C483.516 258.596 478.368 259.532 474.912 260.828C471.24 262.124 466.776 264.68 461.52 268.496C457.128 271.736 453.996 273.824 452.124 274.76C448.452 276.632 444.276 277.712 439.596 278C443.052 273.176 449.424 268.1 458.712 262.772C456.336 255.212 455.148 246.356 455.148 236.204C455.148 230.948 455.472 225.404 456.12 219.572C453.24 222.02 450.072 224.072 446.616 225.728C444.096 226.952 440.496 228.284 435.816 229.724C437.4 227.78 439.884 225.368 443.268 222.488C446.94 219.392 449.46 217.052 450.828 215.468C453.42 212.516 455.508 209.024 457.092 204.992C459.252 203.264 464.004 200.924 471.348 197.972Z" fill="white"/>
<path d="M551.749 192.68C552.181 194.84 552.397 197 552.397 199.16C552.397 205.136 550.705 211.58 547.321 218.492C545.377 222.452 542.101 228.896 537.493 237.824C542.245 236.6 547.429 235.736 553.045 235.232C560.533 234.584 565.429 234.08 567.733 233.72L570.865 197.756C577.633 196.892 583.141 196.46 587.389 196.46C588.109 199.412 588.469 203.048 588.469 207.368C588.469 215.072 587.461 223.856 585.445 233.72C585.877 234.44 587.209 235.52 589.441 236.96C591.385 238.256 592.501 239.48 592.789 240.632L584.797 240.956C584.797 247.148 585.481 253.088 586.849 258.776C587.641 262.088 589.405 267.812 592.141 275.948C586.093 279.044 581.521 280.592 578.425 280.592C576.697 280.592 575.221 280.196 573.997 279.404C571.405 277.748 569.713 272.384 568.921 263.312C568.489 258.488 568.273 250.208 568.273 238.472C561.577 238.76 551.677 241.46 538.573 246.572C526.405 251.324 517.261 253.484 511.141 253.052C512.149 251.324 515.281 246.428 520.537 238.364C524.137 232.82 526.801 228.068 528.529 224.108C530.545 219.428 532.057 214.172 533.065 208.34L535.333 195.272C542.245 193.544 547.717 192.68 551.749 192.68Z" fill="white"/>
<path d="M104.34 7.82397C106.284 7.89597 107.256 8.86797 107.256 10.74C107.256 13.476 103.548 21.144 96.132 33.744C88.068 47.496 83.136 57.576 81.336 63.984C80.184 68.16 79.608 73.596 79.608 80.292C79.608 90.948 79.464 97.212 79.176 99.084C75.36 100.308 72.912 101.064 71.832 101.352C69.024 102.144 66.504 102.612 64.272 102.756C64.128 99.156 62.94 94.26 60.708 88.068C58.26 81.516 56.892 76.656 56.604 73.488C56.388 73.272 56.244 73.056 56.172 72.84C56.244 72.264 56.136 71.4 55.848 70.248C54.552 72.408 53.904 74.964 53.904 77.916C53.904 79.644 54.3 82.668 55.092 86.988C55.812 90.804 56.064 93.792 55.848 95.952C48.288 99.624 42.744 101.64 39.216 102C39.216 88.896 36.372 76.548 30.684 64.956C27.804 59.052 20.676 47.856 9.29999 31.368C12.036 28.344 14.484 26.184 16.644 24.888C19.452 23.232 22.584 22.404 26.04 22.404C27.84 26.652 30.144 31.044 32.952 35.58L41.268 49.08C42.78 46.344 43.572 42.312 43.644 36.984C43.788 31.368 44.148 27.732 44.724 26.076C46.164 25.068 48.684 23.916 52.284 22.62C55.956 21.324 58.548 20.676 60.06 20.676C60.42 20.676 60.672 20.748 60.816 20.892C62.472 34.284 65.172 45.012 68.916 53.076C71.508 49.548 74.748 43.428 78.636 34.716C82.452 26.292 85.62 20.496 88.14 17.328C92.172 12.288 97.572 9.11998 104.34 7.82397Z" stroke="black" stroke-width="14" mask="url(#path-1-outside-1)"/>
<path d="M179.77 69.924C178.978 80.076 173.974 88.032 164.758 93.792C157.198 98.472 147.838 101.208 136.678 102C128.47 101.64 121.486 98.112 115.726 91.416C110.11 84.936 107.302 77.52 107.302 69.168C107.302 66.576 107.662 63.984 108.382 61.392C111.55 49.944 116.698 40.836 123.826 34.068C131.89 26.508 141.502 22.872 152.662 23.16C162.094 23.448 169.258 28.236 174.154 37.524C178.042 45.012 179.986 53.94 179.986 64.308C179.986 66.252 179.914 68.124 179.77 69.924ZM146.182 91.524C146.974 91.668 147.73 91.74 148.45 91.74C153.85 91.74 157.882 88.644 160.546 82.452C162.49 77.916 163.462 72.552 163.462 66.36C163.462 58.8 162.058 51.96 159.25 45.84C155.578 37.704 150.394 34.032 143.698 34.824C136.498 35.616 131.35 39.396 128.254 46.164C126.166 50.628 124.87 57.432 124.366 66.576C123.502 80.76 130.774 89.076 146.182 91.524ZM146.182 58.908C145.75 61.5 144.166 63.768 141.43 65.712C136.75 69.024 134.23 70.86 133.87 71.22C133.15 70.428 132.79 69.492 132.79 68.412C132.79 66.036 134.338 63.732 137.434 61.5C139.954 59.7 142.366 58.8 144.67 58.8C145.174 58.8 145.678 58.836 146.182 58.908Z" stroke="black" stroke-width="14" mask="url(#path-1-outside-1)"/>
<path d="M239.931 64.2C236.979 68.592 234.783 74.676 233.343 82.452C232.191 88.644 231.723 94.224 231.939 99.192C229.923 101.424 226.863 102.54 222.759 102.54C221.175 102.54 219.123 102.36 216.603 102C216.603 92.712 218.115 82.344 221.139 70.896C218.259 69.384 215.379 68.412 212.499 67.98C210.627 67.692 207.567 67.548 203.319 67.548C203.103 68.988 202.995 70.392 202.995 71.76C202.995 78.528 206.451 86.016 213.363 94.224C209.979 96.456 207.495 97.968 205.911 98.76C203.319 99.984 200.619 100.704 197.811 100.92C197.019 98.04 194.823 91.776 191.223 82.128C188.415 74.784 186.723 67.332 186.147 59.772C185.787 55.092 185.787 47.424 186.147 36.768C183.339 35.544 181.899 34.896 181.827 34.824C180.747 34.104 180.135 32.808 179.991 30.936C184.023 27.624 187.659 25.968 190.899 25.968C192.987 25.968 196.371 26.976 201.051 28.992C206.955 31.512 212.139 33.276 216.603 34.284C227.187 36.588 232.479 40.008 232.479 44.544C232.479 48.72 229.923 51.996 224.811 54.372C220.923 56.244 217.107 58.044 213.363 59.772C216.243 60.636 220.671 61.392 226.647 62.04C232.623 62.616 237.051 63.336 239.931 64.2ZM210.555 44.328C208.899 43.968 206.379 43.464 202.995 42.816V56.208C211.275 55.128 215.415 52.932 215.415 49.62C215.415 46.884 213.795 45.12 210.555 44.328Z" stroke="black" stroke-width="14" mask="url(#path-1-outside-1)"/>
<path d="M301.154 59.232C298.346 67.152 296.942 75.288 296.942 83.64C296.942 85.584 297.014 88.464 297.158 92.28C297.302 96.024 297.374 98.868 297.374 100.812C291.398 101.82 285.53 102.216 279.77 102C279.986 99.84 280.094 97.5 280.094 94.98C280.094 93.972 280.058 92.496 279.986 90.552C279.914 88.536 279.878 87.024 279.878 86.016C279.878 79.608 280.994 73.992 283.226 69.168C282.002 68.952 280.742 68.844 279.446 68.844C277.934 68.844 275.774 69.096 272.966 69.6C270.158 70.032 268.106 70.284 266.81 70.356C266.954 73.38 268.142 77.916 270.374 83.964C272.678 90.012 273.83 94.188 273.83 96.492C273.83 97.212 273.758 97.86 273.614 98.436C272.894 101.172 268.79 102.54 261.302 102.54C259.07 102.54 257.018 102.36 255.146 102C255.146 91.128 253.958 81.48 251.582 73.056C249.422 65.496 245.534 56.388 239.918 45.732C244.238 42.06 247.514 40.224 249.746 40.224C250.754 40.224 251.762 40.512 252.77 41.088C255.578 42.672 257.666 45.444 259.034 49.404C260.978 54.948 262.418 58.404 263.354 59.772L274.262 45.624C277.286 42.672 283.01 41.052 291.434 40.764C290.426 45.156 288.266 49.188 284.954 52.86C282.722 55.164 279.41 58.656 275.018 63.336C278.186 63.624 282.542 63.048 288.086 61.608C294.062 60.024 298.418 59.232 301.154 59.232Z" stroke="black" stroke-width="14" mask="url(#path-1-outside-1)"/>
<path d="M367.747 23.916C367.891 25.068 367.963 26.22 367.963 27.372C367.963 31.116 366.991 36.624 365.047 43.896C363.175 51.168 362.239 56.712 362.239 60.528C359.647 60.744 355.579 61.5 350.035 62.796C354.859 68.268 357.271 73.632 357.271 78.888C357.271 84.648 354.607 89.724 349.279 94.116C344.815 97.86 339.487 100.38 333.295 101.676C332.287 101.892 331.135 102 329.839 102C325.735 102 322.135 100.74 319.039 98.22C315.727 95.556 313.819 92.244 313.315 88.284C313.099 86.628 312.991 85.296 312.991 84.288C312.991 80.976 314.179 78.672 316.555 77.376C318.139 76.512 322.243 75.324 328.867 73.812C327.715 76.044 327.139 78.384 327.139 80.832C327.139 86.592 329.947 91.668 335.563 96.06C340.747 89.508 343.339 84.252 343.339 80.292C343.339 78.42 342.979 76.656 342.259 75C338.371 66 329.479 61.5 315.583 61.5C313.855 61.5 311.983 61.536 309.967 61.608C309.607 59.88 308.491 54.732 306.619 46.164C305.395 40.548 303.559 35.724 301.111 31.692C304.207 29.388 307.699 27.984 311.587 27.48C314.107 27.12 317.923 27.084 323.035 27.372C328.147 27.588 331.963 27.516 334.483 27.156C342.331 26.148 347.839 25.464 351.007 25.104C356.047 24.528 361.627 24.132 367.747 23.916ZM346.363 60.528C346.219 52.176 346.003 47.028 345.715 45.084C344.563 38.028 341.791 34.5 337.399 34.5C336.031 34.5 334.663 34.644 333.295 34.932C331.063 35.436 329.263 36.732 327.895 38.82C326.527 40.836 325.843 43.032 325.843 45.408C325.843 46.56 326.023 47.712 326.383 48.864C327.391 51.96 330.235 54.264 334.915 55.776C341.107 57.792 344.923 59.376 346.363 60.528ZM321.631 32.772L316.123 33.312L316.339 36.336L321.631 32.772Z" stroke="black" stroke-width="14" mask="url(#path-1-outside-1)"/>
<path d="M439.495 28.992C439.207 34.824 437.767 43.32 435.175 54.48C432.727 64.992 431.503 72.768 431.503 77.808C431.503 84.648 433.087 90.732 436.255 96.06C434.743 98.004 432.475 99.444 429.451 100.38C428.875 100.596 426.175 101.208 421.351 102.216C418.111 96.024 416.491 88.752 416.491 80.4C416.491 76.728 416.491 74.892 416.491 74.892L416.599 68.736C408.319 68.736 402.271 69.528 398.455 71.112C396.871 71.76 396.079 72.948 396.079 74.676C396.079 76.188 396.835 78.708 398.347 82.236C400.003 85.98 400.903 88.608 401.047 90.12C400.615 90.336 397.951 91.488 393.055 93.576C389.959 94.872 387.187 95.772 384.739 96.276C384.739 85.476 383.371 75.756 380.635 67.116C378.187 59.34 373.975 50.412 367.999 40.332C371.527 37.596 373.471 36.084 373.831 35.796C376.567 33.924 378.727 32.988 380.311 32.988C384.127 32.988 387.655 37.272 390.895 45.84L397.267 62.904C403.459 61.536 410.299 60.672 417.787 60.312C417.787 49.008 419.839 39.72 423.943 32.448C425.599 30.792 427.867 29.748 430.747 29.316C432.187 29.1 435.103 28.992 439.495 28.992Z" stroke="black" stroke-width="14" mask="url(#path-1-outside-1)"/>
<path d="M511.996 69.924C511.204 80.076 506.2 88.032 496.984 93.792C489.424 98.472 480.064 101.208 468.904 102C460.696 101.64 453.712 98.112 447.952 91.416C442.336 84.936 439.528 77.52 439.528 69.168C439.528 66.576 439.888 63.984 440.608 61.392C443.776 49.944 448.924 40.836 456.052 34.068C464.116 26.508 473.728 22.872 484.888 23.16C494.32 23.448 501.484 28.236 506.38 37.524C510.268 45.012 512.212 53.94 512.212 64.308C512.212 66.252 512.14 68.124 511.996 69.924ZM478.408 91.524C479.2 91.668 479.956 91.74 480.676 91.74C486.076 91.74 490.108 88.644 492.772 82.452C494.716 77.916 495.688 72.552 495.688 66.36C495.688 58.8 494.284 51.96 491.476 45.84C487.804 37.704 482.62 34.032 475.924 34.824C468.724 35.616 463.576 39.396 460.48 46.164C458.392 50.628 457.096 57.432 456.592 66.576C455.728 80.76 463 89.076 478.408 91.524ZM478.408 58.908C477.976 61.5 476.392 63.768 473.656 65.712C468.976 69.024 466.456 70.86 466.096 71.22C465.376 70.428 465.016 69.492 465.016 68.412C465.016 66.036 466.564 63.732 469.66 61.5C472.18 59.7 474.592 58.8 476.896 58.8C477.4 58.8 477.904 58.836 478.408 58.908Z" stroke="black" stroke-width="14" mask="url(#path-1-outside-1)"/>
<path d="M567.621 44.76C567.621 49.368 565.209 53.688 560.385 57.72L546.777 66.792C541.953 70.032 539.541 73.164 539.541 76.188C539.541 77.916 540.153 79.608 541.377 81.264C542.673 82.848 544.545 85.188 546.993 88.284C549.513 91.38 550.773 93.828 550.773 95.628C550.773 96.132 550.665 96.6 550.449 97.032C550.017 97.896 547.965 99.012 544.293 100.38C540.693 101.676 538.245 102.324 536.949 102.324C536.445 102.324 536.013 102.216 535.653 102C529.461 98.04 524.925 90.228 522.045 78.564C520.245 71.148 519.021 63.336 518.373 55.128C518.373 55.128 517.869 47.856 516.861 33.312C516.501 32.736 515.781 32.052 514.701 31.26C513.333 30.252 512.505 29.604 512.217 29.316C512.865 28.884 514.269 27.696 516.429 25.752C518.661 23.736 521.109 22.728 523.773 22.728C526.221 22.728 529.137 23.916 532.521 26.292C536.625 29.172 539.829 31.044 542.133 31.908C543.789 32.484 547.425 33.276 553.041 34.284C557.721 35.148 561.105 36.156 563.193 37.308C566.145 38.964 567.621 41.448 567.621 44.76ZM550.665 45.3C545.913 42.06 540.693 40.008 535.005 39.144C535.797 45.12 536.193 52.932 536.193 62.58C543.825 59.988 548.649 54.228 550.665 45.3Z" stroke="black" stroke-width="14" mask="url(#path-1-outside-1)"/>
<path d="M634.245 23.916C634.389 25.068 634.461 26.22 634.461 27.372C634.461 31.116 633.489 36.624 631.545 43.896C629.673 51.168 628.737 56.712 628.737 60.528C626.145 60.744 622.077 61.5 616.533 62.796C621.357 68.268 623.769 73.632 623.769 78.888C623.769 84.648 621.105 89.724 615.777 94.116C611.313 97.86 605.985 100.38 599.793 101.676C598.785 101.892 597.633 102 596.337 102C592.233 102 588.633 100.74 585.537 98.22C582.225 95.556 580.317 92.244 579.813 88.284C579.597 86.628 579.489 85.296 579.489 84.288C579.489 80.976 580.677 78.672 583.053 77.376C584.637 76.512 588.741 75.324 595.365 73.812C594.213 76.044 593.637 78.384 593.637 80.832C593.637 86.592 596.445 91.668 602.061 96.06C607.245 89.508 609.837 84.252 609.837 80.292C609.837 78.42 609.477 76.656 608.757 75C604.869 66 595.977 61.5 582.081 61.5C580.353 61.5 578.481 61.536 576.465 61.608C576.105 59.88 574.989 54.732 573.117 46.164C571.893 40.548 570.057 35.724 567.609 31.692C570.705 29.388 574.197 27.984 578.085 27.48C580.605 27.12 584.421 27.084 589.533 27.372C594.645 27.588 598.461 27.516 600.981 27.156C608.829 26.148 614.337 25.464 617.505 25.104C622.545 24.528 628.125 24.132 634.245 23.916ZM612.861 60.528C612.717 52.176 612.501 47.028 612.213 45.084C611.061 38.028 608.289 34.5 603.897 34.5C602.529 34.5 601.161 34.644 599.793 34.932C597.561 35.436 595.761 36.732 594.393 38.82C593.025 40.836 592.341 43.032 592.341 45.408C592.341 46.56 592.521 47.712 592.881 48.864C593.889 51.96 596.733 54.264 601.413 55.776C607.605 57.792 611.421 59.376 612.861 60.528ZM588.129 32.772L582.621 33.312L582.837 36.336L588.129 32.772Z" stroke="black" stroke-width="14" mask="url(#path-1-outside-1)"/>
<path d="M69.996 272.384C65.028 275.84 59.736 277.712 54.12 278C53.616 275.624 51.924 271.88 49.044 266.768C46.452 262.16 45.012 258.344 44.724 255.32C41.7 255.824 38.424 256.976 34.896 258.776L27.012 262.772C26.076 264.212 25.536 266.336 25.392 269.144C25.464 271.448 25.392 274.616 25.176 278.648C23.592 280.376 21.216 281.492 18.048 281.996C16.608 282.212 13.692 282.32 9.29999 282.32C9.29999 275.12 10.2 267.776 12 260.288C13.224 255.464 15.024 248.192 17.4 238.472C18.912 231.92 19.668 226.052 19.668 220.868C19.668 217.34 19.308 213.344 18.588 208.88L28.308 204.452C35.436 201.284 41.34 198.944 46.02 197.432C46.02 206.072 46.992 213.884 48.936 220.868C50.664 226.916 53.724 234.152 58.116 242.576C61.284 241.568 63.264 241.064 64.056 241.064C65.208 241.064 66.252 241.352 67.188 241.928C66.612 243.008 65.676 243.908 64.38 244.628C63.084 245.348 61.824 246.032 60.6 246.68C60.24 246.896 59.952 247.076 59.736 247.22C61.464 249.884 63.228 254.06 65.028 259.748C66.9 265.724 68.556 269.936 69.996 272.384ZM41.916 248.732C38.676 240.38 36.192 232.928 34.464 226.376C34.464 229.832 33.708 234.62 32.196 240.74C30.612 247.292 29.712 252.044 29.496 254.996C32.16 253.916 36.3 251.828 41.916 248.732Z" stroke="black" stroke-width="14" mask="url(#path-1-outside-1)"/>
<path d="M112.95 273.464C107.91 276.344 102.258 277.856 95.9936 278C83.2496 278.288 75.4016 274.256 72.4496 265.904C70.7936 261.224 69.9656 255.68 69.9656 249.272C69.9656 240.848 71.4056 230.624 74.2856 218.6C79.4696 214.496 85.6976 212.444 92.9696 212.444C92.7536 215.828 91.6376 221.156 89.6216 228.428C87.7496 235.268 86.8136 240.596 86.8136 244.412C86.8136 247.148 87.2096 249.848 88.0016 252.512C89.7296 258.272 91.2056 262.232 92.4296 264.392C94.7336 268.424 97.6856 270.26 101.286 269.9C104.094 269.612 106.074 266.444 107.226 260.396C107.442 259.244 107.946 253.916 108.738 244.412C108.882 242.684 108.954 241.388 108.954 240.524C108.954 237.572 108.342 233.108 107.118 227.132C105.894 221.372 105.318 217.088 105.39 214.28C109.494 212.264 112.95 211.256 115.758 211.256C117.414 211.256 118.71 211.652 119.646 212.444C124.11 222.596 126.342 233.468 126.342 245.06C126.342 251.756 125.478 257.192 123.75 261.368C121.662 266.48 118.062 270.512 112.95 273.464Z" stroke="black" stroke-width="14" mask="url(#path-1-outside-1)"/>
<path d="M188.623 281.132C183.439 285.596 178.939 287.828 175.123 287.828C170.947 287.828 168.715 284.804 168.427 278.756C168.283 275.876 167.959 273.752 167.455 272.384C165.511 272.744 161.695 273.86 156.007 275.732C151.399 277.244 147.871 278 145.423 278C141.751 278 138.727 276.56 136.351 273.68C132.607 269.144 130.015 264.32 128.575 259.208C127.495 255.464 126.775 249.92 126.415 242.576C125.695 229.112 129.439 219.968 137.647 215.144C142.255 212.48 148.051 211.004 155.035 210.716C155.827 210.716 157.051 211.148 158.707 212.012C160.435 212.876 161.695 213.308 162.487 213.308C164.143 212.156 168.283 210.716 174.907 208.988C175.123 213.02 175.807 218.528 176.959 225.512L179.335 240.092C178.975 240.956 178.039 241.64 176.527 242.144C174.367 242.864 172.999 243.404 172.423 243.764C176.887 245.06 181.855 245.708 187.327 245.708C187.399 248.3 187.111 252.08 186.463 257.048C185.815 262.016 185.491 265.688 185.491 268.064C185.491 272.816 186.535 277.172 188.623 281.132ZM160.327 243.224C159.535 231.992 155.071 224.72 146.935 221.408C144.775 229.688 143.839 237.788 144.127 245.708C148.303 244.052 153.703 243.224 160.327 243.224ZM161.515 253.808C159.715 253.808 157.015 253.592 153.415 253.16C149.887 252.728 147.223 252.512 145.423 252.512C146.647 260.504 150.463 266.408 156.871 270.224C159.103 268.496 160.507 266.012 161.083 262.772C161.371 261.116 161.515 258.128 161.515 253.808Z" stroke="black" stroke-width="14" mask="url(#path-1-outside-1)"/>
<path d="M231.644 273.464C226.604 276.344 220.952 277.856 214.688 278C201.944 278.288 194.096 274.256 191.144 265.904C189.488 261.224 188.66 255.68 188.66 249.272C188.66 240.848 190.1 230.624 192.98 218.6C198.164 214.496 204.392 212.444 211.664 212.444C211.448 215.828 210.332 221.156 208.316 228.428C206.444 235.268 205.508 240.596 205.508 244.412C205.508 247.148 205.904 249.848 206.696 252.512C208.424 258.272 209.9 262.232 211.124 264.392C213.428 268.424 216.38 270.26 219.98 269.9C222.788 269.612 224.768 266.444 225.92 260.396C226.136 259.244 226.64 253.916 227.432 244.412C227.576 242.684 227.648 241.388 227.648 240.524C227.648 237.572 227.036 233.108 225.812 227.132C224.588 221.372 224.012 217.088 224.084 214.28C228.188 212.264 231.644 211.256 234.452 211.256C236.108 211.256 237.404 211.652 238.34 212.444C242.804 222.596 245.036 233.468 245.036 245.06C245.036 251.756 244.172 257.192 242.444 261.368C240.356 266.48 236.756 270.512 231.644 273.464Z" stroke="black" stroke-width="14" mask="url(#path-1-outside-1)"/>
<path d="M311.638 199.916C311.782 201.068 311.854 202.22 311.854 203.372C311.854 207.116 310.882 212.624 308.938 219.896C307.066 227.168 306.13 232.712 306.13 236.528C303.538 236.744 299.47 237.5 293.926 238.796C298.75 244.268 301.162 249.632 301.162 254.888C301.162 260.648 298.498 265.724 293.17 270.116C288.706 273.86 283.378 276.38 277.186 277.676C276.178 277.892 275.026 278 273.73 278C269.626 278 266.026 276.74 262.93 274.22C259.618 271.556 257.71 268.244 257.206 264.284C256.99 262.628 256.882 261.296 256.882 260.288C256.882 256.976 258.07 254.672 260.446 253.376C262.03 252.512 266.134 251.324 272.758 249.812C271.606 252.044 271.03 254.384 271.03 256.832C271.03 262.592 273.838 267.668 279.454 272.06C284.638 265.508 287.23 260.252 287.23 256.292C287.23 254.42 286.87 252.656 286.15 251C282.262 242 273.37 237.5 259.474 237.5C257.746 237.5 255.874 237.536 253.858 237.608C253.498 235.88 252.382 230.732 250.51 222.164C249.286 216.548 247.45 211.724 245.002 207.692C248.098 205.388 251.59 203.984 255.478 203.48C257.998 203.12 261.814 203.084 266.926 203.372C272.038 203.588 275.854 203.516 278.374 203.156C286.222 202.148 291.73 201.464 294.898 201.104C299.938 200.528 305.518 200.132 311.638 199.916ZM290.254 236.528C290.11 228.176 289.894 223.028 289.606 221.084C288.454 214.028 285.682 210.5 281.29 210.5C279.922 210.5 278.554 210.644 277.186 210.932C274.954 211.436 273.154 212.732 271.786 214.82C270.418 216.836 269.734 219.032 269.734 221.408C269.734 222.56 269.914 223.712 270.274 224.864C271.282 227.96 274.126 230.264 278.806 231.776C284.998 233.792 288.814 235.376 290.254 236.528ZM265.522 208.772L260.014 209.312L260.23 212.336L265.522 208.772Z" stroke="black" stroke-width="14" mask="url(#path-1-outside-1)"/>
<path d="M379.066 202.184C376.258 205.208 372.19 207.26 366.862 208.34C359.806 209.78 355.162 211.04 352.93 212.12C350.266 213.416 348.934 215.396 348.934 218.06C348.934 220.364 349.978 223.784 352.066 228.32C354.586 233.864 356.098 237.572 356.602 239.444C357.466 242.612 359.842 247.508 363.73 254.132C367.114 259.82 368.806 264.212 368.806 267.308C368.806 270.548 367.726 273.248 365.566 275.408C363.478 277.496 360.778 278.54 357.466 278.54C356.386 278.54 354.802 278.432 352.714 278.216C350.626 278.072 349.042 278 347.962 278C347.386 275.48 346.558 270.224 345.478 262.232C344.686 256.4 343.426 251.288 341.698 246.896C341.338 246.032 339.358 242.108 335.758 235.124C333.454 230.66 332.302 226.988 332.302 224.108C332.302 221.66 332.95 219.32 334.246 217.088C332.086 217.088 328.954 217.556 324.85 218.492C320.818 219.428 317.794 219.896 315.778 219.896C314.482 219.896 313.186 219.788 311.89 219.572C317.506 213.956 323.95 209.96 331.222 207.584C335.686 206.144 342.814 204.848 352.606 203.696C362.974 202.472 370.966 201.14 376.582 199.7L379.066 202.184Z" stroke="black" stroke-width="14" mask="url(#path-1-outside-1)"/>
<path d="M471.348 197.972C471.78 200.708 471.996 203.408 471.996 206.072C471.996 209.168 471.528 213.776 470.592 219.896C469.728 225.944 469.296 230.516 469.296 233.612C469.296 238.796 470.628 246.068 473.292 255.428C475.812 255.284 479.772 254.384 485.172 252.728C490.356 251.144 494.28 250.352 496.944 250.352C500.472 250.352 503.388 251.504 505.692 253.808C502.812 255.968 497.7 257.372 490.356 258.02C483.516 258.596 478.368 259.532 474.912 260.828C471.24 262.124 466.776 264.68 461.52 268.496C457.128 271.736 453.996 273.824 452.124 274.76C448.452 276.632 444.276 277.712 439.596 278C443.052 273.176 449.424 268.1 458.712 262.772C456.336 255.212 455.148 246.356 455.148 236.204C455.148 230.948 455.472 225.404 456.12 219.572C453.24 222.02 450.072 224.072 446.616 225.728C444.096 226.952 440.496 228.284 435.816 229.724C437.4 227.78 439.884 225.368 443.268 222.488C446.94 219.392 449.46 217.052 450.828 215.468C453.42 212.516 455.508 209.024 457.092 204.992C459.252 203.264 464.004 200.924 471.348 197.972Z" stroke="black" stroke-width="14" mask="url(#path-1-outside-1)"/>
<path d="M551.749 192.68C552.181 194.84 552.397 197 552.397 199.16C552.397 205.136 550.705 211.58 547.321 218.492C545.377 222.452 542.101 228.896 537.493 237.824C542.245 236.6 547.429 235.736 553.045 235.232C560.533 234.584 565.429 234.08 567.733 233.72L570.865 197.756C577.633 196.892 583.141 196.46 587.389 196.46C588.109 199.412 588.469 203.048 588.469 207.368C588.469 215.072 587.461 223.856 585.445 233.72C585.877 234.44 587.209 235.52 589.441 236.96C591.385 238.256 592.501 239.48 592.789 240.632L584.797 240.956C584.797 247.148 585.481 253.088 586.849 258.776C587.641 262.088 589.405 267.812 592.141 275.948C586.093 279.044 581.521 280.592 578.425 280.592C576.697 280.592 575.221 280.196 573.997 279.404C571.405 277.748 569.713 272.384 568.921 263.312C568.489 258.488 568.273 250.208 568.273 238.472C561.577 238.76 551.677 241.46 538.573 246.572C526.405 251.324 517.261 253.484 511.141 253.052C512.149 251.324 515.281 246.428 520.537 238.364C524.137 232.82 526.801 228.068 528.529 224.108C530.545 219.428 532.057 214.172 533.065 208.34L535.333 195.272C542.245 193.544 547.717 192.68 551.749 192.68Z" stroke="black" stroke-width="14" mask="url(#path-1-outside-1)"/>
</svg>
